<?xml version="1.0" standalone="no"?>
<!DOCTYPE svg PUBLIC "-//W3C//DTD SVG 1.1//EN" "http://www.w3.org/Graphics/SVG/1.1/DTD/svg11.dtd" >
<svg xmlns="http://www.w3.org/2000/svg">
<metadata></metadata>
<defs>
<font id="pt_sansbold" horiz-adv-x="1161" >
<font-face units-per-em="2048" ascent="1638" descent="-410" />
<missing-glyph horiz-adv-x="518" />
<glyph unicode="fi" horiz-adv-x="1132" d="M25 799v225h141v57q0 195 100.5 284t290.5 89q141 0 251 -21.5t177 -60.5l-70 -207q-53 29 -128.5 46.5t-168.5 17.5q-59 0 -96 -13.5t-57.5 -39t-26.5 -64.5t-6 -88h576v-1024h-267v799h-309v-799h-266v799h-141z" />
<glyph unicode="fl" horiz-adv-x="1214" d="M25 799v225h141v57q0 193 93 286t321 93q47 0 108.5 -4t121.5 -9t112.5 -11t81.5 -13v-1079q0 -72 18 -104.5t57 -32.5q25 0 48.5 4t58.5 18l31 -209q-33 -16 -101.5 -32.5t-140.5 -16.5q-117 0 -177.5 54.5t-60.5 179.5v1016q-27 6 -73 10t-89 4q-47 0 -75.5 -14.5 t-44 -41t-19.5 -66.5t-4 -89h154v-225h-154v-799h-266v799h-141z" />
<glyph unicode="&#xd;" horiz-adv-x="518" />
<glyph unicode=" "  horiz-adv-x="518" />
<glyph unicode="&#x09;" horiz-adv-x="518" />
<glyph unicode="&#xa0;" horiz-adv-x="518" />
<glyph unicode="!" horiz-adv-x="602" d="M176 135q0 72 45 114t119 42q78 0 123 -42t45 -114t-45 -115t-123 -43q-74 0 -119 43t-45 115zM205 760v674h274v-674l-53 -334h-168z" />
<glyph unicode="&#x22;" horiz-adv-x="823" d="M184 991v443h234l-74 -443h-160zM487 991v443h234l-74 -443h-160z" />
<glyph unicode="#" d="M39 420l45 198h154l51 218h-148l45 198h150l72 295h217l-70 -295h182l72 295h217l-70 -295h148l-51 -198h-144l-51 -218h141l-49 -198h-139l-74 -316h-219l74 316h-182l-74 -316h-219l73 316h-151zM457 618h182l51 218h-182z" />
<glyph unicode="$" d="M141 1053q0 176 93.5 273t252.5 126v186h213v-178q90 -6 158 -24.5t125 -42.5l-74 -228q-35 16 -88 32.5t-121 25.5v-383q63 -29 128 -65t115 -85t82 -115.5t32 -158.5q0 -188 -95.5 -294t-261.5 -136v-191h-213v178q-117 4 -204.5 24.5t-137.5 47.5l80 231 q37 -23 103.5 -43t158.5 -28v420q-63 29 -125.5 63.5t-111.5 83.5t-79 117.5t-30 163.5zM408 1075q0 -61 48 -102t119 -76v332q-96 -4 -131.5 -47.5t-35.5 -106.5zM612 205q90 10 134.5 57t44.5 123q0 66 -52.5 108t-126.5 76v-364z" />
<glyph unicode="%" horiz-adv-x="1720" d="M105 1110q0 92 26.5 157.5t73.5 108.5t113.5 62.5t144.5 19.5t143.5 -18.5t113.5 -59.5t74.5 -107.5t28.5 -162.5q-2 -96 -28.5 -162.5t-74.5 -107.5t-113.5 -59.5t-143.5 -18.5t-144.5 18.5t-113.5 59.5t-73.5 107.5t-26.5 162.5zM207 113l1179 1349l150 -135 l-1180 -1356zM342 1110q0 -176 121 -176q63 0 91 38t30 138q-2 98 -29.5 137t-91.5 39q-63 0 -92 -39t-29 -137zM936 350q0 92 26.5 157.5t73.5 108.5t113.5 62.5t144.5 19.5t143.5 -18.5t113.5 -59.5t74.5 -107.5t28.5 -162.5q-2 -96 -28.5 -162.5t-74.5 -107.5 t-113.5 -59.5t-143.5 -18.5t-144.5 18.5t-113.5 59.5t-73.5 107.5t-26.5 162.5zM1173 350q0 -176 121 -176q63 0 91 38t30 138q-2 98 -29.5 137t-91.5 39q-63 0 -92 -39t-29 -137z" />
<glyph unicode="&#x26;" horiz-adv-x="1667" d="M188 397q0 78 26 148.5t72 132t109.5 115t136.5 94.5q-51 68 -83.5 137.5t-32.5 146.5q0 51 19.5 103.5t61.5 94.5t109.5 67.5t163.5 25.5q94 0 160.5 -22.5t107.5 -59.5t59.5 -84t18.5 -96q0 -84 -59.5 -175t-202.5 -175q72 -111 143.5 -203t159.5 -182q47 51 85 128 t67 157l192 -103q-12 -37 -33.5 -81t-47 -89t-52.5 -85t-49 -68q66 -59 115 -93t100 -63l-141 -197q-57 27 -118 71t-120 101q-74 -68 -184.5 -120t-272.5 -52q-106 0 -199 29t-162 84t-109 134t-40 179zM455 420q0 -104 76.5 -163.5t201.5 -59.5q82 0 153.5 33.5 t108.5 74.5q-104 109 -190 216.5t-150 203.5q-98 -76 -149 -146.5t-51 -158.5zM682 1159q0 -86 74 -184q80 51 115.5 96t35.5 86q0 49 -27.5 78t-88.5 29q-55 0 -82 -29t-27 -76z" />
<glyph unicode="'" horiz-adv-x="520" d="M184 991v443h234l-74 -443h-160z" />
<glyph unicode="(" horiz-adv-x="669" d="M123 498q0 113 18.5 237.5t59.5 250.5t107.5 247t162.5 225l172 -110q-72 -96 -120 -201t-77.5 -214.5t-43 -220t-13.5 -214.5q0 -98 14.5 -209t45 -220.5t80 -214t118.5 -190.5l-182 -115q-94 98 -159.5 216t-105.5 242t-58.5 250t-18.5 241z" />
<glyph unicode=")" horiz-adv-x="669" d="M23 -336q78 100 127 205.5t77.5 213t40 215.5t13.5 200q-2 111 -17.5 220t-46.5 219t-79 213t-111 198l172 110q98 -98 163.5 -216t105.5 -241.5t58.5 -249.5t20.5 -245q-2 -109 -20.5 -234t-59.5 -250.5t-107.5 -246.5t-154.5 -226z" />
<glyph unicode="*" horiz-adv-x="774" d="M82 1112v152h123l121 -35l-105 90l-57 102l131 76l57 -94l31 -121l31 113l57 100l131 -72l-61 -106l-99 -88l133 33h117v-150h-112l-125 33l102 -96l51 -86l-131 -76l-55 94l-41 131l-27 -119l-59 -100l-131 76l59 100l92 76l-112 -33h-121z" />
<glyph unicode="+" horiz-adv-x="1079" d="M88 578v229h332v346h239v-346h334v-229h-334v-351h-239v351h-332z" />
<glyph unicode="," horiz-adv-x="516" d="M76 -193q55 23 96 74t45 109q-47 -6 -89 28.5t-42 112.5q0 70 46 111t114 41q86 0 135 -57.5t49 -151.5q0 -92 -28.5 -159t-70.5 -111t-90 -69.5t-87 -37.5z" />
<glyph unicode="-" horiz-adv-x="737" d="M111 471v236h514v-236h-514z" />
<glyph unicode="." horiz-adv-x="503" d="M86 135q0 72 45 114t119 42q78 0 123 -42t45 -114t-45 -115t-123 -43q-74 0 -119 43t-45 115z" />
<glyph unicode="/" horiz-adv-x="835" d="M-49 -193l731 1651l201 -90l-731 -1655z" />
<glyph unicode="0" d="M82 719q0 377 129 560t371 183q258 0 378.5 -181t120.5 -562q0 -379 -130 -563.5t-371 -184.5q-256 0 -377 194t-121 554zM348 719q0 -250 54.5 -386t179.5 -136q121 0 177 124.5t56 397.5q0 248 -53 383t-182 135q-123 0 -177.5 -127t-54.5 -391z" />
<glyph unicode="1" d="M129 1081l467 377h149v-1233h279v-225h-817v225h285v809l30 140l-98 -121l-182 -125z" />
<glyph unicode="2" d="M141 0v137q49 51 110.5 120t124 145.5t122 158.5t106.5 165t75 161t28 147q0 84 -48.5 138.5t-152.5 54.5q-66 0 -134.5 -28t-115.5 -71l-106 189q80 66 181 105.5t238 39.5q88 0 162 -24.5t127 -71.5t84 -118t31 -165q0 -104 -38 -210.5t-96.5 -209t-129 -197.5 t-138.5 -175l-108 -84v-10l147 28h394v-225h-863z" />
<glyph unicode="3" d="M160 35l71 221q53 -27 118 -43t145 -16q127 0 193.5 67.5t66.5 163.5q0 117 -70 172t-219 55h-148v142l248 338l117 92l-162 -19h-344v226h782v-146l-288 -387l-90 -55v-10l86 12q72 -6 136 -33t112.5 -77t77 -123.5t28.5 -170.5q0 -121 -40 -209t-110.5 -147t-165 -88 t-202.5 -29q-90 0 -186.5 16.5t-155.5 47.5z" />
<glyph unicode="4" d="M39 399v152l649 893h219v-832h226v-213h-226v-399h-248v399h-620zM285 596l131 16h243v314l19 172h-8l-70 -148l-213 -276z" />
<glyph unicode="5" d="M139 29l72 221q47 -20 103.5 -31.5t136.5 -11.5q135 0 206.5 65.5t71.5 180.5q0 123 -84 180t-239 57l-162 -6v750h704v-250h-475v-277l84 8q100 -4 181 -36.5t138.5 -91t88 -141.5t30.5 -185q0 -121 -41 -213t-113.5 -153.5t-171 -92.5t-214.5 -31q-92 0 -175 15.5 t-141 42.5z" />
<glyph unicode="6" d="M106 514q0 203 58.5 366.5t158 285.5t231.5 197t280 99l59 -211q-102 -16 -188.5 -63t-153 -112.5t-112.5 -146.5t-64 -167q41 51 106.5 87t163.5 36q92 0 170 -29t133.5 -85t86 -138.5t30.5 -188.5q0 -100 -34 -186t-95.5 -149.5t-148.5 -100.5t-191 -37 q-106 0 -195.5 34t-155 101.5t-102.5 170t-37 237.5zM360 465q0 -49 14.5 -97.5t42 -86t70.5 -61t103 -23.5q96 0 156.5 65.5t60.5 167.5q0 229 -225 229q-82 0 -138.5 -36.5t-78.5 -85.5q-4 -23 -4.5 -39.5t-0.5 -32.5z" />
<glyph unicode="7" d="M123 1184v250h924v-78l-574 -1356h-260l469 1104l90 100l-123 -20h-526z" />
<glyph unicode="8" d="M125 350q0 72 18.5 128.5t52 102.5t80 82.5t99.5 67.5q-100 63 -157.5 146.5t-57.5 205.5q0 80 29.5 150t86 121t136.5 79.5t180 28.5q92 0 168 -24.5t130 -69.5t84 -109.5t30 -142.5q0 -121 -54.5 -205t-158.5 -153q123 -72 185 -158t62 -221q0 -92 -33.5 -167t-95 -128 t-147.5 -83t-189 -30q-102 0 -185 28t-141.5 77t-90 118.5t-31.5 155.5zM367 395q0 -82 56 -140t157 -58q92 0 148 45t56 135q0 47 -22.5 86t-58 70.5t-79.5 58t-89 51.5q-96 -55 -132 -119.5t-36 -128.5zM414 1079q0 -49 18.5 -86t50 -64.5t71.5 -51t83 -43.5 q123 104 123 229q0 86 -50.5 130t-121.5 44q-90 0 -132 -47.5t-42 -110.5z" />
<glyph unicode="9" d="M92 985q0 104 32 192.5t92 151t147.5 98t199.5 35.5q231 0 363.5 -138t132.5 -402q0 -238 -60.5 -411t-162 -289t-234.5 -177t-280 -74l-58 209q113 14 201 55t151.5 101.5t103.5 137.5t56 165q-49 -53 -105.5 -73.5t-150.5 -20.5q-78 0 -154.5 26.5t-137 81t-98.5 137 t-38 195.5zM350 999q0 -117 65.5 -176t164.5 -59q84 0 137 26.5t82 65.5q6 43 6 82q0 57 -14.5 112.5t-44 98.5t-75.5 68.5t-110 25.5q-100 0 -155.5 -64.5t-55.5 -179.5z" />
<glyph unicode=":" horiz-adv-x="550" d="M190 135q0 72 45 114t119 42q78 0 123 -42t45 -114t-45 -115t-123 -43q-74 0 -119 43t-45 115zM190 876q0 72 45 114t119 42q78 0 123 -42t45 -114t-45 -115t-123 -43q-74 0 -119 43t-45 115z" />
<glyph unicode=";" horiz-adv-x="593" d="M158 -193q55 23 96 74t45 109q-47 -6 -89 28.5t-42 112.5q0 70 46 111t114 41q86 0 135 -57.5t49 -151.5q0 -92 -28.5 -159t-70.5 -111t-90 -69.5t-87 -37.5zM168 876q0 72 45 114t119 42q78 0 123 -42t45 -114t-45 -115t-123 -43q-74 0 -119 43t-45 115z" />
<glyph unicode="&#x3c;" horiz-adv-x="1079" d="M82 584v143l790 473l117 -184l-459 -285l-186 -72l184 -63l471 -281l-116 -184z" />
<glyph unicode="=" horiz-adv-x="1079" d="M88 383v229h905v-229h-905zM88 775v229h905v-229h-905z" />
<glyph unicode="&#x3e;" horiz-adv-x="1079" d="M80 1018l117 182l800 -452v-144l-790 -473l-117 186l459 283l186 74l-184 61z" />
<glyph unicode="?" horiz-adv-x="929" d="M47 1339q78 53 179.5 88t244.5 35q193 0 301.5 -93t108.5 -251q0 -104 -28 -172.5t-69 -117t-90 -85t-90 -78.5t-69.5 -97.5t-28.5 -141.5h-227q-10 106 10 181t56 129.5t82 94t86 76.5t66.5 77t26.5 95q0 72 -40 115t-142 43q-33 0 -70 -7t-73.5 -20.5t-70.5 -31 t-60 -35.5zM238 135q0 72 45 114t118 42q78 0 123 -42t45 -114t-45 -115t-123 -43q-74 0 -118.5 43t-44.5 115z" />
<glyph unicode="@" horiz-adv-x="2168" d="M150 483q0 223 79.5 403.5t215 307.5t313.5 195.5t377 68.5q188 0 350 -54t280.5 -155.5t186 -248t67.5 -332.5q0 -131 -46 -246t-127 -199t-188.5 -133t-230.5 -49q-51 0 -95 11t-73.5 38t-44 70t-8.5 106h-8q-31 -43 -66.5 -84t-78.5 -72.5t-94.5 -50t-112.5 -18.5 q-49 0 -94 21.5t-78 60.5t-52.5 94t-19.5 123q0 127 41 247t111.5 212t164 148.5t197.5 56.5q72 0 121 -21.5t90 -56.5l64 65h143l-98 -555q-16 -96 -1 -139t68 -43t104.5 24.5t92.5 76t66.5 129t25.5 184.5q0 154 -51 262t-140.5 179t-210 103.5t-260.5 32.5 q-160 0 -297 -57.5t-238 -157.5t-158.5 -238.5t-57.5 -299.5q0 -160 48 -287t140 -216t228.5 -137.5t312.5 -48.5q59 0 135 14.5t137 43.5l64 -197q-84 -41 -171 -57.5t-200 -16.5q-199 0 -367.5 57.5t-292.5 170t-193.5 279.5t-69.5 386zM852 408q0 -68 27.5 -111t95.5 -43 q29 0 61.5 17.5t63 46t59.5 65.5t51 78l52 282q-27 23 -55.5 35.5t-71.5 12.5q-61 0 -113.5 -35t-90.5 -90.5t-58.5 -124t-20.5 -133.5z" />
<glyph unicode="A" horiz-adv-x="1239" d="M0 0l516 1444h207l516 -1444h-295l-115 317h-440l-108 -317h-281zM461 543h307l-106 319l-44 225h-10l-43 -227z" />
<glyph unicode="B" horiz-adv-x="1210" d="M123 10v1413q39 6 89 12.5t107.5 10.5t118 6t119.5 2q100 0 195.5 -15.5t170 -54t119.5 -108.5t45 -176q0 -53 -13 -106.5t-44 -97.5t-80 -78t-119 -50v-12q61 -10 117 -35t96.5 -68t64.5 -104.5t24 -145.5q0 -111 -47.5 -191.5t-126 -131.5t-179 -75.5t-207.5 -24.5h-89 t-116.5 3t-127 9t-117.5 18zM393 223q10 -4 33 -6t48.5 -3t53 -2t47.5 -1q51 0 99.5 12.5t85.5 38t59.5 64.5t22.5 92q0 68 -27 106.5t-70 60t-96 27.5t-106 6h-150v-395zM393 831h90q29 0 67 2.5t62 6.5q78 25 134.5 74t56.5 128q0 53 -20.5 88t-54.5 55.5t-77 29t-90 8.5 q-53 0 -98 -2t-70 -7v-383z" />
<glyph unicode="C" horiz-adv-x="1144" d="M78 717q0 211 58.5 353t151.5 229t207.5 125t229.5 38q123 0 208 -16t140 -39l-55 -238q-47 23 -111.5 33t-156.5 10q-170 0 -273.5 -120.5t-103.5 -374.5q0 -111 24.5 -202t74.5 -155.5t125 -100.5t173 -36q92 0 155.5 18.5t110.5 47.5l58 -230q-66 -47 -167.5 -67.5 t-207.5 -20.5q-129 0 -245 40t-204 129t-140 231.5t-52 345.5z" />
<glyph unicode="D" horiz-adv-x="1325" d="M123 -2v1436q43 6 97 10t111.5 6t112 3t97.5 1q190 0 325 -53t219 -149.5t123 -229.5t39 -293q0 -145 -36.5 -280.5t-123 -240t-226.5 -168t-347 -63.5q-33 0 -87 2.5t-112.5 5.5t-111.5 6t-80 7zM403 236q8 -2 28 -3.5t42.5 -2.5t43 -2t30.5 -1q119 0 197.5 42 t124.5 112t64.5 161t18.5 187q0 84 -16 169t-60.5 152.5t-120 110.5t-192.5 43q-45 0 -91 -2t-69 -6v-960z" />
<glyph unicode="E" horiz-adv-x="1069" d="M123 0v1434h850v-250h-570v-334h519v-250h-519v-350h580v-250h-860z" />
<glyph unicode="F" horiz-adv-x="1040" d="M123 0v1434h850v-250h-570v-355h525v-249h-525v-580h-280z" />
<glyph unicode="G" horiz-adv-x="1247" d="M78 717q0 203 58.5 345t153.5 231t214 129t241 40q123 0 216.5 -18.5t148.5 -38.5l-57 -236q-51 20 -115 31.5t-162 11.5q-88 0 -161.5 -26.5t-128 -87t-84 -154.5t-29.5 -229q0 -129 28.5 -222.5t79.5 -153.5t120 -89t147 -29q53 0 104 13.5t86 39.5v271l-309 33v170 h534v-639q-86 -72 -205.5 -105t-236.5 -33q-137 0 -255 43t-204 134.5t-135 232.5t-49 336z" />
<glyph unicode="H" horiz-adv-x="1333" d="M123 0v1434h280v-584h525v584h280v-1434h-280v600h-525v-600h-280z" />
<glyph unicode="I" horiz-adv-x="583" d="M152 0v1434h280v-1434h-280z" />
<glyph unicode="J" horiz-adv-x="684" d="M-47 23l61 229q53 -27 121 -27q86 0 109.5 63.5t23.5 168.5v977h281v-1049q0 -82 -18.5 -155.5t-60.5 -130t-107.5 -90.5t-159.5 -34q-59 0 -129 12.5t-121 35.5z" />
<glyph unicode="K" horiz-adv-x="1269" d="M123 0v1434h280v-635l66 28l395 607h320l-418 -603l-111 -77l115 -80l477 -674h-346l-424 612h-74v-612h-280z" />
<glyph unicode="L" horiz-adv-x="1052" d="M123 0v1434h280v-1184h627v-250h-907z" />
<glyph unicode="M" horiz-adv-x="1638" d="M123 0v1434h256l383 -656l67 -164h9l61 168l363 652h254v-1434h-281v743l31 285h-13l-88 -229l-305 -535h-90l-321 537l-91 227h-10l41 -283v-745h-266z" />
<glyph unicode="N" horiz-adv-x="1345" d="M123 0v1444h205l542 -764l109 -219h10l-33 219v754h267v-1444h-205l-539 758l-112 225h-11l33 -225v-748h-266z" />
<glyph unicode="O" horiz-adv-x="1372" d="M78 717q0 358 157.5 551.5t450.5 193.5q154 0 268.5 -53t190.5 -151.5t112.5 -235.5t36.5 -305q0 -358 -158.5 -552t-449.5 -194q-156 0 -270.5 53.5t-189 151.5t-111.5 235.5t-37 305.5zM373 717q0 -109 18.5 -200t56 -156.5t97 -102.5t141.5 -37q150 0 231.5 117 t81.5 379q0 104 -17 194t-54 158t-96.5 105.5t-145.5 37.5q-150 0 -231.5 -119.5t-81.5 -375.5z" />
<glyph unicode="P" horiz-adv-x="1171" d="M123 0v1419q86 16 189.5 25.5t205.5 9.5q106 0 214 -17.5t194 -69.5t140 -145.5t54 -242.5q0 -135 -47 -228.5t-125 -152.5t-177 -86t-206 -27h-32.5t-47 1t-48 3.5t-34.5 4.5v-494h-280zM403 737q8 -2 24.5 -4t35 -3t36 -1h25.5q55 0 109.5 10.5t97.5 38t68.5 76.5 t25.5 129q0 68 -24.5 112t-64.5 70.5t-91 36.5t-104 10q-41 0 -78 -3t-60 -7v-465z" />
<glyph unicode="Q" horiz-adv-x="1372" d="M78 717q0 358 157.5 551.5t450.5 193.5q154 0 268.5 -53t190.5 -151.5t112.5 -235.5t36.5 -305q0 -358 -158.5 -552t-449.5 -194q-156 0 -270.5 53.5t-189 151.5t-111.5 235.5t-37 305.5zM373 717q0 -109 18.5 -200t56 -156.5t97 -102.5t141.5 -37q150 0 231.5 117 t81.5 379q0 104 -17 194t-54 158t-96.5 105.5t-145.5 37.5q-150 0 -231.5 -119.5t-81.5 -375.5zM412 -76q57 12 118 13q86 0 171 -20.5t173.5 -44.5t180.5 -44.5t194 -20.5q45 0 92.5 5.5t96.5 17.5v-244q-94 -26 -192 -26h-7q-104 0 -202.5 21.5t-190.5 46t-178 46 t-162 21.5q-49 0 -94 -12v241z" />
<glyph unicode="R" horiz-adv-x="1232" d="M123 0v1419q47 8 101.5 15.5t108.5 11.5t105 6t94 2q100 0 197.5 -18.5t174.5 -63.5t123 -124t46 -197q0 -176 -82 -287t-219 -154l100 -63l328 -547h-323l-326 561l-148 27v-588h-280zM403 778h119q117 0 186.5 53.5t69.5 176.5q0 92 -57 144t-168 52q-43 0 -85 -2 t-65 -8v-416z" />
<glyph unicode="S" horiz-adv-x="1085" d="M55 57l90 240q23 -12 59 -26.5t81 -27t95 -20.5t103 -8q125 0 191.5 42t66.5 128q0 66 -48 106.5t-120.5 74.5t-157.5 70t-158 88t-121 130t-48 199q0 104 35 181t99.5 128t152.5 75.5t196 24.5q125 0 236 -21.5t182 -62.5l-88 -235q-45 29 -135 52.5t-195 23.5 q-98 0 -150 -39t-52 -105q0 -61 48 -102t120.5 -76t157.5 -72t158 -89t121 -129t48 -191q0 -115 -38 -198t-106.5 -138t-166 -82t-213.5 -27q-154 0 -270.5 29t-172.5 57z" />
<glyph unicode="T" horiz-adv-x="1163" d="M23 1184v250h1118v-250h-418v-1184h-281v1184h-419z" />
<glyph unicode="U" horiz-adv-x="1284" d="M117 473v961h280v-906q0 -84 15.5 -142t48.5 -94t82 -51.5t114 -15.5q129 0 186.5 72t57.5 231v906h266v-926q0 -139 -36.5 -239.5t-102 -166t-160 -96.5t-206.5 -31q-545 0 -545 498z" />
<glyph unicode="V" horiz-adv-x="1232" d="M-18 1434h325l287 -842l37 -244h10l41 246l274 840h295l-532 -1444h-201z" />
<glyph unicode="W" horiz-adv-x="1765" d="M0 1434h305l191 -801l26 -254h8l29 258l250 797h184l246 -801l29 -254h8l31 258l174 797h284l-395 -1444h-188l-256 796l-35 220h-10l-35 -222l-254 -794h-199z" />
<glyph unicode="X" horiz-adv-x="1296" d="M20 0l441 729l-400 705h338l222 -414l49 -146l47 146l231 414h305l-413 -691l434 -743h-334l-252 442l-55 152l-53 -152l-254 -442h-306z" />
<glyph unicode="Y" horiz-adv-x="1212" d="M-4 1434h334l262 -539l29 -152h10l31 156l253 535h302l-469 -899v-535h-281v532z" />
<glyph unicode="Z" horiz-adv-x="1103" d="M55 0v250l607 848l106 86h-713v250h994v-250l-611 -856l-104 -78h715v-250h-994z" />
<glyph unicode="[" horiz-adv-x="663" d="M123 -471v1905h481v-226h-227v-1454h227v-225h-481z" />
<glyph unicode="\" horiz-adv-x="868" d="M-49 1368l209 88l737 -1651l-203 -92z" />
<glyph unicode="]" horiz-adv-x="663" d="M59 -246h228v1454h-228v226h482v-1905h-482v225z" />
<glyph unicode="^" horiz-adv-x="1024" d="M41 846l401 598h142l379 -598h-269l-145 250l-43 143l-51 -145l-160 -248h-254z" />
<glyph unicode="_" horiz-adv-x="909" d="M0 -240h909v-219h-909v219z" />
<glyph unicode="`" horiz-adv-x="647" d="M123 1413v62h278l123 -316h-147z" />
<glyph unicode="a" horiz-adv-x="1015" d="M47 283q0 94 42 158.5t121 104.5q78 40 188 55q78 11 170 10q36 0 75 -1q4 36 4 66q-1 65 -21 99q-30 50 -137 50q-80 0 -169 -16t-146 -43l-63 199q82 37 194.5 58t235.5 21q106 0 178 -25.5t113.5 -72.5t59 -112.5t17.5 -147.5q0 -90 -6 -181t-7 -179v-25q0 -75 5 -146 q6 -83 31 -157h-217l-43 141h-10q-41 -63 -114 -109t-188 -46q-72 0 -129 21.5t-98 61t-63.5 94t-22.5 122.5zM322 324q0 -57 34 -89t93 -32q80 0 127 35.5t69 76.5v134q-36 3 -71 3q-26 0 -50 -2q-58 -4 -103.5 -18t-72 -40.5t-26.5 -67.5z" />
<glyph unicode="b" horiz-adv-x="1097" d="M117 45v1389h266v-492h8q43 49 110.5 78t149.5 29q184 0 281.5 -126t97.5 -384q0 -276 -136 -420t-374 -144q-131 0 -239.5 21.5t-163.5 48.5zM383 229q33 -16 71 -22t81 -6q109 0 165 78.5t56 250.5q-1 293 -183 293q-74 0 -119.5 -37.5t-70.5 -109.5v-447z" />
<glyph unicode="c" horiz-adv-x="886" d="M68 512q0 260 116.5 400.5t339.5 140.5q113 0 181.5 -18.5t123.5 -47.5l-63 -217q-47 23 -93 35t-106 12q-111 0 -168 -72.5t-57 -232.5q0 -66 14.5 -121t43 -96t74.5 -64.5t108 -23.5q68 0 114.5 17.5t83.5 41.5l62 -203q-61 -45 -148.5 -68.5t-179.5 -23.5 q-123 0 -208 39t-138 109.5t-76.5 171t-23.5 221.5z" />
<glyph unicode="d" horiz-adv-x="1103" d="M68 496q0 262 118.5 407.5t348.5 145.5q63 0 104 -7.5t82 -23.5v416h266v-1074q0 -86 2 -172t19 -190h-191l-37 133h-8q-41 -72 -117.5 -116t-181.5 -44q-193 0 -299 127t-106 398zM342 487q0 -131 46.5 -210.5t146.5 -79.5q78 0 122.5 37.5t63.5 109.5v434 q-29 23 -63.5 34t-90.5 11q-113 0 -169 -75.5t-56 -260.5z" />
<glyph unicode="e" horiz-adv-x="1040" d="M68 512q0 270 129 405.5t362 135.5q78 0 151.5 -20.5t131 -67.5t92.5 -127t35 -199q0 -43 -5.5 -92t-15.5 -103h-614q6 -129 66.5 -194.5t195.5 -65.5q84 0 150.5 26t101.5 52l88 -174q-61 -49 -166.5 -83t-224.5 -34q-248 0 -362.5 144.5t-114.5 396.5zM340 610h381 q1 18 1 34q0 86 -35 136q-42 60 -132 60q-104 0 -154.5 -62.5t-60.5 -167.5z" />
<glyph unicode="f" horiz-adv-x="657" d="M23 799v225h141v57q0 195 82 282t237 87q164 0 273 -39l-51 -213q-47 16 -83 21.5t-75 5.5q-41 0 -64.5 -12.5t-35 -38t-14.5 -63.5t-3 -87h225v-225h-225v-799h-266v799h-141z" />
<glyph unicode="g" horiz-adv-x="1097" d="M68 492q0 274 131 415.5t381 141.5q131 0 234.5 -18.5t168.5 -43.5v-987q0 -223 -121 -328.5t-338 -105.5q-147 0 -232 20.5t-128 42.5l55 211q47 -18 109.5 -36.5t154.5 -18.5q139 0 189.5 60.5t50.5 168.5v66h-8q-72 -96 -254 -96q-199 0 -296 122.5t-97 385.5z M342 502q0 -150 49 -227.5t141 -77.5q78 0 120 34.5t65 104.5v461q-61 26 -151 26h-7q-102 0 -159.5 -76.5t-57.5 -244.5z" />
<glyph unicode="h" horiz-adv-x="1116" d="M117 0v1434h266v-525h8q49 66 121 105t182 39q78 0 137.5 -20.5t99.5 -67.5t59.5 -128t19.5 -200v-637h-267v582q0 125 -34.5 180t-126.5 55q-68 0 -124.5 -46t-74.5 -118v-653h-266z" />
<glyph unicode="i" horiz-adv-x="550" d="M100 1313q0 59 44 101t122 42t126 -42t48 -101t-48 -99t-126 -40t-122 40t-44 99zM139 0v1024h267v-1024h-267z" />
<glyph unicode="j" horiz-adv-x="548" d="M-33 -188q8 0 14.5 -1t12.5 -1q92 0 119.5 59t27.5 164v991h267v-1067q0 -186 -74 -284.5t-236 -98.5q-61 0 -131 14v224zM105 1313q0 59 44 101t122 42t126 -42t48 -101t-48 -99t-126 -40t-122 40t-44 99z" />
<glyph unicode="k" horiz-adv-x="1005" d="M117 0v1434h266v-846l61 28l234 408h293l-246 -389l-104 -78l112 -80l277 -477h-305l-250 424h-72v-424h-266z" />
<glyph unicode="l" horiz-adv-x="602" d="M125 205v1229h266v-1090q0 -72 18.5 -104.5t59.5 -32.5q25 0 48.5 4t57.5 18l29 -209q-33 -16 -100.5 -32.5t-138.5 -16.5q-117 0 -178.5 54.5t-61.5 179.5z" />
<glyph unicode="m" horiz-adv-x="1648" d="M117 0v1024h207l30 -135h8q47 66 120 115t188 49q98 0 160.5 -40t97.5 -134q47 80 120.5 127t178.5 47q86 0 146.5 -20.5t98 -71t56 -134.5t18.5 -213v-614h-266v575q0 121 -25.5 181.5t-113.5 60.5q-72 0 -114 -39t-62 -106v-672h-267v557q0 141 -26.5 200.5 t-110.5 59.5q-70 0 -112.5 -38t-65.5 -97v-682h-266z" />
<glyph unicode="n" horiz-adv-x="1116" d="M117 0v1024h211l30 -135h9q47 66 124.5 115t200.5 49q76 0 135.5 -20.5t100.5 -67.5t61.5 -128t20.5 -200v-637h-267v582q0 125 -35.5 180t-121.5 55q-76 0 -128 -44t-75 -109v-664h-266z" />
<glyph unicode="o" horiz-adv-x="1099" d="M68 512q0 260 127 400.5t356 140.5q123 0 213 -39t149.5 -109.5t89 -171t29.5 -221.5q0 -260 -126 -400.5t-355 -140.5q-123 0 -213 39t-150.5 109.5t-90 171t-29.5 221.5zM342 512q0 -68 12.5 -125t37 -100t64.5 -66.5t95 -23.5q104 0 155.5 75.5t51.5 239.5 q0 141 -47 228t-160 87q-98 0 -153.5 -73.5t-55.5 -241.5z" />
<glyph unicode="p" horiz-adv-x="1105" d="M117 -410v1434h194l31 -123h8q53 78 126 115t177 37q193 0 289 -122t96 -392q0 -131 -30.5 -236.5t-91 -179.5t-147.5 -113t-200 -39q-63 0 -104 9.5t-82 29.5v-420h-266zM383 246q29 -23 62.5 -36t89.5 -13q115 0 172 80.5t57 267.5q0 135 -45.5 208.5t-145.5 73.5 q-78 0 -121.5 -38.5t-68.5 -116.5v-426z" />
<glyph unicode="q" horiz-adv-x="1097" d="M68 492q0 274 138 415.5t396 141.5q55 0 110.5 -5.5t105.5 -14.5t93 -20.5t72 -21.5v-1397h-266v498h-8q-35 -53 -94.5 -85t-153.5 -32q-190 0 -291.5 129t-101.5 392zM342 502q0 -150 49 -227.5t141 -77.5q78 0 120 34.5t65 104.5v461q-31 16 -70 21t-88 5 q-109 0 -163 -82t-54 -239z" />
<glyph unicode="r" horiz-adv-x="718" d="M117 0v1024h207l30 -135h8q35 76 94.5 117t139.5 41q53 0 121 -23l-35 -250q-63 23 -115 23q-72 0 -120 -38t-64 -97v-662h-266z" />
<glyph unicode="s" horiz-adv-x="864" d="M51 63l74 199q47 -27 125 -52.5t160 -25.5q59 0 95 23t36 76q0 41 -35 65.5t-86 45t-112.5 42t-113 59t-86 96t-34.5 150.5q0 152 90 232t260 80q117 0 211 -24.5t147 -55.5l-59 -193q-47 18 -119 39t-145 21q-119 0 -119 -92q0 -37 35 -59.5t86 -42t112.5 -42 t112.5 -58.5t86 -93.5t35 -147.5q0 -156 -99.5 -245t-297.5 -89q-109 0 -204 28t-155 64z" />
<glyph unicode="t" horiz-adv-x="714" d="M10 799v225h142v193l266 75v-268h250v-225h-250v-393q0 -106 21.5 -152.5t80.5 -46.5q41 0 71 8t66 25l48 -205q-55 -27 -129 -45.5t-150 -18.5q-141 0 -207.5 73t-66.5 239v516h-142z" />
<glyph unicode="u" horiz-adv-x="1101" d="M106 387v637h267v-582q0 -125 29.5 -180t115.5 -55q76 0 126 45t75 110v662h266v-713q0 -84 8 -164.5t25 -146.5h-201l-47 152h-8q-47 -78 -131 -129.5t-199 -51.5q-78 0 -139.5 20.5t-102 67.5t-62.5 127t-22 201z" />
<glyph unicode="v" horiz-adv-x="976" d="M-29 1024h310l190 -537l35 -157h10l29 162l174 532h287l-428 -1034h-162z" />
<glyph unicode="w" horiz-adv-x="1476" d="M-16 1024h288l150 -514l24 -182h11l35 184l170 512h196l186 -524l37 -170h9l28 172l131 522h244l-315 -1034h-197l-207 573l-26 129h-11l-24 -131l-197 -571h-203z" />
<glyph unicode="x" horiz-adv-x="1075" d="M16 0l332 524l-307 500h317l134 -219l57 -143l61 143l140 219h288l-309 -492l330 -532h-309l-158 246l-62 151l-65 -151l-158 -246h-291z" />
<glyph unicode="y" horiz-adv-x="978" d="M-18 1024h319l188 -575l37 -160h13l26 162l156 573h274l-311 -924q-39 -115 -75 -210t-79 -164.5t-95 -107.5t-124 -38q-106 0 -170 35l49 213q31 -12 62 -12q47 0 91 40t67 144z" />
<glyph unicode="z" horiz-adv-x="937" d="M63 0v225l404 486l104 88h-508v225h803v-225l-399 -494l-102 -80h501v-225h-803z" />
<glyph unicode="{" horiz-adv-x="759" d="M88 379v205q78 0 121 42t43 132v428q0 111 52 180.5t167 69.5h246v-226h-103q-55 0 -80.5 -28.5t-25.5 -94.5v-399q0 -90 -43 -136t-100 -56v-21q55 -8 99 -61.5t44 -139.5v-397q0 -66 24.5 -94.5t83.5 -28.5h101v-225h-246q-106 0 -162.5 64.5t-56.5 183.5v420 q0 104 -43 143t-121 39z" />
<glyph unicode="|" horiz-adv-x="464" d="M123 -266v1700h219v-1700h-219z" />
<glyph unicode="}" horiz-adv-x="759" d="M72 -246h102q55 0 81 28t26 95v399q0 90 43 136.5t100 56.5v20q-55 8 -99 61.5t-44 139.5v397q0 63 -25 93t-84 30h-100v226h243q109 0 164.5 -64.5t55.5 -183.5v-420q0 -104 43 -143t120 -39v-205q-78 0 -120.5 -42t-42.5 -132v-428q0 -111 -54.5 -180.5t-169.5 -69.5 h-239v225z" />
<glyph unicode="~" horiz-adv-x="1079" d="M57 774q96 78 173 107.5t143 29.5q59 0 110.5 -17t98.5 -36.5t93 -37t93 -17.5q37 0 76 12t82 47l96 -211q-74 -55 -135.5 -77.5t-114.5 -22.5q-57 0 -106.5 18.5t-95.5 41t-93 41t-100 18.5q-49 0 -105.5 -21.5t-124.5 -79.5z" />
<glyph unicode="&#xa1;" horiz-adv-x="600" d="M90 891q0 72 45 114t119 42q78 0 123 -42t45 -114t-45 -115t-123 -43q-74 0 -119 43t-45 115zM117 264l53 332h168l53 -332v-674h-274v674z" />
<glyph unicode="&#xa2;" d="M172 512q0 229 98.5 365.5t284.5 166.5v185h248v-185q57 -8 102 -21t82 -32l-61 -217q-31 14 -66 22.5t-72 12.5v-596q47 6 85 20.5t67 30.5l61 -201q-35 -27 -87 -46t-111 -29v-193h-248v182q-104 14 -177 58.5t-119 113t-66.5 160.5t-20.5 203zM434 512q0 -104 39 -183 t131 -108v586q-86 -23 -128 -93.5t-42 -201.5z" />
<glyph unicode="&#xa3;" d="M104 0v236h5q63 2 111 22.5t80 54t48.5 78.5t16.5 94q0 55 -13 103h-248v219h140q-27 49 -46.5 110.5t-19.5 147.5q0 100 34 175t94.5 124t144.5 73.5t184 24.5q125 0 227.5 -23.5t175.5 -58.5l-86 -237q-41 23 -112.5 46t-171.5 23q-98 0 -153.5 -46t-55.5 -138 q0 -70 25.5 -120t56.5 -101h288v-219h-200q6 -35 6 -70q0 -61 -20.5 -128.5t-63.5 -110.5l-88 -64v-10l137 31h471v-236h-967z" />
<glyph unicode="&#xa4;" d="M10 307l158 160l74 35q-25 43 -39.5 93t-14.5 112q0 59 15.5 110t42.5 98l-78 35l-158 160l156 164l160 -158l39 -76q41 31 97 46.5t118 15.5q59 0 117.5 -15.5t97.5 -44.5l41 74l159 158l158 -164l-158 -160l-75 -32q29 -43 41 -97.5t12 -113.5q0 -61 -13.5 -115.5 t-39.5 -91.5l75 -33l158 -160l-158 -164l-159 158l-37 76q-39 -29 -99.5 -45.5t-119.5 -16.5q-61 0 -117.5 15.5t-97.5 44.5l-39 -74l-160 -158zM412 709q0 -78 47 -127.5t123 -49.5t122 49.5t46 127.5q0 74 -46.5 125t-121.5 51q-76 0 -123 -51t-47 -125z" />
<glyph unicode="&#xa5;" d="M-29 1434h334l262 -539l29 -152h10l31 156l254 535h301l-389 -744h186v-164h-266v-118h266v-164h-266v-244h-281v244h-268v164h268v118h-268v164h184z" />
<glyph unicode="&#xa6;" horiz-adv-x="464" d="M123 -266v702h219v-702h-219zM123 731v703h219v-703h-219z" />
<glyph unicode="&#xa7;" horiz-adv-x="1085" d="M100 723q0 63 31 123.5t84 107.5l84 29q-53 33 -88 83t-35 134q0 115 89 188.5t270 73.5q121 0 225 -20.5t160 -46.5l-66 -215q-47 23 -125 40t-149 17q-76 0 -107 -22.5t-31 -57.5q0 -37 40 -57.5t100.5 -36.5t131 -36.5t131 -57.5t100.5 -98.5t40 -159.5 q0 -63 -29.5 -123t-83.5 -107l-92 -28q55 -33 92 -84.5t37 -135.5q0 -129 -100 -195.5t-266 -66.5q-139 0 -232.5 28t-152.5 60l69 205q47 -23 115 -45t158 -22q76 0 109.5 19.5t33.5 62.5q0 39 -40 60t-100.5 38.5t-131 38t-131 56.5t-100.5 95.5t-40 155.5zM367 727 q0 -72 65.5 -106.5t179.5 -67.5q45 25 76 66t31 88q0 37 -17.5 61.5t-50.5 43.5t-80 35.5t-106 35.5q-41 -25 -69.5 -65t-28.5 -91z" />
<glyph unicode="&#xa8;" horiz-adv-x="980" d="M123 1333q0 66 40 105t105 39q66 0 104 -39t38 -105q0 -61 -38 -100t-104 -39t-105.5 39t-39.5 100zM571 1333q0 66 38 105t104 39t105.5 -39t39.5 -105q0 -61 -40 -100t-105 -39q-66 0 -104 39t-38 100z" />
<glyph unicode="&#xa9;" horiz-adv-x="1705" d="M113 594q0 170 57 306t156.5 232.5t234.5 148.5t291 52t290 -52t234.5 -148.5t157.5 -232.5t57 -306t-57 -306t-157.5 -232.5t-234.5 -148.5t-290 -52q-170 0 -307 52t-233.5 148.5t-147.5 232.5t-51 306zM313 594q0 -127 40 -229.5t113 -173t171 -108.5t215 -38t216 38 t172 108.5t113 173t40 229.5t-40 229.5t-113 173t-172 108.5t-216 38t-215 -38t-171 -108.5t-113 -173t-40 -229.5zM508 594q0 186 93 287.5t247 101.5q76 0 134 -17.5t112 -47.5l-66 -179q-37 18 -66.5 24.5t-58.5 6.5q-59 0 -94 -39t-35 -137q0 -176 144 -176q39 0 69.5 7 t61.5 24l59 -181q-45 -29 -113.5 -46t-146.5 -17q-166 0 -253 104.5t-87 284.5z" />
<glyph unicode="&#xaa;" horiz-adv-x="860" d="M86 973q0 68 36 112.5t96.5 71.5t141 36t170.5 5q4 53 -14 76.5t-90 23.5q-82 0 -148.5 -16t-107.5 -33l-45 131q53 29 150.5 49.5t218.5 20.5q156 0 213 -56.5t57 -172.5q0 -123 -6 -238t16 -205h-207l-26 94h-9q-27 -35 -75.5 -68.5t-137.5 -33.5q-106 0 -169.5 56.5 t-63.5 146.5zM322 999q0 -33 21 -51t54 -18q66 0 92.5 23.5t40.5 47.5v72q-88 10 -148 -4t-60 -70z" />
<glyph unicode="&#xab;" horiz-adv-x="999" d="M59 530l328 471l162 -127l-178 -258l-99 -84l99 -73l190 -254l-162 -127zM457 535l315 442l146 -115l-166 -250l-95 -80l95 -71l178 -248l-146 -115z" />
<glyph unicode="&#xac;" horiz-adv-x="1079" d="M92 614v230h905v-463h-245v233h-660z" />
<glyph unicode="&#xad;" horiz-adv-x="737" d="M111 471v236h514v-236h-514z" />
<glyph unicode="&#xae;" horiz-adv-x="1413" d="M127 924q0 137 46 244.5t126 181t185.5 112.5t222.5 39q121 0 226 -39t183 -112.5t123 -181t45 -244.5q0 -139 -46 -247t-125 -181.5t-184.5 -111.5t-221.5 -38q-121 0 -226.5 38t-184.5 111.5t-124 181.5t-45 247zM319 924q0 -98 32 -173t85 -124t123 -74t148 -25 q82 0 152.5 23.5t121.5 73t81 124t30 175.5q0 98 -31 171.5t-83 123t-123 74t-148 24.5q-86 0 -158 -26.5t-123 -78t-79 -124t-28 -164.5zM496 659v531q33 10 92 15t112 5q86 0 147.5 -35.5t61.5 -123.5q0 -66 -42 -101t-103 -39l57 -28l133 -224h-125l-129 213l-98 31v-244 h-106zM602 965h70q59 0 92 18t33 64q0 71 -119 71q-23 0 -43.5 -1t-32.5 -7v-145z" />
<glyph unicode="&#xaf;" horiz-adv-x="907" d="M123 1159v189h661v-189h-661z" />
<glyph unicode="&#xb0;" horiz-adv-x="894" d="M123 1122q0 76 26.5 138.5t72.5 107.5t106.5 69.5t130.5 24.5t132 -22.5t109.5 -66.5t74 -107.5t26.5 -143.5t-26.5 -142t-74 -105.5t-110 -66t-131.5 -22.5q-70 0 -130.5 22.5t-106.5 66t-72.5 105.5t-26.5 142zM328 1122q0 -66 39 -103.5t94 -37.5t96 38t41 103 q0 66 -41 106t-96 40t-94 -40t-39 -106z" />
<glyph unicode="&#xb1;" horiz-adv-x="1079" d="M88 289v229h905v-229h-905zM88 831v230h332v336h239v-336h334v-230h-334v-219h-239v219h-332z" />
<glyph unicode="&#xb2;" horiz-adv-x="843" d="M102 1571q72 43 153 62.5t155 19.5q145 0 224 -66.5t79 -193.5q0 -121 -61.5 -207t-147.5 -164l-96 -51v-8l120 22h217v-207h-641v146q53 37 119 86t122 105t94 115.5t38 112.5q0 100 -115 101q-55 0 -104 -17.5t-86 -40.5z" />
<glyph unicode="&#xb3;" horiz-adv-x="843" d="M115 813l47 184q84 -39 184 -39q90 0 128 29t40 76q-2 47 -41 73.5t-143 26.5h-86v78l149 164l88 51l-119 -12h-235v194h580v-127l-179 -188l-69 -37v-10l61 6q106 -4 167 -64.5t63 -171.5q-2 -74 -32 -127t-80 -87.5t-117.5 -51t-139.5 -16.5q-80 0 -148.5 13t-117.5 36 z" />
<glyph unicode="&#xb4;" horiz-adv-x="624" d="M123 1159l108 316h271v-62l-228 -254h-151z" />
<glyph unicode="&#xb6;" horiz-adv-x="1083" d="M53 1020q0 82 26.5 156.5t76 132t119 91.5t155.5 34h152v-1700h-217v868q-68 0 -125.5 34t-99.5 92t-64.5 133t-22.5 159zM741 -266v1700h220v-1700h-220z" />
<glyph unicode="&#xb7;" horiz-adv-x="518" d="M92 647q0 72 45 114t119 42q78 0 123 -42t45 -114t-45 -115t-123 -43q-74 0 -119 43t-45 115z" />
<glyph unicode="&#xb8;" horiz-adv-x="679" d="M123 -418l18 99q14 -2 26.5 -2.5t22.5 -0.5q78 0 100.5 18.5t22.5 43.5q0 57 -176 65l117 195h172l-49 -88q84 -8 132 -44t48 -110q0 -47 -23.5 -81.5t-64.5 -58.5t-96.5 -36t-118.5 -12t-131 12z" />
<glyph unicode="&#xb9;" horiz-adv-x="843" d="M84 1425l324 228h174v-670h180v-205h-615v205h199v336l21 94l-62 -65l-121 -80z" />
<glyph unicode="&#xba;" horiz-adv-x="858" d="M70 1110q0 92 26.5 157.5t73.5 108.5t113.5 62.5t144.5 19.5t143.5 -18.5t113.5 -59.5t74.5 -107.5t28.5 -162.5q-2 -96 -28.5 -162.5t-74.5 -107.5t-113.5 -59.5t-143.5 -18.5t-144.5 18.5t-113.5 59.5t-73.5 107.5t-26.5 162.5zM307 1110q0 -176 121 -176q63 0 91 38 t30 138q-2 98 -29.5 137t-91.5 39q-63 0 -92 -39t-29 -137z" />
<glyph unicode="&#xbb;" horiz-adv-x="999" d="M70 866l143 115l328 -436l-314 -443l-147 115l168 250l92 80l-92 71zM438 874l162 127l340 -452l-328 -471l-161 127l178 258l98 84l-98 74z" />
<glyph unicode="&#xbc;" horiz-adv-x="1802" d="M76 1221l324 227h174v-875h-236v541l23 94l-64 -65l-121 -80zM364 80l883 1384l174 -102l-881 -1391zM920 160v137l446 580h185v-535h155v-182h-155v-160h-207v160h-424zM1129 326l106 16h109v176l12 109h-10l-45 -100l-99 -136z" />
<glyph unicode="&#xbd;" horiz-adv-x="1849" d="M76 1221l324 227h174v-875h-236v541l23 94l-64 -65l-121 -80zM364 80l883 1384l174 -102l-881 -1391zM1112 793q72 43 153 62.5t155 19.5q145 0 224 -66.5t79 -193.5q0 -121 -61.5 -207t-147.5 -164l-96 -51v-8l120 22h217v-207h-641v146q53 37 119 86t122 105t94 115.5 t38 112.5q0 100 -115 101q-55 0 -104 -17.5t-86 -40.5z" />
<glyph unicode="&#xbe;" horiz-adv-x="1853" d="M99 608l47 184q84 -39 184 -39q90 0 128 29t40 76q-2 47 -41 73.5t-143 26.5h-86v78l149 164l88 51l-119 -12h-235v194h580v-127l-179 -188l-69 -37v-10l61 6q106 -4 167 -64.5t63 -171.5q-2 -74 -32 -127t-80 -87.5t-117.5 -51t-139.5 -16.5q-80 0 -148.5 13t-117.5 36z M416 80l883 1384l174 -102l-881 -1391zM971 160v137l446 580h185v-535h155v-182h-155v-160h-207v160h-424zM1180 326l106 16h109v176l12 109h-10l-45 -100l-99 -136z" />
<glyph unicode="&#xbf;" horiz-adv-x="929" d="M47 -90q0 104 27.5 172t69.5 116t90.5 84.5t90.5 78.5t69.5 97.5t27.5 141.5h227q10 -106 -9 -181t-56 -129t-82 -93t-85 -76t-67.5 -77t-27.5 -95q0 -72 40.5 -116t143.5 -44q33 0 69.5 7t73.5 20.5t71 31t60 37.5l101 -196q-78 -53 -178.5 -88t-243.5 -35 q-193 0 -302.5 92t-109.5 252zM365 891q0 72 45 114t118 42q78 0 123 -42t45 -114t-45 -115t-123 -43q-74 0 -118.5 43t-44.5 115z" />
<glyph unicode="&#xc0;" horiz-adv-x="1239" d="M0 0l516 1444h207l516 -1444h-295l-115 317h-440l-108 -317h-281zM279 1720v62h326l213 -242h-216zM461 543h307l-106 319l-44 225h-10l-43 -227z" />
<glyph unicode="&#xc1;" horiz-adv-x="1239" d="M0 0l516 1444h207l516 -1444h-295l-115 317h-440l-108 -317h-281zM420 1540l213 242h326v-62l-328 -180h-211zM461 543h307l-106 319l-44 225h-10l-43 -227z" />
<glyph unicode="&#xc2;" horiz-adv-x="1239" d="M0 0l516 1444h207l516 -1444h-295l-115 317h-440l-108 -317h-281zM254 1511v82l272 189h197l260 -191v-80h-203l-117 84l-40 70l-43 -68l-127 -86h-199zM461 543h307l-106 319l-44 225h-10l-43 -227z" />
<glyph unicode="&#xc3;" horiz-adv-x="1239" d="M0 0l516 1444h207l516 -1444h-295l-115 317h-440l-108 -317h-281zM232 1638q66 72 126 98.5t120 26.5q45 0 90 -11t87 -24.5t83 -24.5t78 -11q33 0 63.5 10t58.5 39l52 -137q-57 -53 -111.5 -75t-105.5 -22q-47 0 -90.5 11.5t-85.5 26t-82.5 25.5t-79.5 11t-77 -15.5 t-77 -56.5zM461 543h307l-106 319l-44 225h-10l-43 -227z" />
<glyph unicode="&#xc4;" horiz-adv-x="1239" d="M0 0l516 1444h207l516 -1444h-295l-115 317h-440l-108 -317h-281zM254 1634q0 53 37 86t119 33q80 0 116.5 -32.5t36.5 -86.5q0 -53 -37 -84.5t-116 -31.5q-82 0 -119 31.5t-37 84.5zM461 543h307l-106 319l-44 225h-10l-43 -227zM692 1634q0 53 37 86t117 33 q82 0 118.5 -32.5t36.5 -86.5q0 -53 -36.5 -84.5t-118.5 -31.5q-80 0 -117 31.5t-37 84.5z" />
<glyph unicode="&#xc5;" horiz-adv-x="1239" d="M0 0l504 1411q-80 18 -113 63.5t-33 104.5q0 37 12.5 70.5t42 59.5t80 40t128.5 14q143 0 202.5 -49t59.5 -135q0 -59 -33 -103t-117 -65l506 -1411h-295l-115 317h-440l-108 -317h-281zM461 543h307l-106 319l-44 225h-10l-43 -227zM530 1579q0 -63 91 -63q51 0 71.5 16 t20.5 47q0 35 -21.5 51.5t-70.5 16.5q-91 0 -91 -68z" />
<glyph unicode="&#xc6;" horiz-adv-x="1765" d="M-59 0l868 1434h858v-250h-567v-334h516v-250h-516v-350h577v-250h-858v348h-381l-202 -348h-295zM561 575h258v515h-12l-74 -211z" />
<glyph unicode="&#xc7;" horiz-adv-x="1144" d="M78 717q0 211 58.5 353t151.5 229t207.5 125t229.5 38q123 0 208 -16t140 -39l-55 -238q-47 23 -111.5 33t-156.5 10q-170 0 -273.5 -120.5t-103.5 -374.5q0 -111 24.5 -202t74.5 -155.5t125 -100.5t173 -36q92 0 155.5 18.5t110.5 47.5l58 -230q-53 -39 -134 -59 t-172 -27l-32 -61q84 -8 132 -44t48 -110q0 -47 -23.5 -81.5t-64.5 -58.5t-96.5 -36t-118.5 -12t-131 12l18 99q14 -2 26.5 -2.5t22.5 -0.5q78 0 100.5 18.5t22.5 43.5q0 57 -176 65l102 172q-113 14 -211 62.5t-171.5 138.5t-115.5 223.5t-42 315.5z" />
<glyph unicode="&#xc8;" horiz-adv-x="1069" d="M123 0v1434h850v-250h-570v-334h519v-250h-519v-350h580v-250h-860zM182 1720v62h326l213 -242h-216z" />
<glyph unicode="&#xc9;" horiz-adv-x="1069" d="M123 0v1434h850v-250h-570v-334h519v-250h-519v-350h580v-250h-860zM387 1540l213 242h326v-62l-328 -180h-211z" />
<glyph unicode="&#xca;" horiz-adv-x="1069" d="M123 0v1434h850v-250h-570v-334h519v-250h-519v-350h580v-250h-860zM176 1511v82l272 189h197l260 -191v-80h-203l-117 84l-40 70l-43 -68l-127 -86h-199z" />
<glyph unicode="&#xcb;" horiz-adv-x="1069" d="M123 0v1434h850v-250h-570v-334h519v-250h-519v-350h580v-250h-860zM172 1634q0 53 37 86t119 33q80 0 116.5 -32.5t36.5 -86.5q0 -53 -37 -84.5t-116 -31.5q-82 0 -119 31.5t-37 84.5zM610 1634q0 53 37 86t117 33q82 0 118.5 -32.5t36.5 -86.5q0 -53 -36.5 -84.5 t-118.5 -31.5q-80 0 -117 31.5t-37 84.5z" />
<glyph unicode="&#xcc;" horiz-adv-x="583" d="M-45 1720v62h326l213 -242h-216zM152 0v1434h280v-1434h-280z" />
<glyph unicode="&#xcd;" horiz-adv-x="583" d="M100 1540l213 242h326v-62l-328 -180h-211zM152 0v1434h280v-1434h-280z" />
<glyph unicode="&#xce;" horiz-adv-x="583" d="M-74 1511v82l272 189h197l260 -191v-80h-203l-117 84l-40 70l-43 -68l-127 -86h-199zM152 0v1434h280v-1434h-280z" />
<glyph unicode="&#xcf;" horiz-adv-x="583" d="M-78 1634q0 53 37 86t119 33q80 0 116.5 -32.5t36.5 -86.5q0 -53 -37 -84.5t-116 -31.5q-82 0 -119 31.5t-37 84.5zM152 0v1434h280v-1434h-280zM360 1634q0 53 37 86t117 33q82 0 118.5 -32.5t36.5 -86.5q0 -53 -36.5 -84.5t-118.5 -31.5q-80 0 -117 31.5t-37 84.5z" />
<glyph unicode="&#xd0;" horiz-adv-x="1370" d="M-12 657v164h180v613q43 6 97 10t111.5 6t112 3t97.5 1q190 0 325.5 -53t219 -149.5t122.5 -229.5t39 -293q0 -145 -36.5 -280.5t-122.5 -240t-226.5 -168t-347.5 -63.5q-33 0 -87 2.5t-112.5 5.5t-111.5 6t-80 7v659h-180zM449 233q8 -2 27.5 -3t42 -2t43 -1h30.5 q119 0 197.5 42t125 112t64.5 161t18 187q0 84 -16 169t-60 152.5t-120 110.5t-193 43q-45 0 -91 -2t-68 -6v-375h286v-164h-286v-424z" />
<glyph unicode="&#xd1;" horiz-adv-x="1345" d="M123 0v1444h205l542 -764l109 -219h10l-33 219v754h267v-1444h-205l-539 758l-112 225h-11l33 -225v-748h-266zM283 1638q66 72 126 98.5t120 26.5q45 0 90 -11t87 -24.5t83 -24.5t78 -11q33 0 63.5 10t58.5 39l52 -137q-57 -53 -111.5 -75t-105.5 -22q-47 0 -90.5 11.5 t-85.5 26t-82.5 25.5t-79.5 11t-77 -15.5t-77 -56.5z" />
<glyph unicode="&#xd2;" horiz-adv-x="1372" d="M78 717q0 358 157.5 551.5t450.5 193.5q154 0 268.5 -53t190.5 -151.5t112.5 -235.5t36.5 -305q0 -358 -158.5 -552t-449.5 -194q-156 0 -270.5 53.5t-189 151.5t-111.5 235.5t-37 305.5zM305 1720v62h326l213 -242h-216zM373 717q0 -109 18.5 -200t56 -156.5t97 -102.5 t141.5 -37q150 0 231.5 117t81.5 379q0 104 -17 194t-54 158t-96.5 105.5t-145.5 37.5q-150 0 -231.5 -119.5t-81.5 -375.5z" />
<glyph unicode="&#xd3;" horiz-adv-x="1372" d="M78 717q0 358 157.5 551.5t450.5 193.5q154 0 268.5 -53t190.5 -151.5t112.5 -235.5t36.5 -305q0 -358 -158.5 -552t-449.5 -194q-156 0 -270.5 53.5t-189 151.5t-111.5 235.5t-37 305.5zM373 717q0 -109 18.5 -200t56 -156.5t97 -102.5t141.5 -37q150 0 231.5 117 t81.5 379q0 104 -17 194t-54 158t-96.5 105.5t-145.5 37.5q-150 0 -231.5 -119.5t-81.5 -375.5zM541 1540l213 242h326v-62l-328 -180h-211z" />
<glyph unicode="&#xd4;" horiz-adv-x="1372" d="M78 717q0 358 157.5 551.5t450.5 193.5q154 0 268.5 -53t190.5 -151.5t112.5 -235.5t36.5 -305q0 -358 -158.5 -552t-449.5 -194q-156 0 -270.5 53.5t-189 151.5t-111.5 235.5t-37 305.5zM316 1511v82l272 189h197l260 -191v-80h-203l-117 84l-40 70l-43 -68l-127 -86 h-199zM373 717q0 -109 18.5 -200t56 -156.5t97 -102.5t141.5 -37q150 0 231.5 117t81.5 379q0 104 -17 194t-54 158t-96.5 105.5t-145.5 37.5q-150 0 -231.5 -119.5t-81.5 -375.5z" />
<glyph unicode="&#xd5;" horiz-adv-x="1372" d="M78 717q0 358 157.5 551.5t450.5 193.5q154 0 268.5 -53t190.5 -151.5t112.5 -235.5t36.5 -305q0 -358 -158.5 -552t-449.5 -194q-156 0 -270.5 53.5t-189 151.5t-111.5 235.5t-37 305.5zM295 1638q66 72 126 98.5t120 26.5q45 0 90 -11t87 -24.5t83 -24.5t78 -11 q33 0 63.5 10t58.5 39l52 -137q-57 -53 -111.5 -75t-105.5 -22q-47 0 -90.5 11.5t-85.5 26t-82.5 25.5t-79.5 11t-77 -15.5t-77 -56.5zM373 717q0 -109 18.5 -200t56 -156.5t97 -102.5t141.5 -37q150 0 231.5 117t81.5 379q0 104 -17 194t-54 158t-96.5 105.5t-145.5 37.5 q-150 0 -231.5 -119.5t-81.5 -375.5z" />
<glyph unicode="&#xd6;" horiz-adv-x="1372" d="M78 717q0 358 157.5 551.5t450.5 193.5q154 0 268.5 -53t190.5 -151.5t112.5 -235.5t36.5 -305q0 -358 -158.5 -552t-449.5 -194q-156 0 -270.5 53.5t-189 151.5t-111.5 235.5t-37 305.5zM307 1634q0 53 37 86t119 33q80 0 116.5 -32.5t36.5 -86.5q0 -53 -37 -84.5 t-116 -31.5q-82 0 -119 31.5t-37 84.5zM373 717q0 -109 18.5 -200t56 -156.5t97 -102.5t141.5 -37q150 0 231.5 117t81.5 379q0 104 -17 194t-54 158t-96.5 105.5t-145.5 37.5q-150 0 -231.5 -119.5t-81.5 -375.5zM745 1634q0 53 37 86t117 33q82 0 118.5 -32.5t36.5 -86.5 q0 -53 -36.5 -84.5t-118.5 -31.5q-80 0 -117 31.5t-37 84.5z" />
<glyph unicode="&#xd7;" horiz-adv-x="1079" d="M111 426l268 268l-264 260l159 166l269 -266l266 266l162 -166l-266 -260l266 -264l-162 -168l-266 268l-271 -270z" />
<glyph unicode="&#xd8;" horiz-adv-x="1372" d="M78 717q0 358 157.5 551.5t450.5 193.5q92 0 170 -20.5t141 -57.5l52 80l174 -102l-72 -115q72 -98 107.5 -232t35.5 -298q0 -358 -158.5 -552t-449.5 -194q-90 0 -163.5 17.5t-137.5 50.5l-43 -68l-176 109l61 96q-76 98 -112.5 234.5t-36.5 306.5zM373 717 q0 -74 8 -139.5t25 -120.5l448 700q-72 55 -168 55q-150 0 -231.5 -119.5t-81.5 -375.5zM530 266q68 -45 156 -45q150 0 231.5 117t81.5 379q0 68 -6 130t-22 116z" />
<glyph unicode="&#xd9;" horiz-adv-x="1284" d="M117 473v961h280v-906q0 -84 15.5 -142t48.5 -94t82 -51.5t114 -15.5q129 0 186.5 72t57.5 231v906h266v-926q0 -139 -36.5 -239.5t-102 -166t-160 -96.5t-206.5 -31q-545 0 -545 498zM270 1720v62h326l213 -242h-216z" />
<glyph unicode="&#xda;" horiz-adv-x="1284" d="M117 473v961h280v-906q0 -84 15.5 -142t48.5 -94t82 -51.5t114 -15.5q129 0 186.5 72t57.5 231v906h266v-926q0 -139 -36.5 -239.5t-102 -166t-160 -96.5t-206.5 -31q-545 0 -545 498zM535 1540l213 242h326v-62l-328 -180h-211z" />
<glyph unicode="&#xdb;" horiz-adv-x="1284" d="M117 473v961h280v-906q0 -84 15.5 -142t48.5 -94t82 -51.5t114 -15.5q129 0 186.5 72t57.5 231v906h266v-926q0 -139 -36.5 -239.5t-102 -166t-160 -96.5t-206.5 -31q-545 0 -545 498zM287 1511v82l272 189h197l260 -191v-80h-203l-117 84l-40 70l-43 -68l-127 -86h-199z " />
<glyph unicode="&#xdc;" horiz-adv-x="1284" d="M117 473v961h280v-906q0 -84 15.5 -142t48.5 -94t82 -51.5t114 -15.5q129 0 186.5 72t57.5 231v906h266v-926q0 -139 -36.5 -239.5t-102 -166t-160 -96.5t-206.5 -31q-545 0 -545 498zM273 1634q0 53 37 86t119 33q80 0 116.5 -32.5t36.5 -86.5q0 -53 -37 -84.5 t-116 -31.5q-82 0 -119 31.5t-37 84.5zM711 1634q0 53 37 86t117 33q82 0 118.5 -32.5t36.5 -86.5q0 -53 -36.5 -84.5t-118.5 -31.5q-80 0 -117 31.5t-37 84.5z" />
<glyph unicode="&#xdd;" horiz-adv-x="1212" d="M-4 1434h334l262 -539l29 -152h10l31 156l253 535h302l-469 -899v-535h-281v532zM455 1540l213 242h326v-62l-328 -180h-211z" />
<glyph unicode="&#xde;" horiz-adv-x="1171" d="M123 0v1434h280v-148q29 2 57.5 3t57.5 1q106 0 214 -17.5t194 -69.5t140 -145t54 -243q0 -135 -47 -228t-125 -152.5t-177 -86t-206 -26.5h-32.5t-47 1t-48 3t-34.5 4v-330h-280zM403 573q8 -2 24.5 -4t35 -3t36 -1h25.5q55 0 109.5 10.5t97.5 38t68.5 76.5t25.5 129 q0 68 -24.5 112t-64.5 70.5t-91 37t-104 10.5q-41 0 -78 -3.5t-60 -7.5v-465z" />
<glyph unicode="&#xdf;" horiz-adv-x="1290" d="M25 799v225h141q0 119 32.5 200t91 131t139.5 72.5t177 22.5q104 0 187.5 -23.5t141.5 -66.5t90 -103.5t32 -134.5q0 -80 -36 -129t-80 -84t-80 -65.5t-36 -75.5q0 -37 30 -59.5t76 -42t98 -41t98.5 -56t76 -89t29.5 -138.5q0 -72 -22.5 -138.5t-70.5 -118.5t-121 -83 t-171 -31q-96 0 -177 23.5t-139 58.5l72 199q47 -27 94 -47.5t127 -20.5q61 0 101.5 42t40.5 102q0 43 -30 69.5t-76 48t-98 42t-98.5 52t-76 79t-29.5 120.5q0 88 36 137.5t80 83t80 62.5t36 78q0 27 -14.5 50.5t-39 39.5t-55.5 26.5t-61 10.5q-98 0 -144.5 -48.5 t-46.5 -179.5v-999h-264v799h-141z" />
<glyph unicode="&#xe0;" horiz-adv-x="1015" d="M47 283q0 94 42 158.5t121 104.5t188.5 55t244.5 9q14 115 -16.5 165t-137.5 50q-80 0 -169 -16t-146 -43l-63 199q82 37 194.5 58t235.5 21q106 0 178 -25.5t113.5 -72.5t59 -112.5t17.5 -147.5q0 -90 -6 -181t-7 -179t5 -171t31 -157h-217l-43 141h-10 q-41 -63 -114 -109t-188 -46q-72 0 -129 21.5t-98 61t-63.5 94t-22.5 122.5zM236 1413v62h278l123 -316h-147zM322 324q0 -57 34 -89t93 -32q80 0 127 35.5t69 76.5v134q-63 6 -121.5 1.5t-103.5 -18.5t-71.5 -40.5t-26.5 -67.5z" />
<glyph unicode="&#xe1;" horiz-adv-x="1015" d="M47 283q0 94 42 158.5t121 104.5t188.5 55t244.5 9q14 115 -16.5 165t-137.5 50q-80 0 -169 -16t-146 -43l-63 199q82 37 194.5 58t235.5 21q106 0 178 -25.5t113.5 -72.5t59 -112.5t17.5 -147.5q0 -90 -6 -181t-7 -179t5 -171t31 -157h-217l-43 141h-10 q-41 -63 -114 -109t-188 -46q-72 0 -129 21.5t-98 61t-63.5 94t-22.5 122.5zM322 324q0 -57 34 -89t93 -32q80 0 127 35.5t69 76.5v134q-63 6 -121.5 1.5t-103.5 -18.5t-71.5 -40.5t-26.5 -67.5zM377 1159l108 316h271v-62l-228 -254h-151z" />
<glyph unicode="&#xe2;" horiz-adv-x="1015" d="M47 283q0 94 42 158.5t121 104.5t188.5 55t244.5 9q14 115 -16.5 165t-137.5 50q-80 0 -169 -16t-146 -43l-63 199q82 37 194.5 58t235.5 21q106 0 178 -25.5t113.5 -72.5t59 -112.5t17.5 -147.5q0 -90 -6 -181t-7 -179t5 -171t31 -157h-217l-43 141h-10 q-41 -63 -114 -109t-188 -46q-72 0 -129 21.5t-98 61t-63.5 94t-22.5 122.5zM191 1126l252 373h176l227 -373h-211l-80 136l-34 100l-35 -100l-92 -136h-203zM322 324q0 -57 34 -89t93 -32q80 0 127 35.5t69 76.5v134q-63 6 -121.5 1.5t-103.5 -18.5t-71.5 -40.5 t-26.5 -67.5z" />
<glyph unicode="&#xe3;" horiz-adv-x="1015" d="M47 283q0 94 42 158.5t121 104.5t188.5 55t244.5 9q14 115 -16.5 165t-137.5 50q-80 0 -169 -16t-146 -43l-63 199q82 37 194.5 58t235.5 21q106 0 178 -25.5t113.5 -72.5t59 -112.5t17.5 -147.5q0 -90 -6 -181t-7 -179t5 -171t31 -157h-217l-43 141h-10 q-41 -63 -114 -109t-188 -46q-72 0 -129 21.5t-98 61t-63.5 94t-22.5 122.5zM176 1348q63 76 117.5 104.5t103.5 28.5q41 0 79 -14.5t75 -31t71.5 -30.5t71.5 -14q29 0 58.5 12t62.5 43l41 -143q-59 -66 -109.5 -90.5t-97.5 -24.5q-41 0 -80 13t-76 29.5t-73.5 30 t-73.5 13.5q-31 0 -63.5 -13.5t-67.5 -46.5zM322 324q0 -57 34 -89t93 -32q80 0 127 35.5t69 76.5v134q-63 6 -121.5 1.5t-103.5 -18.5t-71.5 -40.5t-26.5 -67.5z" />
<glyph unicode="&#xe4;" horiz-adv-x="1015" d="M47 283q0 94 42 158.5t121 104.5t188.5 55t244.5 9q14 115 -16.5 165t-137.5 50q-80 0 -169 -16t-146 -43l-63 199q82 37 194.5 58t235.5 21q106 0 178 -25.5t113.5 -72.5t59 -112.5t17.5 -147.5q0 -90 -6 -181t-7 -179t5 -171t31 -157h-217l-43 141h-10 q-41 -63 -114 -109t-188 -46q-72 0 -129 21.5t-98 61t-63.5 94t-22.5 122.5zM154 1333q0 66 40 105t105 39q66 0 104 -39t38 -105q0 -61 -38 -100t-104 -39t-105.5 39t-39.5 100zM322 324q0 -57 34 -89t93 -32q80 0 127 35.5t69 76.5v134q-63 6 -121.5 1.5t-103.5 -18.5 t-71.5 -40.5t-26.5 -67.5zM602 1333q0 66 38 105t104 39t105.5 -39t39.5 -105q0 -61 -40 -100t-105 -39q-66 0 -104 39t-38 100z" />
<glyph unicode="&#xe5;" horiz-adv-x="1015" d="M47 283q0 94 42 158.5t121 104.5t188.5 55t244.5 9q14 115 -16.5 165t-137.5 50q-80 0 -169 -16t-146 -43l-63 199q82 37 194.5 58t235.5 21q106 0 178 -25.5t113.5 -72.5t59 -112.5t17.5 -147.5q0 -90 -6 -181t-7 -179t5 -171t31 -157h-217l-43 141h-10 q-41 -63 -114 -109t-188 -46q-72 0 -129 21.5t-98 61t-63.5 94t-22.5 122.5zM295 1325q0 86 58.5 141.5t168.5 55.5q104 0 166 -50.5t62 -146.5q0 -80 -60.5 -136t-167.5 -56q-109 0 -168 52t-59 140zM322 324q0 -57 34 -89t93 -32q80 0 127 35.5t69 76.5v134 q-63 6 -121.5 1.5t-103.5 -18.5t-71.5 -40.5t-26.5 -67.5zM442 1325q0 -33 24.5 -50.5t55.5 -17.5q35 0 57.5 16.5t22.5 51.5t-23.5 52.5t-56.5 17.5q-31 0 -55.5 -16.5t-24.5 -53.5z" />
<glyph unicode="&#xe6;" horiz-adv-x="1607" d="M47 283q0 94 42 158.5t120 104.5t187.5 55t244.5 9q14 115 -15.5 165t-136.5 50q-80 0 -162.5 -21.5t-146.5 -51.5l-69 192q78 41 192.5 70.5t237.5 29.5q106 0 169.5 -27.5t104.5 -82.5q51 57 133 88t178 31q78 0 152 -20.5t131 -67.5t92 -127t35 -199q0 -43 -5 -91 t-15 -104h-617q8 -129 68.5 -194.5t195.5 -65.5q84 0 150.5 26t101.5 52l88 -174q-61 -49 -166.5 -83t-224.5 -34q-131 0 -230.5 48.5t-154.5 136.5h-10q-55 -70 -136 -121t-221 -51q-72 0 -129 21.5t-98 61t-63.5 94t-22.5 122.5zM322 324q0 -57 34 -89t93 -32 q80 0 127 35.5t69 76.5v134q-63 6 -121.5 1.5t-103.5 -18.5t-71.5 -40.5t-26.5 -67.5zM907 610h383q6 111 -35 170.5t-133 59.5q-104 0 -154 -62.5t-61 -167.5z" />
<glyph unicode="&#xe7;" horiz-adv-x="886" d="M68 512q0 260 116.5 400.5t339.5 140.5q113 0 181.5 -18.5t123.5 -47.5l-63 -217q-47 23 -93 35t-106 12q-111 0 -168 -72.5t-57 -232.5q0 -66 14.5 -121t43 -96t74.5 -64.5t108 -23.5q68 0 114.5 17.5t83.5 41.5l62 -203q-47 -35 -107.5 -55t-128.5 -31l-37 -65 q84 -8 132.5 -44t48.5 -110q0 -47 -24 -81.5t-64.5 -58.5t-96 -36t-119.5 -12q-63 0 -131 12l19 99q14 -2 26.5 -2.5t22.5 -0.5q78 0 100.5 18.5t22.5 43.5q0 57 -176 65l102 172q-100 12 -169.5 56.5t-113 113t-62.5 161.5t-19 204z" />
<glyph unicode="&#xe8;" horiz-adv-x="1040" d="M68 512q0 270 129 405.5t362 135.5q78 0 151.5 -20.5t131 -67.5t92.5 -127t35 -199q0 -43 -5.5 -92t-15.5 -103h-614q6 -129 66.5 -194.5t195.5 -65.5q84 0 150.5 26t101.5 52l88 -174q-61 -49 -166.5 -83t-224.5 -34q-248 0 -362.5 144.5t-114.5 396.5zM273 1413v62h278 l123 -316h-147zM340 610h381q8 111 -34 170.5t-132 59.5q-104 0 -154.5 -62.5t-60.5 -167.5z" />
<glyph unicode="&#xe9;" horiz-adv-x="1040" d="M68 512q0 270 129 405.5t362 135.5q78 0 151.5 -20.5t131 -67.5t92.5 -127t35 -199q0 -43 -5.5 -92t-15.5 -103h-614q6 -129 66.5 -194.5t195.5 -65.5q84 0 150.5 26t101.5 52l88 -174q-61 -49 -166.5 -83t-224.5 -34q-248 0 -362.5 144.5t-114.5 396.5zM340 610h381 q8 111 -34 170.5t-132 59.5q-104 0 -154.5 -62.5t-60.5 -167.5zM453 1159l108 316h271v-62l-228 -254h-151z" />
<glyph unicode="&#xea;" horiz-adv-x="1040" d="M68 512q0 270 129 405.5t362 135.5q78 0 151.5 -20.5t131 -67.5t92.5 -127t35 -199q0 -43 -5.5 -92t-15.5 -103h-614q6 -129 66.5 -194.5t195.5 -65.5q84 0 150.5 26t101.5 52l88 -174q-61 -49 -166.5 -83t-224.5 -34q-248 0 -362.5 144.5t-114.5 396.5zM201 1126 l252 373h176l227 -373h-211l-80 136l-34 100l-35 -100l-92 -136h-203zM340 610h381q8 111 -34 170.5t-132 59.5q-104 0 -154.5 -62.5t-60.5 -167.5z" />
<glyph unicode="&#xeb;" horiz-adv-x="1040" d="M68 512q0 270 129 405.5t362 135.5q78 0 151.5 -20.5t131 -67.5t92.5 -127t35 -199q0 -43 -5.5 -92t-15.5 -103h-614q6 -129 66.5 -194.5t195.5 -65.5q84 0 150.5 26t101.5 52l88 -174q-61 -49 -166.5 -83t-224.5 -34q-248 0 -362.5 144.5t-114.5 396.5zM168 1333 q0 66 40 105t105 39q66 0 104 -39t38 -105q0 -61 -38 -100t-104 -39t-105.5 39t-39.5 100zM340 610h381q8 111 -34 170.5t-132 59.5q-104 0 -154.5 -62.5t-60.5 -167.5zM616 1333q0 66 38 105t104 39t105.5 -39t39.5 -105q0 -61 -40 -100t-105 -39q-66 0 -104 39t-38 100z " />
<glyph unicode="&#xec;" horiz-adv-x="550" d="M-4 1413v62h278l123 -316h-147zM143 0v1024h267v-1024h-267z" />
<glyph unicode="&#xed;" horiz-adv-x="550" d="M143 0v1024h267v-1024h-267zM146 1159l108 316h271v-62l-228 -254h-151z" />
<glyph unicode="&#xee;" horiz-adv-x="550" d="M-61 1126l252 373h176l227 -373h-211l-80 136l-34 100l-35 -100l-92 -136h-203zM143 0v1024h267v-1024h-267z" />
<glyph unicode="&#xef;" horiz-adv-x="550" d="M-92 1333q0 66 40 105t105 39q66 0 104 -39t38 -105q0 -61 -38 -100t-104 -39t-105.5 39t-39.5 100zM143 0v1024h267v-1024h-267zM356 1333q0 66 38 105t104 39t105.5 -39t39.5 -105q0 -61 -40 -100t-105 -39q-66 0 -104 39t-38 100z" />
<glyph unicode="&#xf0;" horiz-adv-x="1153" d="M76 502q0 111 34.5 205t97 164.5t150.5 110.5t193 40q78 0 144.5 -21.5t107.5 -62.5q-25 74 -70 135q-45 59 -102 105l-139 -95l-89 113l91 61q-70 31 -142 43l107 164q51 -14 116 -41q47 -18 97 -45l108 74l86 -113l-67 -47q25 -18 47 -41q66 -61 117 -150t82.5 -208 t31.5 -275q0 -166 -38 -287.5t-105.5 -201.5t-161.5 -119t-207 -39q-121 0 -213 39t-153.5 109.5t-92 168t-30.5 214.5zM334 498q0 -147 67.5 -223t180.5 -76q106 0 173.5 91t67.5 283q0 27 -3 70t-11 68q-33 47 -98.5 66.5t-126.5 19.5q-123 0 -186.5 -85t-63.5 -214z" />
<glyph unicode="&#xf1;" horiz-adv-x="1116" d="M117 0v1024h211l30 -135h9q47 66 124.5 115t200.5 49q76 0 135.5 -20.5t100.5 -67.5t61.5 -128t20.5 -200v-637h-267v582q0 125 -35.5 180t-121.5 55q-76 0 -128 -44t-75 -109v-664h-266zM219 1348q63 76 117.5 104.5t103.5 28.5q41 0 79 -14.5t75 -31t71.5 -30.5 t71.5 -14q29 0 58.5 12t62.5 43l41 -143q-59 -66 -109.5 -90.5t-97.5 -24.5q-41 0 -80 13t-76 29.5t-73.5 30t-73.5 13.5q-31 0 -63.5 -13.5t-67.5 -46.5z" />
<glyph unicode="&#xf2;" horiz-adv-x="1099" d="M68 512q0 260 127 400.5t356 140.5q123 0 213 -39t149.5 -109.5t89 -171t29.5 -221.5q0 -260 -126 -400.5t-355 -140.5q-123 0 -213 39t-150.5 109.5t-90 171t-29.5 221.5zM277 1413v62h278l123 -316h-147zM342 512q0 -68 12.5 -125t37 -100t64.5 -66.5t95 -23.5 q104 0 155.5 75.5t51.5 239.5q0 141 -47 228t-160 87q-98 0 -153.5 -73.5t-55.5 -241.5z" />
<glyph unicode="&#xf3;" horiz-adv-x="1099" d="M68 512q0 260 127 400.5t356 140.5q123 0 213 -39t149.5 -109.5t89 -171t29.5 -221.5q0 -260 -126 -400.5t-355 -140.5q-123 0 -213 39t-150.5 109.5t-90 171t-29.5 221.5zM342 512q0 -68 12.5 -125t37 -100t64.5 -66.5t95 -23.5q104 0 155.5 75.5t51.5 239.5 q0 141 -47 228t-160 87q-98 0 -153.5 -73.5t-55.5 -241.5zM455 1159l108 316h271v-62l-228 -254h-151z" />
<glyph unicode="&#xf4;" horiz-adv-x="1099" d="M68 512q0 260 127 400.5t356 140.5q123 0 213 -39t149.5 -109.5t89 -171t29.5 -221.5q0 -260 -126 -400.5t-355 -140.5q-123 0 -213 39t-150.5 109.5t-90 171t-29.5 221.5zM221 1126l252 373h176l227 -373h-211l-80 136l-34 100l-35 -100l-92 -136h-203zM342 512 q0 -68 12.5 -125t37 -100t64.5 -66.5t95 -23.5q104 0 155.5 75.5t51.5 239.5q0 141 -47 228t-160 87q-98 0 -153.5 -73.5t-55.5 -241.5z" />
<glyph unicode="&#xf5;" horiz-adv-x="1099" d="M68 512q0 260 127 400.5t356 140.5q123 0 213 -39t149.5 -109.5t89 -171t29.5 -221.5q0 -260 -126 -400.5t-355 -140.5q-123 0 -213 39t-150.5 109.5t-90 171t-29.5 221.5zM213 1348q63 76 117.5 104.5t103.5 28.5q41 0 79 -14.5t75 -31t71.5 -30.5t71.5 -14 q29 0 58.5 12t62.5 43l41 -143q-59 -66 -109.5 -90.5t-97.5 -24.5q-41 0 -80 13t-76 29.5t-73.5 30t-73.5 13.5q-31 0 -63.5 -13.5t-67.5 -46.5zM342 512q0 -68 12.5 -125t37 -100t64.5 -66.5t95 -23.5q104 0 155.5 75.5t51.5 239.5q0 141 -47 228t-160 87 q-98 0 -153.5 -73.5t-55.5 -241.5z" />
<glyph unicode="&#xf6;" horiz-adv-x="1099" d="M68 512q0 260 127 400.5t356 140.5q123 0 213 -39t149.5 -109.5t89 -171t29.5 -221.5q0 -260 -126 -400.5t-355 -140.5q-123 0 -213 39t-150.5 109.5t-90 171t-29.5 221.5zM180 1333q0 66 40 105t105 39q66 0 104 -39t38 -105q0 -61 -38 -100t-104 -39t-105.5 39 t-39.5 100zM342 512q0 -68 12.5 -125t37 -100t64.5 -66.5t95 -23.5q104 0 155.5 75.5t51.5 239.5q0 141 -47 228t-160 87q-98 0 -153.5 -73.5t-55.5 -241.5zM628 1333q0 66 38 105t104 39t105.5 -39t39.5 -105q0 -61 -40 -100t-105 -39q-66 0 -104 39t-38 100z" />
<glyph unicode="&#xf7;" horiz-adv-x="1079" d="M88 578v229h905v-229h-905zM377 297q0 72 45 114t119 42q78 0 123 -42t45 -114t-45.5 -115t-122.5 -43q-74 0 -119 43t-45 115zM377 1090q0 72 45 113.5t119 41.5q78 0 123 -42t45 -113q0 -72 -45.5 -115t-122.5 -43q-74 0 -119 43t-45 115z" />
<glyph unicode="&#xf8;" horiz-adv-x="1097" d="M68 512q0 260 125.5 400.5t355.5 140.5q66 0 121 -11.5t102 -33.5l49 69l164 -121l-55 -77q51 -70 75.5 -163t24.5 -204q0 -260 -126 -400.5t-355 -140.5q-70 0 -128.5 13.5t-107.5 35.5l-51 -69l-170 123l64 88q-45 68 -66.5 157t-21.5 193zM342 512q0 -72 12 -133 l301 418q-43 31 -106 30q-98 0 -152.5 -73.5t-54.5 -241.5zM434 233q45 -37 115 -36q104 0 155.5 75.5t51.5 239.5q0 76 -17 145z" />
<glyph unicode="&#xf9;" horiz-adv-x="1101" d="M106 387v637h267v-582q0 -125 29.5 -180t115.5 -55q76 0 126 45t75 110v662h266v-713q0 -84 8 -164.5t25 -146.5h-201l-47 152h-8q-47 -78 -131 -129.5t-199 -51.5q-78 0 -139.5 20.5t-102 67.5t-62.5 127t-22 201zM250 1413v62h278l123 -316h-147z" />
<glyph unicode="&#xfa;" horiz-adv-x="1101" d="M106 387v637h267v-582q0 -125 29.5 -180t115.5 -55q76 0 126 45t75 110v662h266v-713q0 -84 8 -164.5t25 -146.5h-201l-47 152h-8q-47 -78 -131 -129.5t-199 -51.5q-78 0 -139.5 20.5t-102 67.5t-62.5 127t-22 201zM426 1159l108 316h271v-62l-228 -254h-151z" />
<glyph unicode="&#xfb;" horiz-adv-x="1101" d="M106 387v637h267v-582q0 -125 29.5 -180t115.5 -55q76 0 126 45t75 110v662h266v-713q0 -84 8 -164.5t25 -146.5h-201l-47 152h-8q-47 -78 -131 -129.5t-199 -51.5q-78 0 -139.5 20.5t-102 67.5t-62.5 127t-22 201zM223 1126l252 373h176l227 -373h-211l-80 136l-34 100 l-35 -100l-92 -136h-203z" />
<glyph unicode="&#xfc;" horiz-adv-x="1101" d="M106 387v637h267v-582q0 -125 29.5 -180t115.5 -55q76 0 126 45t75 110v662h266v-713q0 -84 8 -164.5t25 -146.5h-201l-47 152h-8q-47 -78 -131 -129.5t-199 -51.5q-78 0 -139.5 20.5t-102 67.5t-62.5 127t-22 201zM180 1333q0 66 40 105t105 39q66 0 104 -39t38 -105 q0 -61 -38 -100t-104 -39t-105.5 39t-39.5 100zM628 1333q0 66 38 105t104 39t105.5 -39t39.5 -105q0 -61 -40 -100t-105 -39q-66 0 -104 39t-38 100z" />
<glyph unicode="&#xfd;" horiz-adv-x="978" d="M-18 1024h319l188 -575l37 -160h13l26 162l156 573h274l-311 -924q-39 -115 -75 -210t-79 -164.5t-95 -107.5t-124 -38q-106 0 -170 35l49 213q31 -12 62 -12q47 0 91 40t67 144zM412 1159l108 316h271v-62l-228 -254h-151z" />
<glyph unicode="&#xfe;" horiz-adv-x="1105" d="M117 -410v1844h266v-498h8q43 53 103.5 85t158.5 32q193 0 289 -122t96 -392q0 -131 -30.5 -236.5t-91 -179.5t-147.5 -113t-200 -39q-63 0 -104 9.5t-82 29.5v-420h-266zM383 246q29 -23 62.5 -36t89.5 -13q115 0 172 80.5t57 267.5q0 135 -45.5 208.5t-145.5 73.5 q-74 0 -119.5 -38.5t-70.5 -116.5v-426z" />
<glyph unicode="&#xff;" horiz-adv-x="978" d="M-18 1024h319l188 -575l37 -160h13l26 162l156 573h274l-311 -924q-39 -115 -75 -210t-79 -164.5t-95 -107.5t-124 -38q-106 0 -170 35l49 213q31 -12 62 -12q47 0 91 40t67 144zM135 1333q0 66 40 105t105 39q66 0 104 -39t38 -105q0 -61 -38 -100t-104 -39t-105.5 39 t-39.5 100zM583 1333q0 66 38 105t104 39t105.5 -39t39.5 -105q0 -61 -40 -100t-105 -39q-66 0 -104 39t-38 100z" />
<glyph unicode="&#x100;" horiz-adv-x="1239" d="M0 0l516 1444h207l516 -1444h-295l-115 317h-440l-108 -317h-281zM264 1571v182h702v-182h-702zM461 543h307l-106 319l-44 225h-10l-43 -227z" />
<glyph unicode="&#x101;" horiz-adv-x="1015" d="M47 283q0 94 42 158.5t121 104.5t188.5 55t244.5 9q14 115 -16.5 165t-137.5 50q-80 0 -169 -16t-146 -43l-63 199q82 37 194.5 58t235.5 21q106 0 178 -25.5t113.5 -72.5t59 -112.5t17.5 -147.5q0 -90 -6 -181t-7 -179t5 -171t31 -157h-217l-43 141h-10 q-41 -63 -114 -109t-188 -46q-72 0 -129 21.5t-98 61t-63.5 94t-22.5 122.5zM186 1159v189h661v-189h-661zM322 324q0 -57 34 -89t93 -32q80 0 127 35.5t69 76.5v134q-63 6 -121.5 1.5t-103.5 -18.5t-71.5 -40.5t-26.5 -67.5z" />
<glyph unicode="&#x102;" horiz-adv-x="1239" d="M0 0l516 1444h207l516 -1444h-295l-115 317h-440l-108 -317h-281zM229 1716l106 76q41 -53 119 -82t174 -29q98 0 169 31t112 80l100 -66q-25 -59 -65.5 -102t-92 -71.5t-109.5 -43t-116 -14.5q-55 0 -113.5 12.5t-111.5 38t-98 67.5t-74 103zM461 543h307l-106 319 l-44 225h-10l-43 -227z" />
<glyph unicode="&#x103;" horiz-adv-x="1015" d="M47 283q0 94 42 158.5t121 104.5t188.5 55t244.5 9q14 115 -16.5 165t-137.5 50q-80 0 -169 -16t-146 -43l-63 199q82 37 194.5 58t235.5 21q106 0 178 -25.5t113.5 -72.5t59 -112.5t17.5 -147.5q0 -90 -6 -181t-7 -179t5 -171t31 -157h-217l-43 141h-10 q-41 -63 -114 -109t-188 -46q-72 0 -129 21.5t-98 61t-63.5 94t-22.5 122.5zM164 1409l129 66q35 -61 97.5 -91t131.5 -30q70 0 128.5 30.5t88.5 90.5l123 -56q-6 -49 -33.5 -97t-72.5 -85t-105.5 -59.5t-130.5 -22.5q-135 0 -231 68.5t-125 185.5zM322 324q0 -57 34 -89 t93 -32q80 0 127 35.5t69 76.5v134q-63 6 -121.5 1.5t-103.5 -18.5t-71.5 -40.5t-26.5 -67.5z" />
<glyph unicode="&#x104;" horiz-adv-x="1239" d="M0 0l516 1444h207l516 -1444h-43q-119 -45 -119 -150q0 -53 45 -78.5t127 15.5l39 -127q-31 -25 -97.5 -48.5t-137.5 -23.5q-115 0 -175.5 51.5t-60.5 135.5q0 78 47 134t131 91h-51l-115 317h-440l-108 -317h-281zM461 543h307l-106 319l-44 225h-10l-43 -227z" />
<glyph unicode="&#x105;" horiz-adv-x="1015" d="M47 283q0 94 42 158.5t120 104.5t187.5 55t244.5 9q14 115 -15.5 165t-136.5 50q-80 0 -162.5 -17t-146.5 -46l-69 192q78 43 183 66.5t247 23.5q106 0 178 -25.5t113.5 -72.5t59 -112.5t17.5 -147.5q0 -90 -6 -181t-7 -179t5 -171t31 -157h-47q-115 -49 -115 -148 q0 -53 45 -78.5t127 15.5l39 -127q-31 -25 -97.5 -48.5t-138.5 -23.5q-115 0 -175 51.5t-60 135.5q0 82 54 140t147 93l-39 131h-10q-41 -63 -114 -109t-188 -46q-72 0 -129 21.5t-98 61t-63.5 94t-22.5 122.5zM322 324q0 -57 34 -89t93 -32q80 0 127 35.5t69 76.5v134 q-63 6 -121.5 1.5t-103.5 -18.5t-71.5 -40.5t-26.5 -67.5z" />
<glyph unicode="&#x106;" horiz-adv-x="1144" d="M78 717q0 211 58.5 353t151.5 229t207.5 125t229.5 38q123 0 208 -16t140 -39l-55 -238q-47 23 -111.5 33t-156.5 10q-170 0 -273.5 -120.5t-103.5 -374.5q0 -111 24.5 -202t74.5 -155.5t125 -100.5t173 -36q92 0 155.5 18.5t110.5 47.5l58 -230q-66 -47 -167.5 -67.5 t-207.5 -20.5q-129 0 -245 40t-204 129t-140 231.5t-52 345.5zM557 1540l213 242h326v-62l-328 -180h-211z" />
<glyph unicode="&#x107;" horiz-adv-x="886" d="M68 512q0 260 116.5 400.5t339.5 140.5q113 0 181.5 -18.5t123.5 -47.5l-63 -217q-47 23 -93 35t-106 12q-111 0 -168 -72.5t-57 -232.5q0 -66 14.5 -121t43 -96t74.5 -64.5t108 -23.5q68 0 114.5 17.5t83.5 41.5l62 -203q-61 -45 -148.5 -68.5t-179.5 -23.5 q-123 0 -208 39t-138 109.5t-76.5 171t-23.5 221.5zM404 1159l108 316h271v-62l-228 -254h-151z" />
<glyph unicode="&#x108;" horiz-adv-x="1144" d="M78 717q0 211 58.5 353t151.5 229t207.5 125t229.5 38q123 0 208 -16t140 -39l-55 -238q-47 23 -111.5 33t-156.5 10q-170 0 -273.5 -120.5t-103.5 -374.5q0 -111 24.5 -202t74.5 -155.5t125 -100.5t173 -36q92 0 155.5 18.5t110.5 47.5l58 -230q-66 -47 -167.5 -67.5 t-207.5 -20.5q-129 0 -245 40t-204 129t-140 231.5t-52 345.5zM318 1511v82l272 189h197l260 -191v-80h-203l-117 84l-40 70l-43 -68l-127 -86h-199z" />
<glyph unicode="&#x109;" horiz-adv-x="886" d="M68 512q0 260 116.5 400.5t339.5 140.5q113 0 181.5 -18.5t123.5 -47.5l-63 -217q-47 23 -93 35t-106 12q-111 0 -168 -72.5t-57 -232.5q0 -66 14.5 -121t43 -96t74.5 -64.5t108 -23.5q68 0 114.5 17.5t83.5 41.5l62 -203q-61 -45 -148.5 -68.5t-179.5 -23.5 q-123 0 -208 39t-138 109.5t-76.5 171t-23.5 221.5zM166 1126l252 373h176l227 -373h-211l-80 136l-34 100l-35 -100l-92 -136h-203z" />
<glyph unicode="&#x10c;" horiz-adv-x="1144" d="M78 717q0 211 58.5 353t151.5 229t207.5 125t229.5 38q123 0 208 -16t140 -39l-55 -238q-47 23 -111.5 33t-156.5 10q-170 0 -273.5 -120.5t-103.5 -374.5q0 -111 24.5 -202t74.5 -155.5t125 -100.5t173 -36q92 0 155.5 18.5t110.5 47.5l58 -230q-66 -47 -167.5 -67.5 t-207.5 -20.5q-129 0 -245 40t-204 129t-140 231.5t-52 345.5zM338 1702v80h215l108 -92l39 -62l43 60l115 94h205v-82l-273 -191h-192z" />
<glyph unicode="&#x10d;" horiz-adv-x="886" d="M68 512q0 260 116.5 400.5t339.5 140.5q113 0 181.5 -18.5t123.5 -47.5l-63 -217q-47 23 -93 35t-106 12q-111 0 -168 -72.5t-57 -232.5q0 -66 14.5 -121t43 -96t74.5 -64.5t108 -23.5q68 0 114.5 17.5t83.5 41.5l62 -203q-61 -45 -148.5 -68.5t-179.5 -23.5 q-123 0 -208 39t-138 109.5t-76.5 171t-23.5 221.5zM164 1499h225l80 -135l33 -100l37 100l92 135h207l-252 -373h-187z" />
<glyph unicode="&#x10e;" horiz-adv-x="1325" d="M123 -2v1436q43 6 97 10t111.5 6t112 3t97.5 1q190 0 325 -53t219 -149.5t123 -229.5t39 -293q0 -145 -36.5 -280.5t-123 -240t-226.5 -168t-347 -63.5q-33 0 -87 2.5t-112.5 5.5t-111.5 6t-80 7zM219 1702v80h215l108 -92l39 -62l43 60l115 94h205v-82l-273 -191h-192z M403 236q8 -2 28 -3.5t42.5 -2.5t43 -2t30.5 -1q119 0 197.5 42t124.5 112t64.5 161t18.5 187q0 84 -16 169t-60.5 152.5t-120 110.5t-192.5 43q-45 0 -91 -2t-69 -6v-960z" />
<glyph unicode="&#x10f;" horiz-adv-x="1308" d="M68 496q0 262 118.5 407.5t348.5 145.5q63 0 104 -7.5t82 -23.5v416h266v-1074q0 -86 2 -172t19 -190h-191l-37 133h-8q-41 -72 -117.5 -116t-181.5 -44q-193 0 -299 127t-106 398zM342 487q0 -131 46.5 -210.5t146.5 -79.5q78 0 122.5 37.5t63.5 109.5v434 q-29 23 -63.5 34t-90.5 11q-113 0 -169 -75.5t-56 -260.5zM1036 1079q35 74 53 167t18 188h234q-4 -59 -24.5 -124t-48 -123.5t-58.5 -104.5t-55 -66z" />
<glyph unicode="&#x110;" horiz-adv-x="1370" d="M-12 657v164h180v613q43 6 97 10t111.5 6t112 3t97.5 1q190 0 325.5 -53t219 -149.5t122.5 -229.5t39 -293q0 -145 -36.5 -280.5t-122.5 -240t-226.5 -168t-347.5 -63.5q-33 0 -87 2.5t-112.5 5.5t-111.5 6t-80 7v659h-180zM449 233q8 -2 27.5 -3t42 -2t43 -1h30.5 q119 0 197.5 42t125 112t64.5 161t18 187q0 84 -16 169t-60 152.5t-120 110.5t-193 43q-45 0 -91 -2t-68 -6v-375h286v-164h-286v-424z" />
<glyph unicode="&#x111;" horiz-adv-x="1126" d="M68 496q0 262 118.5 407.5t348.5 145.5q63 0 104 -7.5t82 -23.5v131h-303v164h303v121h266v-121h156v-164h-156v-789q0 -86 2 -172t19 -190h-191l-37 133h-8q-41 -72 -117.5 -116t-181.5 -44q-193 0 -299 127t-106 398zM342 487q0 -131 46.5 -210.5t146.5 -79.5 q78 0 122.5 37.5t63.5 109.5v434q-29 23 -63.5 34t-90.5 11q-113 0 -169 -75.5t-56 -260.5z" />
<glyph unicode="&#x112;" horiz-adv-x="1069" d="M123 0v1434h850v-250h-570v-334h519v-250h-519v-350h580v-250h-860zM195 1571v182h702v-182h-702z" />
<glyph unicode="&#x113;" horiz-adv-x="1040" d="M68 512q0 270 129 405.5t362 135.5q78 0 151.5 -20.5t131 -67.5t92.5 -127t35 -199q0 -43 -5.5 -92t-15.5 -103h-614q6 -129 66.5 -194.5t195.5 -65.5q84 0 150.5 26t101.5 52l88 -174q-61 -49 -166.5 -83t-224.5 -34q-248 0 -362.5 144.5t-114.5 396.5zM199 1159v189 h661v-189h-661zM340 610h381q8 111 -34 170.5t-132 59.5q-104 0 -154.5 -62.5t-60.5 -167.5z" />
<glyph unicode="&#x116;" horiz-adv-x="1069" d="M123 0v1434h850v-250h-570v-334h519v-250h-519v-350h580v-250h-860zM391 1636q0 51 44 88t132 37t135 -36.5t47 -88.5q0 -53 -47 -90t-135 -37t-132 37t-44 90z" />
<glyph unicode="&#x117;" horiz-adv-x="1040" d="M68 512q0 270 129 405.5t362 135.5q78 0 151.5 -20.5t131 -67.5t92.5 -127t35 -199q0 -43 -5.5 -92t-15.5 -103h-614q6 -129 66.5 -194.5t195.5 -65.5q84 0 150.5 26t101.5 52l88 -174q-61 -49 -166.5 -83t-224.5 -34q-248 0 -362.5 144.5t-114.5 396.5zM340 610h381 q8 111 -34 170.5t-132 59.5q-104 0 -154.5 -62.5t-60.5 -167.5zM381 1313q0 59 44 101t122 42t126 -42t48 -101t-48 -99t-126 -40t-122 40t-44 99z" />
<glyph unicode="&#x118;" horiz-adv-x="1069" d="M123 0v1434h850v-250h-570v-334h519v-250h-519v-350h580v-250h-55q-119 -45 -119 -150q0 -37 22.5 -62.5t63.5 -25.5q37 0 86 25l39 -127q-31 -25 -97.5 -48.5t-138.5 -23.5q-115 0 -175 51.5t-60 135.5q0 78 47 134t131 91h-604z" />
<glyph unicode="&#x119;" horiz-adv-x="1040" d="M68 512q0 270 129 405.5t362 135.5q78 0 151.5 -20.5t131 -67.5t92.5 -127t35 -199q0 -43 -5.5 -92t-15.5 -103h-614q6 -129 66.5 -194.5t195.5 -65.5q84 0 150.5 26t101.5 52l88 -174q-51 -41 -135 -72q-98 -63 -99 -155q0 -27 12.5 -48.5t34 -33.5t53.5 -11t72 21 l39 -127q-31 -25 -96 -49.5t-137 -24.5q-117 0 -177.5 56.5t-60.5 140.5q0 57 25 104.5t70 81.5q-242 2 -355 144q-115 145 -114 397zM340 610h381q8 111 -34 170.5t-132 59.5q-104 0 -154.5 -62.5t-60.5 -167.5z" />
<glyph unicode="&#x11a;" horiz-adv-x="1069" d="M123 0v1434h850v-250h-570v-334h519v-250h-519v-350h580v-250h-860zM178 1702v80h215l108 -92l39 -62l43 60l115 94h205v-82l-273 -191h-192z" />
<glyph unicode="&#x11b;" horiz-adv-x="1040" d="M68 512q0 270 129 405.5t362 135.5q78 0 151.5 -20.5t131 -67.5t92.5 -127t35 -199q0 -43 -5.5 -92t-15.5 -103h-614q6 -129 66.5 -194.5t195.5 -65.5q84 0 150.5 26t101.5 52l88 -174q-61 -49 -166.5 -83t-224.5 -34q-248 0 -362.5 144.5t-114.5 396.5zM201 1499h225 l80 -135l33 -100l37 100l92 135h207l-252 -373h-187zM340 610h381q8 111 -34 170.5t-132 59.5q-104 0 -154.5 -62.5t-60.5 -167.5z" />
<glyph unicode="&#x11c;" horiz-adv-x="1247" d="M78 717q0 203 58.5 345t153.5 231t214 129t241 40q123 0 216.5 -18.5t148.5 -38.5l-57 -236q-51 20 -115 31.5t-162 11.5q-88 0 -161.5 -26.5t-128 -87t-84 -154.5t-29.5 -229q0 -129 28.5 -222.5t79.5 -153.5t120 -89t147 -29q53 0 104 13.5t86 39.5v271l-309 33v170 h534v-639q-86 -72 -205.5 -105t-236.5 -33q-137 0 -255 43t-204 134.5t-135 232.5t-49 336zM348 1511v82l272 189h197l260 -191v-80h-203l-117 84l-40 70l-43 -68l-127 -86h-199z" />
<glyph unicode="&#x11d;" horiz-adv-x="1097" d="M68 492q0 274 131 415.5t381 141.5q131 0 234.5 -18.5t168.5 -43.5v-987q0 -223 -121 -328.5t-338 -105.5q-147 0 -232 20.5t-128 42.5l55 211q47 -18 109.5 -36.5t154.5 -18.5q139 0 189.5 60.5t50.5 168.5v66h-8q-72 -96 -254 -96q-199 0 -296 122.5t-97 385.5z M236 1126l252 373h176l227 -373h-211l-80 136l-34 100l-35 -100l-92 -136h-203zM342 502q0 -150 49 -227.5t141 -77.5q78 0 120 34.5t65 104.5v461q-63 27 -158 26q-102 0 -159.5 -76.5t-57.5 -244.5z" />
<glyph unicode="&#x11e;" horiz-adv-x="1247" d="M78 717q0 203 58.5 345t153.5 231t214 129t241 40q123 0 216.5 -18.5t148.5 -38.5l-57 -236q-51 20 -115 31.5t-162 11.5q-88 0 -161.5 -26.5t-128 -87t-84 -154.5t-29.5 -229q0 -129 28.5 -222.5t79.5 -153.5t120 -89t147 -29q53 0 104 13.5t86 39.5v271l-309 33v170 h534v-639q-86 -72 -205.5 -105t-236.5 -33q-137 0 -255 43t-204 134.5t-135 232.5t-49 336zM295 1716l106 76q41 -53 119 -82t174 -29q98 0 169 31t112 80l100 -66q-25 -59 -65.5 -102t-92 -71.5t-109.5 -43t-116 -14.5q-55 0 -113.5 12.5t-111.5 38t-98 67.5t-74 103z" />
<glyph unicode="&#x11f;" horiz-adv-x="1097" d="M68 492q0 274 131 415.5t381 141.5q131 0 234.5 -18.5t168.5 -43.5v-987q0 -223 -121 -328.5t-338 -105.5q-147 0 -232 20.5t-128 42.5l55 211q47 -18 109.5 -36.5t154.5 -18.5q139 0 189.5 60.5t50.5 168.5v66h-8q-72 -96 -254 -96q-199 0 -296 122.5t-97 385.5z M195 1409l129 66q35 -61 97.5 -91t131.5 -30q70 0 128.5 30.5t88.5 90.5l123 -56q-6 -49 -33.5 -97t-72.5 -85t-105.5 -59.5t-130.5 -22.5q-135 0 -231 68.5t-125 185.5zM342 502q0 -150 49 -227.5t141 -77.5q78 0 120 34.5t65 104.5v461q-63 27 -158 26 q-102 0 -159.5 -76.5t-57.5 -244.5z" />
<glyph unicode="&#x122;" horiz-adv-x="1247" d="M78 717q0 203 58.5 345t153.5 231t214 129t241 40q123 0 216.5 -18.5t148.5 -38.5l-57 -236q-51 20 -115 31.5t-162 11.5q-88 0 -161.5 -26.5t-128 -87t-84 -154.5t-29.5 -229q0 -129 28.5 -222.5t79.5 -153.5t120 -89t147 -29q53 0 104 13.5t86 39.5v271l-309 33v170 h534v-639q-86 -72 -205.5 -105t-236.5 -33q-137 0 -255 43t-204 134.5t-135 232.5t-49 336zM569 -215q0 59 40 94t99 35q72 0 117 -47t45 -133q0 -68 -22.5 -119t-55.5 -87t-69.5 -57.5t-63.5 -29.5l-70 110q29 14 57.5 40t32.5 69q-41 -2 -75.5 30t-34.5 95z" />
<glyph unicode="&#x123;" horiz-adv-x="1097" d="M68 492q0 274 131 415.5t381 141.5q131 0 234.5 -18.5t168.5 -43.5v-987q0 -223 -121 -328.5t-338 -105.5q-147 0 -232 20.5t-128 42.5l55 211q47 -18 109.5 -36.5t154.5 -18.5q139 0 189.5 60.5t50.5 168.5v66h-8q-72 -96 -254 -96q-199 0 -296 122.5t-97 385.5z M342 502q0 -150 49 -227.5t141 -77.5q78 0 120 34.5t65 104.5v461q-63 27 -158 26q-102 0 -159.5 -76.5t-57.5 -244.5zM434 1308q0 68 22.5 119t55.5 87t69.5 57.5t63.5 29.5l70 -110q-29 -14 -57.5 -40t-32.5 -69q41 2 75.5 -30t34.5 -95q0 -59 -40 -94t-99 -35 q-72 0 -117 47t-45 133z" />
<glyph unicode="&#x124;" horiz-adv-x="1333" d="M123 0v1434h280v-584h525v584h280v-1434h-280v600h-525v-600h-280zM297 1511v82l272 189h197l260 -191v-80h-203l-117 84l-40 70l-43 -68l-127 -86h-199z" />
<glyph unicode="&#x125;" horiz-adv-x="1116" d="M-92 1511v82l272 189h197l260 -191v-80h-203l-117 84l-40 70l-43 -68l-127 -86h-199zM117 0v1434h266v-525h8q49 66 121 105t182 39q78 0 137.5 -20.5t99.5 -67.5t59.5 -128t19.5 -200v-637h-267v582q0 125 -34.5 180t-126.5 55q-68 0 -124.5 -46t-74.5 -118v-653h-266z " />
<glyph unicode="&#x126;" horiz-adv-x="1398" d="M4 1057v168h154v209h280v-209h525v209h280v-209h152v-168h-152v-1057h-280v600h-525v-600h-280v1057h-154zM438 850h525v207h-525v-207z" />
<glyph unicode="&#x127;" horiz-adv-x="1138" d="M-12 1149v164h151v121h267v-121h329v-164h-329v-240h8q49 66 120.5 105t182.5 39q78 0 137 -20.5t99 -67.5t59.5 -128t19.5 -200v-637h-266v582q0 125 -35 180t-127 55q-68 0 -124 -46t-74 -118v-653h-267v1149h-151z" />
<glyph unicode="&#x12a;" horiz-adv-x="583" d="M-51 1571v182h702v-182h-702zM152 0v1434h280v-1434h-280z" />
<glyph unicode="&#x12b;" horiz-adv-x="550" d="M-55 1159v189h661v-189h-661zM143 0v1024h267v-1024h-267z" />
<glyph unicode="&#x12e;" horiz-adv-x="583" d="M45 -225q0 78 47 134t131 91h-71v1434h280v-1434h-29q-47 -25 -73.5 -61.5t-24.5 -88.5q0 -37 22.5 -62.5t63.5 -25.5q35 0 84 25l41 -127q-31 -25 -97.5 -49.5t-137.5 -24.5q-117 0 -176.5 52.5t-59.5 136.5z" />
<glyph unicode="&#x12f;" horiz-adv-x="552" d="M27 -225q0 78 47 134t131 91h-62v1024h267v-1024h-27q-47 -29 -71.5 -65.5t-24.5 -84.5q2 -37 24.5 -62.5t63.5 -25.5q35 0 84 25l39 -127q-31 -25 -96.5 -49.5t-137.5 -24.5q-117 0 -177 52.5t-60 136.5zM104 1313q0 59 44.5 101t121.5 42q78 0 126 -42t48 -101t-48 -99 t-126 -40t-122 40t-44 99z" />
<glyph unicode="&#x130;" horiz-adv-x="583" d="M117 1636q0 51 44 88t132 37t135 -36.5t47 -88.5q0 -53 -47 -90t-135 -37t-132 37t-44 90zM152 0v1434h280v-1434h-280z" />
<glyph unicode="&#x131;" horiz-adv-x="550" d="M143 0v1024h267v-1024h-267z" />
<glyph unicode="&#x134;" horiz-adv-x="684" d="M-47 23l61 229q53 -27 121 -27q86 0 109.5 63.5t23.5 168.5v977h281v-1049q0 -82 -18.5 -155.5t-60.5 -130t-107.5 -90.5t-159.5 -34q-59 0 -129 12.5t-121 35.5zM43 1511v82l272 189h197l260 -191v-80h-203l-117 84l-40 70l-43 -68l-127 -86h-199z" />
<glyph unicode="&#x135;" horiz-adv-x="548" d="M-53 1126l252 373h176l227 -373h-211l-80 136l-34 100l-35 -100l-92 -136h-203zM-33 -188q8 0 14.5 -1t12.5 -1q92 0 119.5 59t27.5 164v991h267v-1067q0 -186 -74 -284.5t-236 -98.5q-61 0 -131 14v224z" />
<glyph unicode="&#x136;" horiz-adv-x="1269" d="M123 0v1434h280v-635l66 28l395 607h320l-418 -603l-111 -77l115 -80l477 -674h-346l-424 612h-74v-612h-280zM453 -215q0 59 40 94t99 35q72 0 117 -47t45 -133q0 -68 -22.5 -119t-55.5 -87t-69.5 -57.5t-63.5 -29.5l-70 110q29 14 57.5 40t32.5 69q-41 -2 -75.5 30 t-34.5 95z" />
<glyph unicode="&#x137;" horiz-adv-x="1005" d="M117 0v1434h266v-846l61 28l234 408h293l-246 -389l-104 -78l112 -80l277 -477h-305l-250 424h-72v-424h-266zM367 -215q0 59 40 94t99 35q72 0 117 -47t45 -133q0 -68 -22.5 -119t-55.5 -87t-69.5 -57.5t-63.5 -29.5l-70 110q29 14 57.5 40t32.5 69q-41 -2 -75.5 30 t-34.5 95z" />
<glyph unicode="&#x139;" horiz-adv-x="1052" d="M123 0v1434h280v-1184h627v-250h-907zM213 1540l213 242h326v-62l-328 -180h-211z" />
<glyph unicode="&#x13a;" horiz-adv-x="602" d="M125 205v1229h266v-1090q0 -72 18.5 -104.5t59.5 -32.5q25 0 48.5 4t57.5 18l29 -209q-33 -16 -100.5 -32.5t-138.5 -16.5q-117 0 -178.5 54.5t-61.5 179.5zM143 1540l213 242h326v-62l-328 -180h-211z" />
<glyph unicode="&#x13b;" horiz-adv-x="1052" d="M123 0v1434h280v-1184h627v-250h-907zM371 -215q0 59 40 94t99 35q72 0 117 -47t45 -133q0 -68 -22.5 -119t-55.5 -87t-69.5 -57.5t-63.5 -29.5l-70 110q29 14 57.5 40t32.5 69q-41 -2 -75.5 30t-34.5 95z" />
<glyph unicode="&#x13c;" horiz-adv-x="602" d="M125 205v1229h266v-1090q0 -72 18.5 -104.5t59.5 -32.5q25 0 48.5 4t57.5 18l29 -209q-33 -16 -100.5 -32.5t-138.5 -16.5q-117 0 -178.5 54.5t-61.5 179.5zM195 -215q0 59 40 94t99 35q72 0 117 -47t45 -133q0 -68 -22.5 -119t-55.5 -87t-69.5 -57.5t-63.5 -29.5 l-70 110q29 14 57.5 40t32.5 69q-41 -2 -75.5 30t-34.5 95z" />
<glyph unicode="&#x13d;" horiz-adv-x="1052" d="M123 0v1434h280v-1184h627v-250h-907zM643 1079q35 74 53 167t18 188h234q-4 -59 -24.5 -124t-48 -123.5t-58.5 -104.5t-55 -66z" />
<glyph unicode="&#x13e;" horiz-adv-x="602" d="M125 205v1229h266v-1090q0 -72 18.5 -104.5t59.5 -32.5q25 0 48.5 4t57.5 18l29 -209q-33 -16 -100.5 -32.5t-138.5 -16.5q-117 0 -178.5 54.5t-61.5 179.5zM445 1079q35 74 53 167t18 188h234q-4 -59 -24.5 -124t-48 -123.5t-58.5 -104.5t-55 -66z" />
<glyph unicode="&#x141;" horiz-adv-x="1075" d="M6 403v248l139 92v691h281v-502l205 137v-256l-205 -135v-428h627v-250h-908v494z" />
<glyph unicode="&#x142;" horiz-adv-x="653" d="M12 381v248l162 108v697h266v-519l197 132v-256l-197 -129v-318q0 -72 18.5 -104.5t59.5 -32.5q25 0 48.5 4t58.5 18l28 -209q-33 -16 -100.5 -32.5t-138.5 -16.5q-117 0 -178.5 54.5t-61.5 179.5v282z" />
<glyph unicode="&#x143;" horiz-adv-x="1345" d="M123 0v1444h205l542 -764l109 -219h10l-33 219v754h267v-1444h-205l-539 758l-112 225h-11l33 -225v-748h-266zM537 1540l213 242h326v-62l-328 -180h-211z" />
<glyph unicode="&#x144;" horiz-adv-x="1116" d="M117 0v1024h211l30 -135h9q47 66 124.5 115t200.5 49q76 0 135.5 -20.5t100.5 -67.5t61.5 -128t20.5 -200v-637h-267v582q0 125 -35.5 180t-121.5 55q-76 0 -128 -44t-75 -109v-664h-266zM459 1159l108 316h271v-62l-228 -254h-151z" />
<glyph unicode="&#x145;" horiz-adv-x="1345" d="M123 0v1444h205l542 -764l109 -219h10l-33 219v754h267v-1444h-205l-539 758l-112 225h-11l33 -225v-748h-266zM520 -215q0 59 40 94t99 35q72 0 117 -47t45 -133q0 -68 -22.5 -119t-55.5 -87t-69.5 -57.5t-63.5 -29.5l-70 110q29 14 57.5 40t32.5 69q-41 -2 -75.5 30 t-34.5 95z" />
<glyph unicode="&#x146;" horiz-adv-x="1116" d="M117 0v1024h211l30 -135h9q47 66 124.5 115t200.5 49q76 0 135.5 -20.5t100.5 -67.5t61.5 -128t20.5 -200v-637h-267v582q0 125 -35.5 180t-121.5 55q-76 0 -128 -44t-75 -109v-664h-266zM406 -215q0 59 40 94t99 35q72 0 117 -47t45 -133q0 -68 -22.5 -119t-55.5 -87 t-69.5 -57.5t-63.5 -29.5l-70 110q29 14 57.5 40t32.5 69q-41 -2 -75.5 30t-34.5 95z" />
<glyph unicode="&#x147;" horiz-adv-x="1345" d="M123 0v1444h205l542 -764l109 -219h10l-33 219v754h267v-1444h-205l-539 758l-112 225h-11l33 -225v-748h-266zM320 1702v80h215l108 -92l39 -62l43 60l115 94h205v-82l-273 -191h-192z" />
<glyph unicode="&#x148;" horiz-adv-x="1116" d="M117 0v1024h211l30 -135h9q47 66 124.5 115t200.5 49q76 0 135.5 -20.5t100.5 -67.5t61.5 -128t20.5 -200v-637h-267v582q0 125 -35.5 180t-121.5 55q-76 0 -128 -44t-75 -109v-664h-266zM229 1499h225l80 -135l33 -100l37 100l92 135h207l-252 -373h-187z" />
<glyph unicode="&#x14c;" horiz-adv-x="1372" d="M78 717q0 358 157.5 551.5t450.5 193.5q154 0 268.5 -53t190.5 -151.5t112.5 -235.5t36.5 -305q0 -358 -158.5 -552t-449.5 -194q-156 0 -270.5 53.5t-189 151.5t-111.5 235.5t-37 305.5zM342 1571v182h702v-182h-702zM373 717q0 -109 18.5 -200t56 -156.5t97 -102.5 t141.5 -37q150 0 231.5 117t81.5 379q0 104 -17 194t-54 158t-96.5 105.5t-145.5 37.5q-150 0 -231.5 -119.5t-81.5 -375.5z" />
<glyph unicode="&#x14d;" horiz-adv-x="1099" d="M68 512q0 260 127 400.5t356 140.5q123 0 213 -39t149.5 -109.5t89 -171t29.5 -221.5q0 -260 -126 -400.5t-355 -140.5q-123 0 -213 39t-150.5 109.5t-90 171t-29.5 221.5zM219 1159v189h661v-189h-661zM342 512q0 -68 12.5 -125t37 -100t64.5 -66.5t95 -23.5 q104 0 155.5 75.5t51.5 239.5q0 141 -47 228t-160 87q-98 0 -153.5 -73.5t-55.5 -241.5z" />
<glyph unicode="&#x150;" horiz-adv-x="1372" d="M78 717q0 358 157.5 551.5t450.5 193.5q154 0 268.5 -53t190.5 -151.5t112.5 -235.5t36.5 -305q0 -358 -158.5 -552t-449.5 -194q-156 0 -270.5 53.5t-189 151.5t-111.5 235.5t-37 305.5zM373 717q0 -109 18.5 -200t56 -156.5t97 -102.5t141.5 -37q150 0 231.5 117 t81.5 379q0 104 -17 194t-54 158t-96.5 105.5t-145.5 37.5q-150 0 -231.5 -119.5t-81.5 -375.5zM391 1518l121 223h274v-33l-205 -190h-190zM719 1518l198 223h287v-33l-293 -190h-192z" />
<glyph unicode="&#x151;" horiz-adv-x="1099" d="M68 512q0 260 127 400.5t356 140.5q123 0 213 -39t149.5 -109.5t89 -171t29.5 -221.5q0 -260 -126 -400.5t-355 -140.5q-123 0 -213 39t-150.5 109.5t-90 171t-29.5 221.5zM297 1169l72 265h243v-33l-155 -232h-160zM342 512q0 -68 12.5 -125t37 -100t64.5 -66.5 t95 -23.5q104 0 155.5 75.5t51.5 239.5q0 141 -47 228t-160 87q-98 0 -153.5 -73.5t-55.5 -241.5zM584 1169l149 265h258v-33l-242 -232h-165z" />
<glyph unicode="&#x152;" horiz-adv-x="1873" d="M78 717q0 358 157.5 551.5t450.5 193.5q80 0 138.5 -9t103.5 -19h850v-250h-570v-334h518v-250h-518v-350h580v-250h-860q-39 -14 -107.5 -21.5t-134.5 -7.5q-156 0 -270.5 53.5t-189 151.5t-111.5 235.5t-37 305.5zM373 717q0 -109 18.5 -200t58 -156.5t101 -102.5 t149.5 -37q59 0 113.5 7.5t114.5 31.5v901q-43 23 -104.5 37t-137.5 14q-150 0 -231.5 -119.5t-81.5 -375.5z" />
<glyph unicode="&#x153;" horiz-adv-x="1722" d="M68 512q0 260 127 400.5t356 140.5q135 0 217 -46t129 -102q47 59 130 103.5t214 44.5q78 0 151.5 -20.5t131 -67.5t92.5 -127t35 -199q0 -43 -5.5 -92t-15.5 -103h-616q6 -129 67.5 -194.5t196.5 -65.5q84 0 150.5 26t101.5 52l88 -174q-61 -49 -166.5 -83t-224.5 -34 q-227 0 -344 152q-51 -68 -132 -110t-200 -42q-123 0 -213 39t-150.5 109.5t-90 171t-29.5 221.5zM342 512q0 -68 12.5 -125t37 -100t64.5 -66.5t95 -23.5q104 0 155.5 75.5t51.5 239.5q0 141 -47 228t-160 87q-98 0 -153.5 -73.5t-55.5 -241.5zM1022 610h381q0 8 1 16.5 t1 16.5q0 94 -42 145.5t-126 51.5q-104 0 -154.5 -62.5t-60.5 -167.5z" />
<glyph unicode="&#x154;" horiz-adv-x="1232" d="M123 0v1419q47 8 101.5 15.5t108.5 11.5t105 6t94 2q100 0 197.5 -18.5t174.5 -63.5t123 -124t46 -197q0 -176 -82 -287t-219 -154l100 -63l328 -547h-323l-326 561l-148 27v-588h-280zM385 1540l213 242h326v-62l-328 -180h-211zM403 778h119q117 0 186.5 53.5 t69.5 176.5q0 92 -57 144t-168 52q-43 0 -85 -2t-65 -8v-416z" />
<glyph unicode="&#x155;" horiz-adv-x="718" d="M117 0v1024h207l30 -135h8q35 76 94.5 117t139.5 41q53 0 121 -23l-35 -250q-63 23 -115 23q-72 0 -120 -38t-64 -97v-662h-266zM244 1159l108 316h271v-62l-228 -254h-151z" />
<glyph unicode="&#x156;" horiz-adv-x="1232" d="M123 0v1419q47 8 101.5 15.5t108.5 11.5t105 6t94 2q100 0 197.5 -18.5t174.5 -63.5t123 -124t46 -197q0 -176 -82 -287t-219 -154l100 -63l328 -547h-323l-326 561l-148 27v-588h-280zM403 778h119q117 0 186.5 53.5t69.5 176.5q0 92 -57 144t-168 52q-43 0 -85 -2 t-65 -8v-416zM467 -215q0 59 40 94t99 35q72 0 117 -47t45 -133q0 -68 -22.5 -119t-55.5 -87t-69.5 -57.5t-63.5 -29.5l-70 110q29 14 57.5 40t32.5 69q-41 -2 -75.5 30t-34.5 95z" />
<glyph unicode="&#x157;" horiz-adv-x="718" d="M117 0v1024h207l30 -135h8q35 76 94.5 117t139.5 41q53 0 121 -23l-35 -250q-63 23 -115 23q-72 0 -120 -38t-64 -97v-662h-266zM174 -215q0 59 40 94t99 35q72 0 117 -47t45 -133q0 -68 -22.5 -119t-55.5 -87t-69.5 -57.5t-63.5 -29.5l-70 110q29 14 57.5 40t32.5 69 q-41 -2 -75.5 30t-34.5 95z" />
<glyph unicode="&#x158;" horiz-adv-x="1232" d="M123 0v1419q47 8 101.5 15.5t108.5 11.5t105 6t94 2q100 0 197.5 -18.5t174.5 -63.5t123 -124t46 -197q0 -176 -82 -287t-219 -154l100 -63l328 -547h-323l-326 561l-148 27v-588h-280zM168 1702v80h215l108 -92l39 -62l43 60l115 94h205v-82l-273 -191h-192zM403 778 h119q117 0 186.5 53.5t69.5 176.5q0 92 -57 144t-168 52q-43 0 -85 -2t-65 -8v-416z" />
<glyph unicode="&#x159;" horiz-adv-x="718" d="M68 1499h225l80 -135l33 -100l37 100l92 135h207l-252 -373h-187zM117 0v1024h207l30 -135h8q35 76 94.5 117t139.5 41q53 0 121 -23l-35 -250q-63 23 -115 23q-72 0 -120 -38t-64 -97v-662h-266z" />
<glyph unicode="&#x15a;" horiz-adv-x="1085" d="M55 57l90 240q23 -12 59 -26.5t81 -27t95 -20.5t103 -8q125 0 191.5 42t66.5 128q0 66 -48 106.5t-120.5 74.5t-157.5 70t-158 88t-121 130t-48 199q0 104 35 181t99.5 128t152.5 75.5t196 24.5q125 0 236 -21.5t182 -62.5l-88 -235q-45 29 -135 52.5t-195 23.5 q-98 0 -150 -39t-52 -105q0 -61 48 -102t120.5 -76t157.5 -72t158 -89t121 -129t48 -191q0 -115 -38 -198t-106.5 -138t-166 -82t-213.5 -27q-154 0 -270.5 29t-172.5 57zM406 1540l213 242h326v-62l-328 -180h-211z" />
<glyph unicode="&#x15b;" horiz-adv-x="864" d="M51 63l74 199q47 -27 125 -52.5t160 -25.5q59 0 95 23t36 76q0 41 -35 65.5t-86 45t-112.5 42t-113 59t-86 96t-34.5 150.5q0 152 90 232t260 80q117 0 211 -24.5t147 -55.5l-59 -193q-47 18 -119 39t-145 21q-119 0 -119 -92q0 -37 35 -59.5t86 -42t112.5 -42 t112.5 -58.5t86 -93.5t35 -147.5q0 -156 -99.5 -245t-297.5 -89q-109 0 -204 28t-155 64zM318 1159l108 316h271v-62l-228 -254h-151z" />
<glyph unicode="&#x15c;" horiz-adv-x="1085" d="M55 57l90 240q23 -12 59 -26.5t81 -27t95 -20.5t103 -8q125 0 191.5 42t66.5 128q0 66 -48 106.5t-120.5 74.5t-157.5 70t-158 88t-121 130t-48 199q0 104 35 181t99.5 128t152.5 75.5t196 24.5q125 0 236 -21.5t182 -62.5l-88 -235q-45 29 -135 52.5t-195 23.5 q-98 0 -150 -39t-52 -105q0 -61 48 -102t120.5 -76t157.5 -72t158 -89t121 -129t48 -191q0 -115 -38 -198t-106.5 -138t-166 -82t-213.5 -27q-154 0 -270.5 29t-172.5 57zM199 1511v82l272 189h197l260 -191v-80h-203l-117 84l-40 70l-43 -68l-127 -86h-199z" />
<glyph unicode="&#x15d;" horiz-adv-x="864" d="M51 63l74 199q47 -27 125 -52.5t160 -25.5q59 0 95 23t36 76q0 41 -35 65.5t-86 45t-112.5 42t-113 59t-86 96t-34.5 150.5q0 152 90 232t260 80q117 0 211 -24.5t147 -55.5l-59 -193q-47 18 -119 39t-145 21q-119 0 -119 -92q0 -37 35 -59.5t86 -42t112.5 -42 t112.5 -58.5t86 -93.5t35 -147.5q0 -156 -99.5 -245t-297.5 -89q-109 0 -204 28t-155 64zM111 1126l252 373h176l227 -373h-211l-80 136l-34 100l-35 -100l-92 -136h-203z" />
<glyph unicode="&#x15e;" horiz-adv-x="1085" d="M55 57l90 240q23 -12 59 -26.5t81 -27t95 -20.5t103 -8q125 0 191.5 42t66.5 128q0 66 -48 106.5t-120.5 74.5t-157.5 70t-158 88t-121 130t-48 199q0 104 35 181t99.5 128t152.5 75.5t196 24.5q125 0 236 -21.5t182 -62.5l-88 -235q-45 29 -135 52.5t-195 23.5 q-98 0 -150 -39t-52 -105q0 -61 48 -102t120.5 -76t157.5 -72t158 -89t121 -129t48 -191q0 -195 -105.5 -301.5t-285.5 -132.5l-37 -70q84 -8 132 -44t48 -110q0 -47 -23.5 -81.5t-64.5 -58.5t-96 -36t-119 -12q-63 0 -131 12l18 99q14 -2 26.5 -2.5t23.5 -0.5 q78 0 100 18.5t22 43.5q0 57 -176 65l99 166q-139 4 -243 31t-155 55z" />
<glyph unicode="&#x15f;" horiz-adv-x="864" d="M51 63l74 199q47 -27 125 -52.5t160 -25.5q59 0 95 23t36 76q0 41 -35 65.5t-86 45t-112.5 42t-113 59t-86 96t-34.5 150.5q0 152 90 232t260 80q117 0 211 -24.5t147 -55.5l-59 -193q-47 18 -119 39t-145 21q-119 0 -119 -92q0 -37 35 -59.5t86 -42t112.5 -42 t112.5 -58.5t86 -93.5t35 -147.5q0 -131 -71.5 -216t-213.5 -107l-37 -70q84 -8 132.5 -44t48.5 -110q0 -47 -24 -81.5t-64.5 -58.5t-96 -36t-119.5 -12q-63 0 -131 12l19 99q14 -2 26.5 -2.5t22.5 -0.5q78 0 100.5 18.5t22.5 43.5q0 57 -176 65l100 170q-90 8 -168 32 t-127 56z" />
<glyph unicode="&#x160;" horiz-adv-x="1085" d="M55 57l90 240q23 -12 59 -26.5t81 -27t95 -20.5t103 -8q125 0 191.5 42t66.5 128q0 66 -48 106.5t-120.5 74.5t-157.5 70t-158 88t-121 130t-48 199q0 104 35 181t99.5 128t152.5 75.5t196 24.5q125 0 236 -21.5t182 -62.5l-88 -235q-45 29 -135 52.5t-195 23.5 q-98 0 -150 -39t-52 -105q0 -61 48 -102t120.5 -76t157.5 -72t158 -89t121 -129t48 -191q0 -115 -38 -198t-106.5 -138t-166 -82t-213.5 -27q-154 0 -270.5 29t-172.5 57zM219 1702v80h215l108 -92l39 -62l43 60l115 94h205v-82l-273 -191h-192z" />
<glyph unicode="&#x161;" horiz-adv-x="864" d="M51 63l74 199q47 -27 125 -52.5t160 -25.5q59 0 95 23t36 76q0 41 -35 65.5t-86 45t-112.5 42t-113 59t-86 96t-34.5 150.5q0 152 90 232t260 80q117 0 211 -24.5t147 -55.5l-59 -193q-47 18 -119 39t-145 21q-119 0 -119 -92q0 -37 35 -59.5t86 -42t112.5 -42 t112.5 -58.5t86 -93.5t35 -147.5q0 -156 -99.5 -245t-297.5 -89q-109 0 -204 28t-155 64zM96 1499h225l80 -135l33 -100l37 100l92 135h207l-252 -373h-187z" />
<glyph unicode="&#x162;" horiz-adv-x="1163" d="M23 1184v250h1118v-250h-418v-1184h-55l-50 -88q84 -8 132.5 -44t48.5 -110q0 -47 -23.5 -81.5t-64.5 -58.5t-96.5 -36t-118.5 -12t-131 12l18 99q14 -2 26.5 -2.5t22.5 -0.5q78 0 100.5 18.5t22.5 43.5q0 57 -176 65l117 195h-54v1184h-419z" />
<glyph unicode="&#x163;" horiz-adv-x="714" d="M10 799v225h142v193l266 75v-268h250v-225h-250v-393q0 -106 21.5 -153.5t80.5 -47.5q41 0 71 8t66 25l48 -203q-39 -18 -84.5 -30.5t-98.5 -22.5l-37 -70q84 -8 132.5 -44t48.5 -110q0 -47 -24 -81.5t-64.5 -58.5t-96 -36t-119.5 -12q-63 0 -131 12l19 99 q14 -2 26.5 -2.5t22.5 -0.5q78 0 100.5 18.5t22.5 43.5q0 57 -176 65l102 172q-100 18 -148 91t-48 215v516h-142z" />
<glyph unicode="&#x164;" horiz-adv-x="1163" d="M23 1184v250h1118v-250h-418v-1184h-281v1184h-419zM217 1702v80h215l108 -92l39 -62l43 60l115 94h205v-82l-273 -191h-192z" />
<glyph unicode="&#x165;" horiz-adv-x="737" d="M10 799v225h142v193l266 75v-268h250v-225h-250v-393q0 -106 21.5 -152.5t80.5 -46.5q41 0 71 8t66 25l48 -205q-55 -27 -129 -45.5t-150 -18.5q-141 0 -207.5 73t-66.5 239v516h-142zM463 1126q35 74 53 167t18 188h234q-4 -59 -24.5 -124t-48 -123.5t-58.5 -104.5 t-55 -66z" />
<glyph unicode="&#x16a;" horiz-adv-x="1284" d="M117 473v961h280v-906q0 -84 15.5 -142t48.5 -94t82 -51.5t114 -15.5q129 0 186.5 72t57.5 231v906h266v-926q0 -139 -36.5 -239.5t-102 -166t-160 -96.5t-206.5 -31q-545 0 -545 498zM297 1571v182h702v-182h-702z" />
<glyph unicode="&#x16b;" horiz-adv-x="1101" d="M106 387v637h267v-582q0 -125 29.5 -180t115.5 -55q76 0 126 45t75 110v662h266v-713q0 -84 8 -164.5t25 -146.5h-201l-47 152h-8q-47 -78 -131 -129.5t-199 -51.5q-78 0 -139.5 20.5t-102 67.5t-62.5 127t-22 201zM217 1159v189h661v-189h-661z" />
<glyph unicode="&#x16c;" horiz-adv-x="1284" d="M117 473v961h280v-906q0 -84 15.5 -142t48.5 -94t82 -51.5t114 -15.5q129 0 186.5 72t57.5 231v906h266v-926q0 -139 -36.5 -239.5t-102 -166t-160 -96.5t-206.5 -31q-545 0 -545 498zM248 1716l106 76q41 -53 119 -82t174 -29q98 0 169 31t112 80l100 -66 q-25 -59 -65.5 -102t-92 -71.5t-109.5 -43t-116 -14.5q-55 0 -113.5 12.5t-111.5 38t-98 67.5t-74 103z" />
<glyph unicode="&#x16d;" horiz-adv-x="1101" d="M106 387v637h267v-582q0 -125 29.5 -180t115.5 -55q76 0 126 45t75 110v662h266v-713q0 -84 8 -164.5t25 -146.5h-201l-47 152h-8q-47 -78 -131 -129.5t-199 -51.5q-78 0 -139.5 20.5t-102 67.5t-62.5 127t-22 201zM197 1409l129 66q35 -61 97.5 -91t131.5 -30 q70 0 128.5 30.5t88.5 90.5l123 -56q-6 -49 -33.5 -97t-72.5 -85t-105.5 -59.5t-130.5 -22.5q-135 0 -231 68.5t-125 185.5z" />
<glyph unicode="&#x16e;" horiz-adv-x="1284" d="M117 473v961h280v-906q0 -84 15.5 -142t48.5 -94t82 -51.5t114 -15.5q129 0 186.5 72t57.5 231v906h266v-926q0 -139 -36.5 -239.5t-102 -166t-160 -96.5t-206.5 -31q-545 0 -545 498zM393 1581q0 37 12 71t42 59.5t80 39.5t128 14q143 0 202.5 -49t59.5 -135 q0 -37 -13 -69.5t-44 -56t-81 -38t-124 -14.5q-145 0 -203.5 50t-58.5 128zM565 1581q0 -63 90 -63q51 0 71.5 16t20.5 47q0 35 -21.5 51.5t-70.5 16.5q-90 0 -90 -68z" />
<glyph unicode="&#x16f;" horiz-adv-x="1101" d="M106 387v637h267v-582q0 -125 29.5 -180t115.5 -55q76 0 126 45t75 110v662h266v-713q0 -84 8 -164.5t25 -146.5h-201l-47 152h-8q-47 -78 -131 -129.5t-199 -51.5q-78 0 -139.5 20.5t-102 67.5t-62.5 127t-22 201zM318 1325q0 86 58.5 141.5t168.5 55.5q104 0 166 -50.5 t62 -146.5q0 -80 -60.5 -136t-167.5 -56q-109 0 -168 52t-59 140zM465 1325q0 -33 24.5 -50.5t55.5 -17.5q35 0 57.5 16.5t22.5 51.5t-23.5 52.5t-56.5 17.5q-31 0 -55.5 -16.5t-24.5 -53.5z" />
<glyph unicode="&#x170;" horiz-adv-x="1284" d="M117 473v961h280v-906q0 -84 15.5 -142t48.5 -94t82 -51.5t114 -15.5q129 0 186.5 72t57.5 231v906h266v-926q0 -139 -36.5 -239.5t-102 -166t-160 -96.5t-206.5 -31q-545 0 -545 498zM340 1518l121 223h274v-33l-205 -190h-190zM668 1518l198 223h287v-33l-293 -190 h-192z" />
<glyph unicode="&#x171;" horiz-adv-x="1101" d="M106 387v637h267v-582q0 -125 29.5 -180t115.5 -55q76 0 126 45t75 110v662h266v-713q0 -84 8 -164.5t25 -146.5h-201l-47 152h-8q-47 -78 -131 -129.5t-199 -51.5q-78 0 -139.5 20.5t-102 67.5t-62.5 127t-22 201zM268 1169l72 265h243v-33l-155 -232h-160zM555 1169 l149 265h258v-33l-242 -232h-165z" />
<glyph unicode="&#x172;" horiz-adv-x="1284" d="M117 473v961h280v-906q0 -84 15.5 -142t48.5 -94t82 -51.5t114 -15.5q129 0 186.5 72t57.5 231v906h266v-926q0 -139 -36.5 -239.5t-102.5 -166.5q-61 -61 -149 -92q-92 -63 -93 -149q0 -27 11.5 -48.5t34 -33.5t54.5 -11t72 21l39 -127q-31 -25 -97 -49.5t-138 -24.5 q-115 0 -175.5 56.5t-60.5 140.5q0 113 109 190q-518 12 -518 498z" />
<glyph unicode="&#x173;" horiz-adv-x="1101" d="M106 387v637h267v-582q0 -125 29.5 -180t115.5 -55q76 0 126 45t75 110v662h266v-713q0 -84 8 -164.5t25 -146.5h-37q-59 -20 -87 -58t-28 -89q2 -53 46 -79t126 15l39 -127q-31 -25 -96.5 -49.5t-136.5 -24.5q-117 0 -177.5 52.5t-60.5 136.5t55.5 143.5t151.5 91.5 l-43 140h-8q-47 -78 -131 -129.5t-199 -51.5q-78 0 -139.5 20.5t-102 67.5t-62.5 127t-22 201z" />
<glyph unicode="&#x178;" horiz-adv-x="1212" d="M-4 1434h334l262 -539l29 -152h10l31 156l253 535h302l-469 -899v-535h-281v532zM238 1634q0 53 37 86t119 33q80 0 116.5 -32.5t36.5 -86.5q0 -53 -37 -84.5t-116 -31.5q-82 0 -119 31.5t-37 84.5zM676 1634q0 53 37 86t117 33q82 0 118.5 -32.5t36.5 -86.5 q0 -53 -36.5 -84.5t-118.5 -31.5q-80 0 -117 31.5t-37 84.5z" />
<glyph unicode="&#x179;" horiz-adv-x="1103" d="M55 0v250l607 848l106 86h-713v250h994v-250l-611 -856l-104 -78h715v-250h-994zM397 1540l213 242h326v-62l-328 -180h-211z" />
<glyph unicode="&#x17a;" horiz-adv-x="937" d="M63 0v225l404 486l104 88h-508v225h803v-225l-399 -494l-102 -80h501v-225h-803zM346 1159l108 316h271v-62l-228 -254h-151z" />
<glyph unicode="&#x17b;" horiz-adv-x="1103" d="M55 0v250l607 848l106 86h-713v250h994v-250l-611 -856l-104 -78h715v-250h-994zM381 1636q0 51 44 88t132 37t135 -36.5t47 -88.5q0 -53 -47 -90t-135 -37t-132 37t-44 90z" />
<glyph unicode="&#x17c;" horiz-adv-x="937" d="M63 0v225l404 486l104 88h-508v225h803v-225l-399 -494l-102 -80h501v-225h-803zM309 1313q0 59 44 101t122 42t126 -42t48 -101t-48 -99t-126 -40t-122 40t-44 99z" />
<glyph unicode="&#x17d;" horiz-adv-x="1103" d="M55 0v250l607 848l106 86h-713v250h994v-250l-611 -856l-104 -78h715v-250h-994zM180 1702v80h215l108 -92l39 -62l43 60l115 94h205v-82l-273 -191h-192z" />
<glyph unicode="&#x17e;" horiz-adv-x="937" d="M63 0v225l404 486l104 88h-508v225h803v-225l-399 -494l-102 -80h501v-225h-803zM129 1499h225l80 -135l33 -100l37 100l92 135h207l-252 -373h-187z" />
<glyph unicode="&#x17f;" horiz-adv-x="509" d="M25 799v225h141v57q0 195 82 282t237 87q92 0 156 -13.5t119 -35.5l-53 -207q-47 16 -82 23.5t-76 7.5t-64.5 -12.5t-35 -38t-14.5 -63.5t-3 -87v-1024h-266v799h-141z" />
<glyph unicode="&#x192;" d="M-106 -377l43 215q47 -20 90 -29.5t100 -9.5q74 0 115 50.5t59 166.5l125 783h-160v225h197l22 137q12 76 34 132.5t59.5 94t97 56t147.5 18.5q33 0 75 -5t85 -14t84 -20.5t72 -25.5l-66 -199q-100 39 -194 39q-66 0 -91.5 -31.5t-37.5 -113.5l-11 -68h244v-225h-283 l-145 -869q-12 -76 -35.5 -140t-65.5 -112.5t-104.5 -76t-152.5 -27.5q-29 0 -71 4t-85 10t-83 15.5t-64 19.5z" />
<glyph unicode="&#x1f4;" horiz-adv-x="1247" d="M78 717q0 203 58.5 345t153.5 231t214 129t241 40q123 0 216.5 -18.5t148.5 -38.5l-57 -236q-51 20 -115 31.5t-162 11.5q-88 0 -161.5 -26.5t-128 -87t-84 -154.5t-29.5 -229q0 -129 28.5 -222.5t79.5 -153.5t120 -89t147 -29q53 0 104 13.5t86 39.5v271l-309 33v170 h534v-639q-86 -72 -205.5 -105t-236.5 -33q-137 0 -255 43t-204 134.5t-135 232.5t-49 336zM588 1540l213 242h326v-62l-328 -180h-211z" />
<glyph unicode="&#x1f5;" horiz-adv-x="1097" d="M68 492q0 274 131 415.5t381 141.5q131 0 234.5 -18.5t168.5 -43.5v-987q0 -223 -121 -328.5t-338 -105.5q-147 0 -232 20.5t-128 42.5l55 211q47 -18 109.5 -36.5t154.5 -18.5q139 0 189.5 60.5t50.5 168.5v66h-8q-72 -96 -254 -96q-199 0 -296 122.5t-97 385.5z M342 502q0 -150 49 -227.5t141 -77.5q78 0 120 34.5t65 104.5v461q-63 27 -158 26q-102 0 -159.5 -76.5t-57.5 -244.5zM461 1159l108 316h271v-62l-228 -254h-151z" />
<glyph unicode="&#x218;" horiz-adv-x="1085" d="M55 57l90 240q23 -12 59 -26.5t81 -27t95 -20.5t103 -8q125 0 191.5 42t66.5 128q0 66 -48 106.5t-120.5 74.5t-157.5 70t-158 88t-121 130t-48 199q0 104 35 181t99.5 128t152.5 75.5t196 24.5q125 0 236 -21.5t182 -62.5l-88 -235q-45 29 -135 52.5t-195 23.5 q-98 0 -150 -39t-52 -105q0 -61 48 -102t120.5 -76t157.5 -72t158 -89t121 -129t48 -191q0 -115 -38 -198t-106.5 -138t-166 -82t-213.5 -27q-154 0 -270.5 29t-172.5 57zM379 -215q0 59 40 94t99 35q72 0 117 -47t45 -133q0 -68 -22.5 -119t-55.5 -87t-69.5 -57.5 t-63.5 -29.5l-70 110q29 14 57.5 40t32.5 69q-41 -2 -75.5 30t-34.5 95z" />
<glyph unicode="&#x219;" horiz-adv-x="864" d="M51 63l74 199q47 -27 125 -52.5t160 -25.5q59 0 95 23t36 76q0 41 -35 65.5t-86 45t-112.5 42t-113 59t-86 96t-34.5 150.5q0 152 90 232t260 80q117 0 211 -24.5t147 -55.5l-59 -193q-47 18 -119 39t-145 21q-119 0 -119 -92q0 -37 35 -59.5t86 -42t112.5 -42 t112.5 -58.5t86 -93.5t35 -147.5q0 -156 -99.5 -245t-297.5 -89q-109 0 -204 28t-155 64zM289 -215q0 59 40 94t99 35q72 0 117 -47t45 -133q0 -68 -22.5 -119t-55.5 -87t-69.5 -57.5t-63.5 -29.5l-70 110q29 14 57.5 40t32.5 69q-41 -2 -75.5 30t-34.5 95z" />
<glyph unicode="&#x21a;" horiz-adv-x="1163" d="M23 1184v250h1118v-250h-418v-1184h-281v1184h-419zM420 -215q0 59 40 94t99 35q72 0 117 -47t45 -133q0 -68 -22.5 -119t-55.5 -87t-69.5 -57.5t-63.5 -29.5l-70 110q29 14 57.5 40t32.5 69q-41 -2 -75.5 30t-34.5 95z" />
<glyph unicode="&#x21b;" horiz-adv-x="714" d="M10 799v225h142v193l266 75v-268h250v-225h-250v-393q0 -106 21.5 -152.5t80.5 -46.5q41 0 71 8t66 25l48 -205q-55 -27 -129 -45.5t-150 -18.5q-141 0 -207.5 73t-66.5 239v516h-142zM223 -215q0 59 40 94t99 35q72 0 117 -47t45 -133q0 -68 -22.5 -119t-55.5 -87 t-69.5 -57.5t-63.5 -29.5l-70 110q29 14 57.5 40t32.5 69q-41 -2 -75.5 30t-34.5 95z" />
<glyph unicode="&#x237;" horiz-adv-x="548" d="M-33 -188q8 0 14.5 -1t12.5 -1q92 0 119.5 59t27.5 164v991h267v-1067q0 -186 -74 -284.5t-236 -98.5q-61 0 -131 14v224z" />
<glyph unicode="&#x2bc;" horiz-adv-x="456" d="M78 1319q0 59 40 96t101 37q74 0 117 -49t43 -129q0 -82 -25.5 -139.5t-61.5 -95.5t-76 -59.5t-66 -31.5l-68 113q41 18 72.5 49t35.5 78q-41 -2 -76.5 31.5t-35.5 99.5z" />
<glyph unicode="&#x2c6;" horiz-adv-x="901" d="M123 1126l252 373h176l227 -373h-211l-80 136l-34 100l-35 -100l-92 -136h-203z" />
<glyph unicode="&#x2c7;" horiz-adv-x="919" d="M123 1499h225l80 -135l33 -100l37 100l92 135h207l-252 -373h-187z" />
<glyph unicode="&#x2d8;" horiz-adv-x="944" d="M123 1409l129 66q35 -61 97.5 -91t131.5 -30q70 0 128.5 30.5t88.5 90.5l123 -56q-6 -49 -33.5 -97t-72.5 -85t-105.5 -59.5t-130.5 -22.5q-135 0 -231 68.5t-125 185.5z" />
<glyph unicode="&#x2d9;" horiz-adv-x="585" d="M123 1313q0 59 44 101t122 42t126 -42t48 -101t-48 -99t-126 -40t-122 40t-44 99z" />
<glyph unicode="&#x2da;" horiz-adv-x="700" d="M123 1325q0 86 58.5 141.5t168.5 55.5q104 0 166 -50.5t62 -146.5q0 -80 -60.5 -136t-167.5 -56q-109 0 -168 52t-59 140zM270 1325q0 -33 24.5 -50.5t55.5 -17.5q35 0 57.5 16.5t22.5 51.5t-23.5 52.5t-56.5 17.5q-31 0 -55.5 -16.5t-24.5 -53.5z" />
<glyph unicode="&#x2db;" horiz-adv-x="716" d="M123 -217q0 84 56.5 143.5t154.5 93.5h205q-156 -45 -156 -161q0 -37 22.5 -62.5t63.5 -25.5q37 0 86 24l39 -127q-31 -25 -97.5 -48t-138.5 -23q-115 0 -175 51t-60 135z" />
<glyph unicode="&#x2dc;" horiz-adv-x="925" d="M123 1348q63 76 117.5 104.5t103.5 28.5q41 0 79 -14.5t75 -31t71.5 -30.5t71.5 -14q29 0 58.5 12t62.5 43l41 -143q-59 -66 -109.5 -90.5t-97.5 -24.5q-41 0 -80 13t-76 29.5t-73.5 30t-73.5 13.5q-31 0 -63.5 -13.5t-67.5 -46.5z" />
<glyph unicode="&#x2dd;" horiz-adv-x="940" d="M123 1169l72 265h243v-33l-155 -232h-160zM410 1169l149 265h258v-33l-242 -232h-165z" />
<glyph unicode="&#x301;" horiz-adv-x="4" d="M-625 1159l108 316h271v-62l-228 -254h-151z" />
<glyph unicode="&#x394;" horiz-adv-x="1198" d="M25 0v145l493 1299h162l498 -1299v-145h-1153zM324 238h553l-230 610l-47 205h-10l-49 -207z" />
<glyph unicode="&#x3a9;" horiz-adv-x="1593" d="M119 0v225h215l174 -26v57l-94 18q-61 29 -114.5 76t-93.5 114.5t-62.5 155t-22.5 193.5q0 150 48 269.5t137 203.5t214 130t277 46q160 0 285.5 -48t211.5 -134t132.5 -207t46.5 -268q0 -106 -25 -191.5t-65 -151t-92 -111.5t-107 -75l-101 -20v-57l174 26h218v-225 h-615v416q53 8 109.5 34.5t102.5 72.5t76 115t30 165q0 76 -20.5 149.5t-65.5 132t-118 93t-179 34.5q-182 0 -280.5 -104t-98.5 -311q0 -92 28.5 -161t73.5 -115t101.5 -71.5t111.5 -33.5v-416h-612z" />
<glyph unicode="&#x3bc;" horiz-adv-x="1165" d="M106 -410v1434h267v-559q0 -131 42 -197.5t146 -66.5q94 0 151.5 47t82.5 131v645h266v-690q0 -84 5 -169t26 -165h-197l-66 152h-8q-35 -72 -102.5 -124.5t-175.5 -52.5q-80 0 -123 29t-80 74h-10l43 -215v-273h-267z" />
<glyph unicode="&#x3c0;" horiz-adv-x="1425" d="M39 807q39 104 115.5 160.5t185.5 56.5h989v-225h-170v-480q0 -57 18.5 -79.5t47.5 -22.5q20 0 45.5 4t44.5 8l41 -184q-41 -18 -105.5 -37.5t-156.5 -19.5q-115 0 -158 61.5t-43 167.5v582h-287v-799h-266v799h-29q-37 0 -64.5 -20.5t-51.5 -69.5z" />
<glyph unicode="&#x401;" horiz-adv-x="1069" d="M123 0v1434h850v-250h-570v-334h519v-250h-519v-350h580v-250h-860zM168 1634q0 53 37 86t119 33q80 0 116.5 -32.5t36.5 -86.5q0 -53 -37 -84.5t-116 -31.5q-82 0 -119 31.5t-37 84.5zM606 1634q0 53 37 86t117 33q82 0 118.5 -32.5t36.5 -86.5q0 -53 -36.5 -84.5 t-118.5 -31.5q-80 0 -117 31.5t-37 84.5z" />
<glyph unicode="&#x402;" horiz-adv-x="1515" d="M23 1184v250h1118v-250h-418v-293q33 12 102.5 28.5t180.5 16.5q80 0 156.5 -20.5t138 -72.5t99.5 -141.5t38 -226.5q0 -238 -117 -363.5t-377 -125.5q-57 0 -85 2t-44 6v239q14 -4 48 -5t69 -1q102 0 156.5 59.5t54.5 176.5q0 70 -18.5 114t-51.5 68.5t-78 32.5t-98 8 q-47 0 -99.5 -12t-74.5 -25v-649h-281v1184h-419z" />
<glyph unicode="&#x403;" horiz-adv-x="937" d="M123 0v1434h833v-250h-553v-1184h-280zM385 1540l213 242h326v-62l-328 -180h-211z" />
<glyph unicode="&#x404;" horiz-adv-x="1181" d="M78 717q0 211 59.5 353t154.5 229t213 125t236 38q123 0 215.5 -16t147.5 -39l-53 -244q-47 23 -120 36t-165 13q-72 0 -136.5 -21.5t-114.5 -66.5t-86 -112.5t-50 -159.5h563v-229h-569q23 -182 128 -292t285 -110q92 0 164 18.5t117 45.5l57 -226q-31 -23 -77 -40 t-98 -27t-107.5 -15.5t-108.5 -5.5q-133 0 -252 40t-208 129t-142 231.5t-53 345.5z" />
<glyph unicode="&#x405;" horiz-adv-x="1085" d="M55 57l90 240q23 -12 59 -26.5t81 -27t95 -20.5t103 -8q125 0 191.5 42t66.5 128q0 66 -48 106.5t-120.5 74.5t-157.5 70t-158 88t-121 130t-48 199q0 104 35 181t99.5 128t152.5 75.5t196 24.5q125 0 236 -21.5t182 -62.5l-88 -235q-45 29 -135 52.5t-195 23.5 q-98 0 -150 -39t-52 -105q0 -61 48 -102t120.5 -76t157.5 -72t158 -89t121 -129t48 -191q0 -115 -38 -198t-106.5 -138t-166 -82t-213.5 -27q-154 0 -270.5 29t-172.5 57z" />
<glyph unicode="&#x406;" horiz-adv-x="583" d="M152 0v1434h280v-1434h-280z" />
<glyph unicode="&#x407;" horiz-adv-x="606" d="M39 1622q0 63 31.5 97t91.5 34q57 0 89 -33.5t32 -97.5q0 -61 -32 -94t-89 -33q-59 0 -91 33t-32 94zM162 0v1434h280v-1434h-280zM326 1622q0 63 31.5 97t88.5 34q59 0 91 -33.5t32 -97.5q0 -61 -31.5 -94t-91.5 -33q-57 0 -88.5 33t-31.5 94z" />
<glyph unicode="&#x408;" horiz-adv-x="684" d="M-47 23l61 229q53 -27 121 -27q86 0 109.5 63.5t23.5 168.5v977h281v-1049q0 -82 -18.5 -155.5t-60.5 -130t-107.5 -90.5t-159.5 -34q-59 0 -129 12.5t-121 35.5z" />
<glyph unicode="&#x409;" horiz-adv-x="1914" d="M-27 14l31 242q12 -4 24.5 -6t24.5 -2q33 0 65 16.5t54 54.5q31 45 53.5 132.5t40 222.5t27.5 322.5t14 437.5h846v-514q10 2 33.5 5t51.5 5t56.5 4t53.5 2q100 0 194 -20.5t167 -72.5t116 -141.5t43 -226.5q0 -246 -152.5 -370.5t-437.5 -124.5q-25 0 -61.5 1t-80.5 3 t-93.5 6t-94.5 10h-76v1184h-305q-8 -195 -18 -354.5t-27.5 -287.5t-46.5 -226.5t-74 -170.5q-29 -47 -64.5 -77.5t-74.5 -49t-77 -25.5t-70 -7q-47 0 -79 7t-63 21zM1153 242q23 -6 60.5 -9.5t78.5 -3.5q57 0 108.5 11.5t90.5 39t60.5 72.5t21.5 111q0 70 -23.5 114 t-61.5 68.5t-89 32.5t-107 8q-14 0 -34.5 -2l-41 -4t-38 -5t-25.5 -5v-428z" />
<glyph unicode="&#x40a;" horiz-adv-x="1970" d="M123 0v1434h280v-560h525v560h280v-545q10 2 34 5t51.5 5t56 4t53.5 2q100 0 194.5 -18.5t167 -67.5t115.5 -135t43 -223q0 -246 -151.5 -363.5t-438.5 -117.5q-29 0 -78 2t-105 5t-115.5 8t-106.5 11v619h-525v-625h-280zM1208 242q23 -6 61 -9.5t79 -3.5 q63 0 115.5 10.5t89 36t56 67.5t19.5 106q0 66 -20.5 105.5t-57.5 62t-89 30.5t-113 8q-14 0 -35 -2t-41.5 -4t-37.5 -6t-26 -6v-395z" />
<glyph unicode="&#x40b;" horiz-adv-x="1552" d="M23 1184v250h1118v-250h-418v-363q51 31 140 57.5t212 26.5q86 0 158 -22.5t124 -69.5t80.5 -123t28.5 -182v-508h-280v422q0 123 -49.5 183.5t-159.5 60.5q-78 0 -145.5 -17.5t-108.5 -52.5v-596h-281v1184h-419z" />
<glyph unicode="&#x40c;" horiz-adv-x="1269" d="M123 0v1434h280v-635l66 28l395 607h320l-418 -603l-111 -77l115 -80l477 -674h-346l-424 612h-74v-612h-280zM438 1540l213 242h326v-62l-328 -180h-211z" />
<glyph unicode="&#x40e;" horiz-adv-x="1163" d="M-18 1434h329l291 -633l41 -187h12l33 193l215 627h289l-381 -992q-45 -117 -87 -202.5t-90 -142t-107.5 -84t-139.5 -27.5q-68 0 -109.5 9t-91.5 40l72 227q35 -18 63.5 -22t61.5 -4q96 0 135 151zM213 1749l254 41q8 -66 48 -94.5t103 -28.5q137 0 152 121l227 -35 q-23 -129 -118 -188.5t-263 -59.5q-84 0 -153.5 12.5t-121.5 40t-86 74.5t-42 117z" />
<glyph unicode="&#x40f;" horiz-adv-x="1308" d="M123 0v1434h280v-1184h502v1184h281v-1434h-410l-31 -358h-180l-41 358h-401z" />
<glyph unicode="&#x410;" horiz-adv-x="1239" d="M0 0l516 1444h207l516 -1444h-295l-115 317h-440l-108 -317h-281zM461 543h307l-106 319l-44 225h-10l-43 -227z" />
<glyph unicode="&#x411;" horiz-adv-x="1167" d="M123 14v1420h883v-250h-603v-299q35 6 85.5 12t99.5 6q115 0 211 -22.5t164.5 -74.5t107.5 -137t39 -208q0 -121 -40 -211t-114.5 -149.5t-180 -90t-236.5 -30.5q-35 0 -87.5 2t-110.5 6t-115.5 10t-102.5 16zM403 221q23 -6 69 -8t87 -2q53 0 99.5 13.5t81 41t55 70.5 t20.5 104q0 74 -22.5 119t-61.5 70.5t-89 34t-107 8.5q-29 0 -72 -5t-60 -10v-436z" />
<glyph unicode="&#x412;" horiz-adv-x="1210" d="M123 10v1413q39 6 89 12.5t107.5 10.5t118 6t119.5 2q100 0 195.5 -15.5t170 -54t119.5 -108.5t45 -176q0 -53 -13 -106.5t-44 -97.5t-80 -78t-119 -50v-12q61 -10 117 -35t96.5 -68t64.5 -104.5t24 -145.5q0 -111 -47.5 -191.5t-126 -131.5t-179 -75.5t-207.5 -24.5h-89 t-116.5 3t-127 9t-117.5 18zM393 223q10 -4 33 -6t48.5 -3t53 -2t47.5 -1q51 0 99.5 12.5t85.5 38t59.5 64.5t22.5 92q0 68 -27 106.5t-70 60t-96 27.5t-106 6h-150v-395zM393 831h90q29 0 67 2.5t62 6.5q78 25 134.5 74t56.5 128q0 53 -20.5 88t-54.5 55.5t-77 29t-90 8.5 q-53 0 -98 -2t-70 -7v-383z" />
<glyph unicode="&#x413;" horiz-adv-x="937" d="M123 0v1434h833v-250h-553v-1184h-280z" />
<glyph unicode="&#x414;" horiz-adv-x="1415" d="M0 250h152q14 23 46.5 100.5t65.5 220t55.5 356.5t20.5 507h858v-1184h182v-506h-198l-31 256h-922l-30 -256h-199v506zM449 250h469v934h-318q-12 -365 -58 -597.5t-93 -336.5z" />
<glyph unicode="&#x415;" horiz-adv-x="1069" d="M123 0v1434h850v-250h-570v-334h519v-250h-519v-350h580v-250h-860z" />
<glyph unicode="&#x416;" horiz-adv-x="1718" d="M-14 0l374 629l111 80l-106 75l-351 650h326l297 -613h80v613h266v-637l72 28l297 609h315l-334 -629l-96 -70l117 -86l377 -649h-338l-330 623h-80v-623h-266v647l-74 -29l-330 -618h-327z" />
<glyph unicode="&#x417;" horiz-adv-x="1077" d="M37 47l72 244q47 -23 135 -46.5t209 -23.5q45 0 91 11.5t83 37t59.5 66.5t22.5 98q0 96 -72 145.5t-256 53.5q-25 2 -37 2h-43h-55v219h49h45t54.5 1t54 4t43.5 7q72 16 123 58.5t51 113.5q0 98 -62.5 134t-165.5 36q-92 0 -172 -24.5t-121 -46.5l-71 237 q23 12 64.5 26.5t96 28t118 21.5t128.5 8q90 0 176 -16.5t154 -57.5t109 -109.5t41 -174.5t-56.5 -196.5t-181.5 -131.5v-10q133 -27 208 -115t75 -235q0 -117 -47.5 -200t-124 -136t-177 -79t-204.5 -26q-135 0 -246 22.5t-170 53.5z" />
<glyph unicode="&#x418;" horiz-adv-x="1363" d="M123 0v1434h280v-781l-20 -192h12l101 198l534 775h209v-1434h-281v795l17 186h-10l-97 -193l-534 -788h-211z" />
<glyph unicode="&#x419;" horiz-adv-x="1363" d="M123 0v1434h280v-781l-20 -192h12l101 198l534 775h209v-1434h-281v795l17 186h-10l-97 -193l-534 -788h-211zM305 1749l254 41q8 -66 48 -94.5t103 -28.5q137 0 152 121l227 -35q-23 -129 -118 -188.5t-263 -59.5q-84 0 -153.5 12.5t-121.5 40t-86 74.5t-42 117z" />
<glyph unicode="&#x41a;" horiz-adv-x="1269" d="M123 0v1434h280v-635l66 28l395 607h320l-418 -603l-111 -77l115 -80l477 -674h-346l-424 612h-74v-612h-280z" />
<glyph unicode="&#x41b;" horiz-adv-x="1275" d="M-27 14l31 242q12 -4 24.5 -6t24.5 -2q33 0 65 16.5t54 54.5q31 45 53.5 132.5t40 222.5t27.5 322.5t14 437.5h846v-1434h-281v1184h-305q-8 -195 -18 -354.5t-27.5 -287.5t-46.5 -226.5t-74 -170.5q-29 -47 -64.5 -77.5t-74.5 -49t-77 -25.5t-70 -7q-47 0 -79 7t-63 21z " />
<glyph unicode="&#x41c;" horiz-adv-x="1638" d="M123 0v1434h256l383 -656l67 -164h9l61 168l363 652h254v-1434h-281v743l31 285h-13l-88 -229l-305 -535h-90l-321 537l-91 227h-10l41 -283v-745h-266z" />
<glyph unicode="&#x41d;" horiz-adv-x="1333" d="M123 0v1434h280v-584h525v584h280v-1434h-280v600h-525v-600h-280z" />
<glyph unicode="&#x41e;" horiz-adv-x="1372" d="M78 717q0 358 157.5 551.5t450.5 193.5q154 0 268.5 -53t190.5 -151.5t112.5 -235.5t36.5 -305q0 -358 -158.5 -552t-449.5 -194q-156 0 -270.5 53.5t-189 151.5t-111.5 235.5t-37 305.5zM373 717q0 -109 18.5 -200t56 -156.5t97 -102.5t141.5 -37q150 0 231.5 117 t81.5 379q0 104 -17 194t-54 158t-96.5 105.5t-145.5 37.5q-150 0 -231.5 -119.5t-81.5 -375.5z" />
<glyph unicode="&#x41f;" horiz-adv-x="1308" d="M123 0v1434h1063v-1434h-281v1184h-502v-1184h-280z" />
<glyph unicode="&#x420;" horiz-adv-x="1171" d="M123 0v1419q86 16 189.5 25.5t205.5 9.5q106 0 214 -17.5t194 -69.5t140 -145.5t54 -242.5q0 -135 -47 -228.5t-125 -152.5t-177 -86t-206 -27h-32.5t-47 1t-48 3.5t-34.5 4.5v-494h-280zM403 737q8 -2 24.5 -4t35 -3t36 -1h25.5q55 0 109.5 10.5t97.5 38t68.5 76.5 t25.5 129q0 68 -24.5 112t-64.5 70.5t-91 36.5t-104 10q-41 0 -78 -3t-60 -7v-465z" />
<glyph unicode="&#x421;" horiz-adv-x="1144" d="M78 717q0 211 58.5 353t151.5 229t207.5 125t229.5 38q123 0 208 -16t140 -39l-55 -238q-47 23 -111.5 33t-156.5 10q-170 0 -273.5 -120.5t-103.5 -374.5q0 -111 24.5 -202t74.5 -155.5t125 -100.5t173 -36q92 0 155.5 18.5t110.5 47.5l58 -230q-66 -47 -167.5 -67.5 t-207.5 -20.5q-129 0 -245 40t-204 129t-140 231.5t-52 345.5z" />
<glyph unicode="&#x422;" horiz-adv-x="1163" d="M23 1184v250h1118v-250h-418v-1184h-281v1184h-419z" />
<glyph unicode="&#x423;" horiz-adv-x="1163" d="M-18 1434h329l291 -633l41 -187h12l33 193l215 627h289l-381 -992q-45 -117 -87 -202.5t-90 -142t-107.5 -84t-139.5 -27.5q-68 0 -109.5 9t-91.5 40l72 227q35 -18 63.5 -22t61.5 -4q96 0 135 151z" />
<glyph unicode="&#x424;" horiz-adv-x="1642" d="M53 717q0 139 36 248.5t102.5 186.5t158.5 118t205 41q27 0 65.5 -2t63.5 -9v175h274v-181q39 10 89.5 13.5t80.5 3.5q100 0 184.5 -36t147 -108.5t97 -180t32.5 -249.5q2 -145 -37 -255.5t-106.5 -185.5t-156.5 -113t-191 -38q-33 0 -71 3.5t-69 11.5v-201h-274v197 q-39 -6 -80 -8.5t-88 -2.5q-98 0 -182 34t-146.5 104.5t-98.5 178t-36 255.5zM334 719q0 -166 69.5 -256t184.5 -90q16 0 50 1t56 9v694q-20 4 -46.5 5t-49.5 1q-113 0 -188.5 -87t-75.5 -277zM948 377q18 -4 44 -4t48 -2q57 2 106.5 22.5t86.5 65.5t57.5 112.5t18.5 163.5 q2 164 -63.5 256t-182.5 94q-20 -2 -55 -4t-60 -8v-696z" />
<glyph unicode="&#x425;" horiz-adv-x="1296" d="M20 0l441 729l-400 705h338l222 -414l49 -146l47 146l231 414h305l-413 -691l434 -743h-334l-252 442l-55 152l-53 -152l-254 -442h-306z" />
<glyph unicode="&#x426;" horiz-adv-x="1396" d="M123 0v1434h280v-1184h494v1184h281v-1184h184v-506h-199l-30 256h-1010z" />
<glyph unicode="&#x427;" horiz-adv-x="1241" d="M94 891v543h281v-455q0 -123 48 -183.5t159 -60.5q78 0 146.5 17.5t109.5 52.5v629h280v-1434h-280v578q-53 -31 -142.5 -56.5t-212.5 -25.5q-86 0 -156.5 21.5t-122.5 69.5t-81 122.5t-29 181.5z" />
<glyph unicode="&#x428;" horiz-adv-x="1763" d="M123 0v1434h280v-1184h338v1184h281v-1184h338v1184h280v-1434h-1517z" />
<glyph unicode="&#x429;" horiz-adv-x="1865" d="M123 0v1434h280v-1184h338v1184h281v-1184h338v1184h280v-1184h189v-506h-197l-30 256h-1479z" />
<glyph unicode="&#x42a;" horiz-adv-x="1359" d="M-8 1184v250h606v-514q10 2 33.5 5t51.5 5t57.5 4t54.5 2q100 0 193 -20.5t166 -72.5t116 -141.5t43 -226.5q0 -246 -151.5 -370.5t-438.5 -124.5q-29 0 -78 1t-105.5 5t-114.5 10t-108 18v1170h-325zM598 242q23 -6 60.5 -9.5t78.5 -3.5q57 0 108.5 11.5t90.5 39 t60.5 72.5t21.5 111q0 70 -23.5 114t-61.5 68.5t-89 32.5t-107 8q-14 0 -34.5 -2l-41 -4t-38 -5t-25.5 -5v-428z" />
<glyph unicode="&#x42b;" horiz-adv-x="1634" d="M123 14v1420h280v-514q23 4 72 10t96 6q102 0 195.5 -20.5t163 -72.5t110.5 -141.5t41 -224.5q0 -250 -145 -373.5t-432 -123.5q-29 0 -74 1t-97 5t-107.5 10t-102.5 18zM403 242q23 -6 54.5 -9.5t66.5 -3.5q117 0 189.5 54.5t72.5 181.5q0 68 -20.5 110.5t-55 67.5 t-81.5 34t-103 9q-29 0 -67.5 -5t-55.5 -11v-428zM1229 0v1434h280v-1434h-280z" />
<glyph unicode="&#x42c;" horiz-adv-x="1165" d="M123 14v1420h280v-514q10 2 34 5t51.5 5t56 4t53.5 2q100 0 194.5 -20.5t167 -72.5t115.5 -141.5t43 -226.5q0 -246 -152.5 -370.5t-437.5 -124.5q-29 0 -77 1t-105 5t-115.5 10t-107.5 18zM403 242q23 -6 61 -9.5t79 -3.5q57 0 108 11.5t90 39t60.5 72.5t21.5 111 q0 70 -23.5 114t-61.5 68.5t-89 32.5t-106 8q-14 0 -35 -2t-41.5 -4t-37.5 -5t-26 -5v-428z" />
<glyph unicode="&#x42d;" horiz-adv-x="1175" d="M41 39l74 244q47 -23 127 -42.5t184 -19.5q80 0 147.5 22.5t119.5 70.5t85 122t41 178h-553v226h551q-6 82 -33.5 150.5t-74.5 117.5t-117 76.5t-158 27.5q-111 0 -192.5 -23.5t-132.5 -51.5l-60 237q72 37 180.5 62.5t214.5 25.5q141 0 261 -39t207 -128t136.5 -231 t49.5 -347q0 -213 -57.5 -356.5t-153.5 -229.5t-221 -123t-260 -37q-117 0 -212.5 20.5t-152.5 47.5z" />
<glyph unicode="&#x42e;" horiz-adv-x="1837" d="M123 0v1434h280v-584h191q27 293 172 452.5t408 159.5q156 0 266 -53t181 -151.5t104.5 -235.5t33.5 -305q0 -358 -147.5 -552t-437.5 -194q-135 0 -239 45t-175.5 127t-112.5 199t-53 258h-191v-600h-280zM881 717q0 -109 15 -200t49 -156.5t90.5 -102.5t138.5 -37 q150 0 220 117t70 379q0 104 -13 194t-46 158t-89 105.5t-142 37.5q-147 0 -220 -119.5t-73 -375.5z" />
<glyph unicode="&#x42f;" horiz-adv-x="1187" d="M10 0l295 477l123 88q-66 16 -123 50t-100 87.5t-67.5 126t-24.5 164.5q0 129 45 217t124.5 142.5t190.5 78t240 23.5q35 0 80 -2t93 -6t94 -10t83 -17v-1419h-281v567l-147 -39l-299 -528h-326zM408 981q0 -63 20.5 -107.5t57 -72t86 -39.5t106.5 -12h104v444 q-23 4 -46 7t-58 3q-55 0 -104.5 -10t-86 -34.5t-58 -67.5t-21.5 -111z" />
<glyph unicode="&#x430;" horiz-adv-x="1015" d="M47 283q0 94 42 158.5t121 104.5t188.5 55t244.5 9q14 115 -16.5 165t-137.5 50q-80 0 -169 -16t-146 -43l-63 199q82 37 194.5 58t235.5 21q106 0 178 -25.5t113.5 -72.5t59 -112.5t17.5 -147.5q0 -90 -6 -181t-7 -179t5 -171t31 -157h-217l-43 141h-10 q-41 -63 -114 -109t-188 -46q-72 0 -129 21.5t-98 61t-63.5 94t-22.5 122.5zM322 324q0 -57 34 -89t93 -32q80 0 127 35.5t69 76.5v134q-63 6 -121.5 1.5t-103.5 -18.5t-71.5 -40.5t-26.5 -67.5z" />
<glyph unicode="&#x431;" horiz-adv-x="1099" d="M68 621q0 176 20.5 301t58 211t90 137t117 80.5t138 42t155.5 20.5q106 10 182 25.5t113 50.5l10 -238q-41 -35 -116.5 -48t-204.5 -23q-78 -4 -137.5 -18.5t-102.5 -51.5t-68.5 -103.5t-37.5 -175.5h6q59 90 140 130t196 40q186 0 295.5 -113.5t109.5 -352.5 q0 -276 -125 -420t-352 -144q-238 0 -362.5 158t-124.5 492zM342 500q0 -131 51 -217t158 -86q111 0 159 77.5t48 225.5q0 133 -45 204.5t-150 71.5q-113 0 -167 -73.5t-54 -202.5z" />
<glyph unicode="&#x432;" horiz-adv-x="1034" d="M117 2v1020q72 6 173 12t218 6q225 0 320.5 -64.5t95.5 -193.5q0 -72 -41 -139.5t-129 -97.5v-8q111 -25 160 -87.5t49 -160.5q0 -154 -118 -229.5t-378 -75.5q-86 0 -182.5 5t-167.5 13zM377 205q29 -4 53.5 -6t61.5 -2q111 0 157.5 30.5t46.5 94.5q0 53 -40 86.5 t-142 33.5h-137v-237zM377 606h141q66 0 108 32t42 81q0 53 -36 80.5t-130 27.5q-47 0 -75 -2t-50 -4v-215z" />
<glyph unicode="&#x433;" horiz-adv-x="770" d="M117 0v1024h661v-236h-387v-788h-274z" />
<glyph unicode="&#x434;" horiz-adv-x="1163" d="M-4 -233v469h121q16 23 41.5 77t51.5 148t44 233.5t18 329.5h713v-788h150v-469h-195l-31 233h-688l-31 -233h-194zM383 223h336v576h-215q-4 -74 -14.5 -157t-25.5 -161t-35.5 -145.5t-45.5 -112.5z" />
<glyph unicode="&#x435;" horiz-adv-x="1040" d="M68 512q0 270 129 405.5t362 135.5q78 0 151.5 -20.5t131 -67.5t92.5 -127t35 -199q0 -43 -5.5 -92t-15.5 -103h-614q6 -129 66.5 -194.5t195.5 -65.5q84 0 150.5 26t101.5 52l88 -174q-61 -49 -166.5 -83t-224.5 -34q-248 0 -362.5 144.5t-114.5 396.5zM340 610h381 q8 111 -34 170.5t-132 59.5q-104 0 -154.5 -62.5t-60.5 -167.5z" />
<glyph unicode="&#x436;" horiz-adv-x="1419" d="M-12 0l268 469l70 61l-105 78l-211 416h285l190 -416h88v416h254v-436l78 28l193 408h282l-223 -416l-80 -65l105 -82l248 -461h-306l-209 424h-88v-424h-254v444l-77 -28l-209 -416h-299z" />
<glyph unicode="&#x437;" horiz-adv-x="884" d="M45 55l57 207q47 -27 114 -43t149 -16q186 0 186 119q0 53 -48 77.5t-179 24.5h-101v186h125q72 0 118 29t46 76q0 55 -41 78.5t-125 23.5q-80 0 -141.5 -20.5t-98.5 -42.5l-57 202q61 35 162.5 60.5t216.5 25.5q176 0 263 -65.5t87 -190.5q0 -35 -9 -70.5t-29.5 -68.5 t-50.5 -58.5t-71 -39.5v-8q109 -25 154 -87.5t45 -166.5q0 -66 -26.5 -122t-81 -97t-136 -66t-194.5 -25t-196 24t-138 54z" />
<glyph unicode="&#x438;" horiz-adv-x="1116" d="M117 0v1024h266v-487l-12 -140h8l84 146l368 481h168v-1024h-266v467l10 145h-6l-88 -149l-364 -463h-168z" />
<glyph unicode="&#x439;" horiz-adv-x="1116" d="M117 0v1024h266v-487l-12 -140h8l84 146l368 481h168v-1024h-266v467l10 145h-6l-88 -149l-364 -463h-168zM223 1389l225 53q14 -80 48 -113t87 -33q57 0 91 33t47 111l202 -51q-25 -133 -121 -198t-225 -65q-63 0 -122.5 14.5t-106.5 46.5t-80 81t-45 121z" />
<glyph unicode="&#x43a;" horiz-adv-x="1001" d="M117 0v1024h266v-436l63 28l240 408h285l-248 -389l-105 -78l115 -80l277 -477h-305l-250 424h-72v-424h-266z" />
<glyph unicode="&#x43b;" horiz-adv-x="1054" d="M-35 18l33 222q33 -12 61 -13q41 0 72 35t52.5 125t34.5 244.5t20 392.5h702v-1024h-266v788h-203q-12 -145 -28.5 -288.5t-52.5 -257t-97.5 -184t-159.5 -70.5q-119 0 -168 30z" />
<glyph unicode="&#x43c;" horiz-adv-x="1363" d="M117 0v1024h276l236 -385l57 -129h8l60 133l217 381h278v-1024h-256v469l17 213h-11l-81 -176l-193 -318h-96l-211 318l-78 176h-12l26 -211v-471h-237z" />
<glyph unicode="&#x43d;" horiz-adv-x="1099" d="M117 0v1024h266v-385h334v385h266v-1024h-266v403h-334v-403h-266z" />
<glyph unicode="&#x43e;" horiz-adv-x="1099" d="M68 512q0 260 127 400.5t356 140.5q123 0 213 -39t149.5 -109.5t89 -171t29.5 -221.5q0 -260 -126 -400.5t-355 -140.5q-123 0 -213 39t-150.5 109.5t-90 171t-29.5 221.5zM342 512q0 -68 12.5 -125t37 -100t64.5 -66.5t95 -23.5q104 0 155.5 75.5t51.5 239.5 q0 141 -47 228t-160 87q-98 0 -153.5 -73.5t-55.5 -241.5z" />
<glyph unicode="&#x43f;" horiz-adv-x="1089" d="M117 0v1024h856v-1024h-266v788h-324v-788h-266z" />
<glyph unicode="&#x440;" horiz-adv-x="1105" d="M117 -410v1434h194l31 -123h8q53 78 126 115t177 37q193 0 289 -122t96 -392q0 -131 -30.5 -236.5t-91 -179.5t-147.5 -113t-200 -39q-63 0 -104 9.5t-82 29.5v-420h-266zM383 246q29 -23 62.5 -36t89.5 -13q115 0 172 80.5t57 267.5q0 135 -45.5 208.5t-145.5 73.5 q-78 0 -121.5 -38.5t-68.5 -116.5v-426z" />
<glyph unicode="&#x441;" horiz-adv-x="886" d="M68 512q0 260 116.5 400.5t339.5 140.5q113 0 181.5 -18.5t123.5 -47.5l-63 -217q-47 23 -93 35t-106 12q-111 0 -168 -72.5t-57 -232.5q0 -66 14.5 -121t43 -96t74.5 -64.5t108 -23.5q68 0 114.5 17.5t83.5 41.5l62 -203q-61 -45 -148.5 -68.5t-179.5 -23.5 q-123 0 -208 39t-138 109.5t-76.5 171t-23.5 221.5z" />
<glyph unicode="&#x442;" horiz-adv-x="856" d="M2 788v236h852v-236h-289v-788h-274v788h-289z" />
<glyph unicode="&#x443;" horiz-adv-x="978" d="M-18 1024h319l188 -575l37 -160h13l26 162l156 573h274l-311 -924q-39 -115 -75 -210t-79 -164.5t-95 -107.5t-124 -38q-106 0 -170 35l49 213q31 -12 62 -12q47 0 91 40t67 144z" />
<glyph unicode="&#x444;" horiz-adv-x="1433" d="M57 512q0 262 111 397t319 135q57 0 99 -8v398h262v-400q37 6 65.5 8t55.5 2q203 0 305 -119.5t102 -392.5q0 -129 -27.5 -232t-81 -177t-130 -113t-176.5 -39q-18 0 -54.5 3t-58.5 12v-396h-262v398q-35 -12 -73 -14.5t-69 -2.5q-186 0 -286.5 133.5t-100.5 407.5z M324 512q0 -160 46 -245t144 -85q23 0 42 3t42 8v632q-39 8 -80 9q-94 0 -144 -73t-50 -249zM836 188q16 -4 37.5 -5t46.5 -1q98 0 144 81t46 269q0 160 -45 231t-156 71q-20 0 -35.5 -3.5t-37.5 -7.5v-635z" />
<glyph unicode="&#x445;" horiz-adv-x="1075" d="M16 0l332 524l-307 500h317l134 -219l57 -143l61 143l140 219h288l-309 -492l330 -532h-309l-158 246l-62 151l-65 -151l-158 -246h-291z" />
<glyph unicode="&#x446;" horiz-adv-x="1144" d="M117 0v1024h266v-788h317v788h267v-788h149v-469h-194l-31 233h-774z" />
<glyph unicode="&#x447;" horiz-adv-x="1034" d="M68 676v348h266v-233q0 -63 5 -109.5t20.5 -76.5t43 -44t72.5 -14q59 0 103.5 14t72.5 35v428h267v-1024h-267v401q-31 -23 -94 -50t-170 -27q-76 0 -135 16t-100 57t-62.5 108.5t-21.5 170.5z" />
<glyph unicode="&#x448;" horiz-adv-x="1544" d="M117 0v1024h266v-788h256v788h266v-788h256v788h266v-1024h-1310z" />
<glyph unicode="&#x449;" horiz-adv-x="1603" d="M117 0v1024h266v-788h256v788h266v-788h256v788h266v-788h148v-469h-193l-30 233h-1235z" />
<glyph unicode="&#x44a;" horiz-adv-x="1103" d="M-10 788v236h491v-365q49 8 100.5 11.5t92.5 3.5q106 0 180 -23.5t120 -66.5t66.5 -101.5t20.5 -126.5q0 -186 -111.5 -278t-374.5 -92q-117 0 -202.5 4t-157.5 10v788h-225zM481 223q57 -12 117 -12q98 0 143 34t45 105q0 133 -182 133q-72 0 -123 -14v-246z" />
<glyph unicode="&#x44b;" horiz-adv-x="1439" d="M117 0v1024h266v-365q49 8 99 11.5t91 3.5q104 0 174 -23.5t113 -66.5t61.5 -101.5t18.5 -126.5q0 -92 -24.5 -161.5t-80 -115.5t-143.5 -69.5t-217 -23.5q-117 0 -202 4t-156 10zM383 223q61 -12 117 -12q92 0 129 34t37 105q0 66 -37 99.5t-123 33.5q-68 0 -123 -14 v-246zM1057 0v1024h266v-1024h-266z" />
<glyph unicode="&#x44c;" horiz-adv-x="1003" d="M117 0v1024h266v-365q49 8 99 11.5t91 3.5q106 0 180 -23.5t120.5 -66.5t67 -101.5t20.5 -126.5q0 -186 -111 -278t-375 -92q-117 0 -202 4t-156 10zM383 223q61 -12 117 -12q98 0 142 34t44 105q0 133 -180 133q-68 0 -123 -14v-246z" />
<glyph unicode="&#x44d;" horiz-adv-x="940" d="M47 45l66 209q47 -27 111.5 -42t129.5 -15q131 0 186.5 55t65.5 172h-383v190h381q-10 102 -67.5 157.5t-169.5 55.5q-78 0 -137.5 -18t-104.5 -43l-72 192q135 94 365 95q229 0 341.5 -136.5t112.5 -404.5q0 -270 -127 -405.5t-348 -135.5q-96 0 -194.5 19.5 t-155.5 54.5z" />
<glyph unicode="&#x44e;" horiz-adv-x="1503" d="M117 0v1024h266v-385h158q20 199 125.5 306.5t320.5 107.5q117 0 201 -39t139 -109.5t81 -171t26 -221.5q0 -260 -111 -400.5t-340 -140.5q-115 0 -195.5 31t-133 88t-80 139t-35.5 185h-156v-414h-266zM793 512q0 -150 42 -232.5t148 -82.5q94 0 135 69.5t41 245.5 q0 158 -39 236.5t-143 78.5q-94 0 -139 -71.5t-45 -243.5z" />
<glyph unicode="&#x44f;" horiz-adv-x="1030" d="M20 0l199 322l100 75q-100 16 -165.5 95t-65.5 198q0 186 124 274.5t380 88.5q98 0 183 -10.5t149 -22.5v-1020h-267v387l-122 -25l-197 -362h-318zM362 672q0 -78 56.5 -115t165.5 -35l73 4v283q-23 10 -49 14t-51 4q-92 0 -143.5 -38.5t-51.5 -116.5z" />
<glyph unicode="&#x451;" horiz-adv-x="1040" d="M68 512q0 270 129 405.5t362 135.5q78 0 151.5 -20.5t131 -67.5t92.5 -127t35 -199q0 -43 -5.5 -92t-15.5 -103h-614q6 -129 66.5 -194.5t195.5 -65.5q84 0 150.5 26t101.5 52l88 -174q-61 -49 -166.5 -83t-224.5 -34q-248 0 -362.5 144.5t-114.5 396.5zM174 1294 q0 66 40 105t105 39q66 0 104 -39t38 -105q0 -61 -38 -100t-104 -39t-105.5 39t-39.5 100zM340 610h381q8 111 -34 170.5t-132 59.5q-104 0 -154.5 -62.5t-60.5 -167.5zM622 1294q0 66 38 105t104 39t105.5 -39t39.5 -105q0 -61 -40 -100t-105 -39q-66 0 -104 39t-38 100z " />
<glyph unicode="&#x452;" horiz-adv-x="1126" d="M-25 1065v164h152v205h266v-205h330v-164h-330v-266h8q47 66 121 104.5t185 38.5q78 0 137 -20.5t98 -67.5t58.5 -128t19.5 -200v-569q0 -186 -74 -284.5t-235 -98.5q-61 0 -131 14v224q8 0 15 -1t15 -1q88 0 116 50t28 140v471q0 125 -34 180.5t-126 55.5 q-68 0 -126 -45.5t-75 -116.5v-545h-266v1065h-152z" />
<glyph unicode="&#x453;" horiz-adv-x="770" d="M117 0v1024h661v-236h-387v-788h-274zM336 1159l108 316h271v-62l-228 -254h-151z" />
<glyph unicode="&#x454;" horiz-adv-x="935" d="M76 512q0 129 34.5 229.5t98 170t154 105.5t200.5 36q111 0 184.5 -18.5t129.5 -47.5l-62 -217q-47 23 -99 35t-112 12q-96 0 -164.5 -49t-89.5 -160h402v-180h-404q18 -98 85 -159.5t185 -61.5q70 0 121.5 17.5t89.5 41.5l62 -203q-61 -45 -153.5 -68.5t-184.5 -23.5 q-123 0 -213 39t-148.5 109.5t-87 171t-28.5 221.5z" />
<glyph unicode="&#x455;" horiz-adv-x="864" d="M51 63l74 199q47 -27 125 -52.5t160 -25.5q59 0 95 23t36 76q0 41 -35 65.5t-86 45t-112.5 42t-113 59t-86 96t-34.5 150.5q0 152 90 232t260 80q117 0 211 -24.5t147 -55.5l-59 -193q-47 18 -119 39t-145 21q-119 0 -119 -92q0 -37 35 -59.5t86 -42t112.5 -42 t112.5 -58.5t86 -93.5t35 -147.5q0 -156 -99.5 -245t-297.5 -89q-109 0 -204 28t-155 64z" />
<glyph unicode="&#x456;" horiz-adv-x="550" d="M107 1313q0 59 44 101t122 42t126 -42t48 -101t-48 -99t-126 -40t-122 40t-44 99zM139 0v1024h267v-1024h-267z" />
<glyph unicode="&#x457;" horiz-adv-x="651" d="M43 1315q0 63 31.5 103t97.5 40t97.5 -40t31.5 -103q0 -61 -31.5 -101t-97.5 -40t-97.5 40t-31.5 101zM190 0v1024h267v-1024h-267zM352 1315q0 63 32 103t97 40q66 0 97.5 -40t31.5 -103q0 -61 -31.5 -101t-97.5 -40t-97.5 40t-31.5 101z" />
<glyph unicode="&#x458;" horiz-adv-x="548" d="M-33 -188q8 0 14.5 -1t12.5 -1q92 0 119.5 59t27.5 164v991h267v-1067q0 -186 -74 -284.5t-236 -98.5q-61 0 -131 14v224zM105 1313q0 59 44 101t122 42t126 -42t48 -101t-48 -99t-126 -40t-122 40t-44 99z" />
<glyph unicode="&#x459;" horiz-adv-x="1560" d="M-35 18l33 222q33 -12 61 -13q41 0 72 35t52.5 125t34.5 244.5t20 392.5h702v-365q49 8 99.5 11.5t90.5 3.5q106 0 180 -23.5t120.5 -66.5t67 -101.5t20.5 -126.5q0 -186 -111 -278t-375 -92q-117 0 -202 4t-156 10v788h-203q-12 -145 -28.5 -288.5t-52.5 -257 t-97.5 -184t-159.5 -70.5q-119 0 -168 30zM940 221q29 -6 58.5 -8t58.5 -2q98 0 142 34t44 105q0 133 -180 133q-72 0 -123 -14v-248z" />
<glyph unicode="&#x45a;" horiz-adv-x="1605" d="M117 0v1024h266v-381h334v381h266v-367q49 8 100.5 11.5t92.5 3.5q106 0 180 -23.5t120 -66.5t66.5 -100.5t20.5 -125.5q0 -186 -112 -278t-374 -92q-117 0 -203 4t-157 10v408h-334v-408h-266zM983 223q57 -12 117 -12q98 0 143 34t45 105q0 131 -182 131 q-72 0 -123 -14v-244z" />
<glyph unicode="&#x45b;" horiz-adv-x="1126" d="M-25 1065v164h152v205h266v-205h330v-164h-330v-266h8q47 66 121 104.5t185 38.5q78 0 137 -20.5t98 -67.5t58.5 -128t19.5 -200v-526h-266v471q0 125 -34 180.5t-126 55.5q-68 0 -126 -45.5t-75 -116.5v-545h-266v1065h-152z" />
<glyph unicode="&#x45c;" horiz-adv-x="1001" d="M117 0v1024h266v-436l63 28l240 408h285l-248 -389l-105 -78l115 -80l277 -477h-305l-250 424h-72v-424h-266zM391 1159l108 316h271v-62l-228 -254h-151z" />
<glyph unicode="&#x45e;" horiz-adv-x="978" d="M-18 1024h319l188 -575l37 -160h13l26 162l156 573h274l-311 -924q-39 -115 -75 -210t-79 -164.5t-95 -107.5t-124 -38q-106 0 -170 35l49 213q31 -12 62 -12q47 0 91 40t67 144zM154 1389l225 53q14 -80 48 -113t87 -33q57 0 91 33t47 111l202 -51q-25 -133 -121 -198 t-225 -65q-63 0 -122.5 14.5t-106.5 46.5t-80 81t-45 121z" />
<glyph unicode="&#x45f;" horiz-adv-x="1089" d="M117 0v1024h266v-788h324v788h266v-1024h-303l-31 -358h-180l-41 358h-301z" />
<glyph unicode="&#x462;" horiz-adv-x="1333" d="M0 1092v235h291v158h280v-158h410v-235h-410v-185q10 2 34 5t51.5 5.5t56 4.5t53.5 2q100 0 194.5 -19.5t167 -71t115.5 -137.5t43 -221q0 -246 -152.5 -370.5t-437.5 -124.5q-29 0 -77 1t-105 5t-115.5 10t-107.5 18v1078h-291zM571 242q23 -6 61 -9.5t79 -3.5 q57 0 108 11.5t90 39t60.5 72.5t21.5 111q0 70 -23.5 114t-61.5 68.5t-89 32.5t-106 8q-14 0 -35 -2t-41.5 -4t-37.5 -5t-26 -5v-428z" />
<glyph unicode="&#x463;" horiz-adv-x="1103" d="M-10 834v190h225v410h266v-410h328v-190h-328v-175q49 8 100.5 11.5t92.5 3.5q106 0 180 -23.5t120 -66.5t66.5 -101.5t20.5 -126.5q0 -186 -111.5 -278t-374.5 -92q-117 0 -202.5 4t-157.5 10v834h-225zM481 223q57 -12 117 -12q98 0 143 34t45 105q0 133 -182 133 q-72 0 -123 -14v-246z" />
<glyph unicode="&#x472;" horiz-adv-x="1372" d="M78 717q0 358 157.5 551.5t450.5 193.5q154 0 268.5 -53t190.5 -151.5t112.5 -235.5t36.5 -305q0 -358 -158.5 -552t-449.5 -194q-156 0 -270.5 53.5t-189 151.5t-111.5 235.5t-37 305.5zM373 608q16 -195 100 -291t213 -96q59 0 113.5 19.5t96.5 63.5t69.5 118t33.5 186 h-626zM373 834h626q-16 182 -98 280t-215 98q-59 0 -112.5 -20.5t-95.5 -65.5t-69.5 -117.5t-35.5 -174.5z" />
<glyph unicode="&#x473;" horiz-adv-x="1099" d="M68 512q0 260 127 400.5t356 140.5q123 0 213 -39t149.5 -109.5t89 -171t29.5 -221.5q0 -260 -126 -400.5t-355 -140.5q-123 0 -213 39t-150.5 109.5t-90 171t-29.5 221.5zM342 424q12 -111 69.5 -169t139.5 -58q78 0 136 50t71 177h-416zM342 592h416q-16 123 -68.5 179 t-138.5 56q-39 0 -74 -12t-62.5 -39.5t-47 -73t-25.5 -110.5z" />
<glyph unicode="&#x474;" horiz-adv-x="1288" d="M-27 1434h326l287 -842l37 -244h8l33 246l141 469q33 111 67.5 185.5t78.5 119.5t99.5 64.5t129.5 19.5q78 0 127 -12.5t92 -34.5l-62 -238q-35 18 -64.5 24.5t-62.5 6.5q-47 0 -77.5 -36t-57.5 -118l-364 -1054h-201z" />
<glyph unicode="&#x475;" horiz-adv-x="1079" d="M-14 1024h309l190 -537l35 -157h8l31 162l47 145q35 111 67 188.5t69.5 125.5t86 69.5t115.5 21.5q49 0 94 -9t74 -25l-37 -217q-37 18 -69 18q-35 0 -67 -28.5t-65 -106.5l-282 -684h-162z" />
<glyph unicode="&#x48a;" horiz-adv-x="1458" d="M123 0v1434h280v-781l-20 -192h12l101 198l534 775h209v-1198h240v-64l-197 -438h-192l92 266h-224v795l17 186h-10l-97 -193l-534 -788h-211zM279 1749l253 41q8 -66 48.5 -94.5t103.5 -28.5q137 0 152 121l227 -35q-23 -129 -118 -188.5t-263 -59.5q-84 0 -153.5 12.5 t-122 40t-86 74.5t-41.5 117z" />
<glyph unicode="&#x48b;" horiz-adv-x="1208" d="M117 0v1024h266v-487l-12 -140h8l84 146l368 481h168v-788h220v-64l-197 -405h-193l93 233h-189v467l10 145h-6l-88 -149l-364 -463h-168zM223 1389l226 53q14 -80 47.5 -113t87.5 -33q57 0 91 33t46 111l203 -51q-25 -133 -121 -198t-225 -65q-63 0 -123 14.5t-107 46.5 t-79.5 81t-45.5 121z" />
<glyph unicode="&#x48c;" horiz-adv-x="1333" d="M0 1092v235h291v158h280v-158h410v-235h-410v-185q10 2 34 5t51.5 5.5t56 4.5t53.5 2q100 0 194.5 -19.5t167 -71t115.5 -137.5t43 -221q0 -246 -152.5 -370.5t-437.5 -124.5q-29 0 -77 1t-105 5t-115.5 10t-107.5 18v1078h-291zM571 242q23 -6 61 -9.5t79 -3.5 q57 0 108 11.5t90 39t60.5 72.5t21.5 111q0 70 -23.5 114t-61.5 68.5t-89 32.5t-106 8q-14 0 -35 -2t-41.5 -4t-37.5 -5t-26 -5v-428z" />
<glyph unicode="&#x48d;" horiz-adv-x="1103" d="M-10 834v190h225v410h266v-410h328v-190h-328v-175q49 8 100.5 11.5t92.5 3.5q106 0 180 -23.5t120 -66.5t66.5 -101.5t20.5 -126.5q0 -186 -111.5 -278t-374.5 -92q-117 0 -202.5 4t-157.5 10v834h-225zM481 223q57 -12 117 -12q98 0 143 34t45 105q0 133 -182 133 q-72 0 -123 -14v-246z" />
<glyph unicode="&#x48e;" horiz-adv-x="1171" d="M123 0v1419q86 16 189.5 25.5t205.5 9.5q106 0 214 -17.5t194 -69.5t140 -145.5t54 -242.5q0 -141 -51 -237.5t-137 -155.5l131 -187l-162 -118l-158 223q-86 -18 -178 -19h-32.5t-47 1t-48 3.5t-34.5 4.5v-494h-280zM403 737q8 -2 24.5 -4t35 -3t36 -1h25.5q29 0 55.5 2 t53.5 8l-119 170l107 70l129 -188q35 29 55 74.5t20 117.5q0 68 -24.5 112t-64.5 70.5t-91 36.5t-104 10q-41 0 -78 -3t-60 -7v-465z" />
<glyph unicode="&#x48f;" horiz-adv-x="1105" d="M117 -410v1434h194l31 -123h8q53 78 126 115t177 37q193 0 289 -122t96 -392q0 -291 -143 -441l96 -114l-149 -125l-113 137q-37 -10 -77 -17.5t-83 -7.5q-63 0 -104 9.5t-82 29.5v-420h-266zM383 246q29 -23 62.5 -36t89.5 -13q20 0 39.5 2t35.5 8l-96 117l88 71 l98 -123q31 43 47.5 110t16.5 163q0 135 -45 208.5t-146 73.5q-78 0 -121.5 -38.5t-68.5 -116.5v-426z" />
<glyph unicode="&#x490;" horiz-adv-x="937" d="M123 0v1434h610l43 311h180v-311h2l-2 -250h-553v-1184h-280z" />
<glyph unicode="&#x491;" horiz-adv-x="770" d="M117 0v1024h440l43 311h178v-547h-387v-788h-274z" />
<glyph unicode="&#x492;" horiz-adv-x="1040" d="M0 602v191h197v641h833v-250h-553v-391h459v-191h-459v-602h-280v602h-197z" />
<glyph unicode="&#x493;" horiz-adv-x="847" d="M0 397v164h170v463h661v-236h-387v-227h332v-164h-332v-397h-274v397h-170z" />
<glyph unicode="&#x494;" horiz-adv-x="1191" d="M123 0v1434h833v-250h-553v-416q33 12 101.5 28.5t167.5 16.5q86 0 166 -23.5t142 -82t100 -160t38 -256.5q0 -264 -116.5 -407.5t-376.5 -143.5q-55 0 -83 2t-44 6v242q14 -4 48 -5t66 -1q104 0 157.5 71.5t53.5 223.5q0 84 -18.5 139t-51 87t-77.5 45t-96 13 q-49 0 -100.5 -12t-76.5 -25v-526h-280z" />
<glyph unicode="&#x495;" horiz-adv-x="1093" d="M117 0v1024h651v-236h-385v-258q33 12 94.5 27.5t159.5 15.5q78 0 148.5 -22.5t124 -77.5t84 -149.5t30.5 -237.5q0 -129 -23.5 -227.5t-79 -164t-144.5 -98t-218 -32.5q-57 0 -85 3t-44 7v229q16 -2 50 -3t67 -1q201 0 201 271q0 145 -54.5 206.5t-146.5 61.5 q-47 0 -93 -12.5t-71 -24.5v-301h-266z" />
<glyph unicode="&#x496;" horiz-adv-x="1755" d="M-14 0l374 629l111 80l-106 75l-351 650h326l297 -613h80v613h266v-637l72 28l297 609h315l-334 -629l-96 -70l117 -86l231 -399h160v-506h-197l-30 256h-125l-330 623h-80v-623h-266v647l-74 -29l-330 -618h-327z" />
<glyph unicode="&#x497;" horiz-adv-x="1488" d="M-12 0l268 469l70 61l-105 78l-211 416h285l190 -416h88v416h254v-436l78 28l193 408h282l-223 -416l-80 -65l105 -82l121 -225h172v-469h-195l-31 233h-125l-209 424h-88v-424h-254v444l-77 -28l-209 -416h-299z" />
<glyph unicode="&#x498;" horiz-adv-x="1077" d="M37 47l72 244q47 -23 135 -46.5t209 -23.5q45 0 91 11.5t83 37t59.5 66.5t22.5 98q0 96 -72 145.5t-256 53.5q-25 2 -37 2h-43h-55v219h49h45t54.5 1t54 4t43.5 7q72 16 123 58.5t51 113.5q0 98 -62.5 134t-165.5 36q-92 0 -172 -24.5t-121 -46.5l-71 237 q23 12 64.5 26.5t96 28t118 21.5t128.5 8q90 0 176 -16.5t154 -57.5t109 -109.5t41 -174.5t-56.5 -196.5t-181.5 -131.5v-10q133 -27 208 -115t75 -235q0 -100 -36 -175t-95.5 -128.5t-138.5 -85t-167 -43.5l-28 -338h-181l-38 335q-92 10 -166 29t-119 41z" />
<glyph unicode="&#x499;" horiz-adv-x="884" d="M45 55l57 207q47 -27 115 -44t150 -17q184 0 184 118q0 53 -48 79t-179 26h-101v186h125q72 0 118 30t46 77q0 55 -40 77.5t-124 22.5q-80 0 -142.5 -21.5t-99.5 -43.5l-57 204q61 35 162.5 60.5t216.5 25.5q176 0 263 -65.5t87 -190.5q0 -35 -9 -70.5t-29.5 -68.5 t-50.5 -58.5t-71 -39.5v-8q109 -25 154 -87.5t45 -166.5t-69.5 -185.5t-217.5 -109.5l-28 -350h-180l-39 342q-78 8 -136.5 27.5t-101.5 43.5z" />
<glyph unicode="&#x49a;" horiz-adv-x="1300" d="M123 0v1434h280v-635l66 28l395 607h320l-418 -603l-111 -77l115 -80l299 -424h217v-506h-196l-31 256h-158l-424 612h-74v-612h-280z" />
<glyph unicode="&#x49b;" horiz-adv-x="1079" d="M117 0v1024h266v-436l63 28l240 408h285l-248 -389l-105 -78l115 -80l139 -241h191v-469h-195l-30 233h-133l-250 424h-72v-424h-266z" />
<glyph unicode="&#x49c;" horiz-adv-x="1466" d="M123 0v1434h280v-635l111 8v272h191v-256l45 4l331 607h303l-350 -603l-110 -77l114 -80l406 -674h-326l-360 612h-53v-260h-191v260h-111v-612h-280z" />
<glyph unicode="&#x49d;" horiz-adv-x="1202" d="M117 0v1024h266v-436l86 8v246h156v-230l45 4l188 408h279l-197 -389l-109 -78l115 -80l225 -477h-294l-199 424h-53v-242h-156v242h-86v-424h-266z" />
<glyph unicode="&#x49e;" horiz-adv-x="1417" d="M0 1104v213h270v117h281v-117h190v-191h-190v-327l111 28l362 607h307l-385 -603l-131 -77l125 -80l455 -674h-346l-402 612h-96v-612h-281v1104h-270z" />
<glyph unicode="&#x49f;" horiz-adv-x="1028" d="M-29 1118v164h168v152h267v-152h313v-164h-313v-530l61 28l233 408h293l-245 -389l-105 -78l113 -80l276 -477h-305l-250 424h-71v-424h-267v1118h-168z" />
<glyph unicode="&#x4a0;" horiz-adv-x="1472" d="M0 1184v250h606v-635l66 28l395 607h319l-417 -603l-111 -77l115 -80l477 -674h-346l-424 612h-74v-612h-280v1149v35h-326z" />
<glyph unicode="&#x4a1;" horiz-adv-x="1105" d="M-10 788v236h491v-436l66 28l237 408h287l-248 -389l-106 -78l117 -80l274 -477h-305l-248 424h-74v-424h-266v788h-225z" />
<glyph unicode="&#x4a2;" horiz-adv-x="1425" d="M123 0v1434h280v-584h525v584h280v-1184h181v-506h-197l-31 256h-233v600h-525v-600h-280z" />
<glyph unicode="&#x4a3;" d="M117 0v1024h266v-385h334v385h266v-788h160v-469h-195l-30 233h-201v403h-334v-403h-266z" />
<glyph unicode="&#x4a4;" horiz-adv-x="1742" d="M123 0v1434h280v-584h525v584h833v-250h-553v-1184h-280v600h-525v-600h-280z" />
<glyph unicode="&#x4a5;" horiz-adv-x="1359" d="M117 0v1024h266v-385h334v385h651v-236h-385v-788h-266v403h-334v-403h-266z" />
<glyph unicode="&#x4a6;" horiz-adv-x="1970" d="M123 0v1434h1063v-666q33 12 101.5 28.5t166.5 16.5q86 0 166 -23.5t142.5 -82t100.5 -160t38 -256.5q0 -264 -117 -407.5t-377 -143.5q-55 0 -83 2t-44 6v242q14 -4 48 -5t67 -1q104 0 157.5 71.5t53.5 223.5q0 84 -18.5 139t-51.5 87t-78 45t-98 13q-47 0 -98.5 -12 t-75.5 -25v-59v-467h-281v1184h-502v-1184h-280z" />
<glyph unicode="&#x4a7;" horiz-adv-x="1683" d="M117 0v1024h856v-494q33 12 94 27.5t160 15.5q74 0 143.5 -22.5t123.5 -77.5t87 -149.5t33 -237.5q0 -129 -24.5 -227.5t-79 -164t-143.5 -98t-218 -32.5q-57 0 -85 3t-44 7v229q16 -2 50 -3t67 -1q201 0 200 271q0 145 -54 206.5t-146 61.5q-47 0 -94.5 -12.5 t-71.5 -24.5l2 -301h-266v788h-324v-788h-266z" />
<glyph unicode="&#x4a8;" horiz-adv-x="1794" d="M78 717q0 358 165 551.5t484 193.5v-250q-164 0 -259 -118.5t-95 -360.5q0 -119 35.5 -214t93 -160.5t130.5 -101.5t146 -36q23 0 48.5 2t41.5 10q-47 31 -89 81.5t-72.5 118t-48 148.5t-17.5 171q0 156 38 274.5t106.5 200.5t165 124t214.5 42q129 0 224.5 -44t157 -122 t91 -183.5t29.5 -228.5q0 -115 -26.5 -212t-68.5 -173t-93.5 -128t-98.5 -77q10 -2 23.5 -3t26.5 -1q61 0 116.5 17.5t93.5 44.5l86 -220q-45 -45 -115.5 -68.5t-180.5 -23.5q-41 0 -84 6.5t-85 18.5t-78 30.5t-63 43.5q-68 -47 -150.5 -73t-193.5 -26q-166 0 -295 51.5 t-219 147.5t-137 234.5t-47 312.5zM936 760q0 -61 13.5 -126t41 -124t66.5 -109.5t92 -87.5q47 33 88 83t70.5 112.5t47 137.5t17.5 157q0 70 -10 132t-34.5 108.5t-64.5 73t-100 26.5q-104 0 -165.5 -94t-61.5 -289z" />
<glyph unicode="&#x4a9;" horiz-adv-x="1452" d="M66 512q0 119 26.5 215t86 167t152.5 112t226 47v-226q-115 -8 -166 -80.5t-51 -226.5q0 -74 20.5 -133t55.5 -102t84 -65.5t106 -22.5q16 0 41 4t39 14q-55 41 -96 129t-41 205q0 80 20.5 164t68.5 152.5t128 113.5t197 45q113 0 189.5 -35t122.5 -93t66.5 -135 t20.5 -163q0 -70 -18.5 -133.5t-47 -116.5t-65.5 -93t-74 -62q45 -18 102.5 -7t96.5 47l61 -182q-41 -37 -99 -58.5t-149 -21.5q-84 0 -147.5 23.5t-106.5 62.5q-66 -47 -148.5 -66.5t-172.5 -19.5q-127 0 -225.5 39t-166 109.5t-102 171t-34.5 221.5zM807 549 q0 -92 36 -166t97 -123q66 43 106.5 128t40.5 196q0 92 -33.5 153.5t-99.5 61.5q-45 0 -73.5 -20.5t-45 -54.5t-22.5 -79t-6 -96z" />
<glyph unicode="&#x4aa;" horiz-adv-x="1144" d="M78 717q0 211 58.5 353t151.5 229t207.5 125t229.5 38q123 0 208 -16t140 -39l-55 -238q-47 23 -111.5 33t-156.5 10q-170 0 -273.5 -120.5t-103.5 -374.5q0 -111 24.5 -202t74.5 -155.5t125 -100.5t173 -36q92 0 155.5 18.5t110.5 47.5l58 -230q-49 -35 -120 -54 t-149 -28l-28 -335h-181l-38 344q-104 18 -195.5 69t-159 140.5t-106.5 218.5t-39 303z" />
<glyph unicode="&#x4ab;" horiz-adv-x="886" d="M68 512q0 260 116.5 400.5t339.5 140.5q113 0 181.5 -18.5t123.5 -47.5l-63 -217q-47 23 -93 35t-106 12q-111 0 -168 -72.5t-57 -232.5q0 -66 14.5 -121t43 -96t74.5 -64.5t108 -23.5q68 0 114.5 17.5t83.5 41.5l62 -203q-78 -55 -193 -77l-28 -344h-181l-39 340 q-92 16 -155.5 61t-103.5 113.5t-57 159t-17 196.5z" />
<glyph unicode="&#x4ac;" horiz-adv-x="1163" d="M23 1184v250h1118v-250h-418v-934h178v-506h-196l-31 256h-232v1184h-419z" />
<glyph unicode="&#x4ad;" horiz-adv-x="856" d="M2 788v236h852v-236h-289v-552h172v-469h-194l-31 233h-221v788h-289z" />
<glyph unicode="&#x4ae;" horiz-adv-x="1212" d="M-4 1434h334l262 -539l29 -152h10l31 156l253 535h302l-469 -899v-535h-281v532z" />
<glyph unicode="&#x4af;" horiz-adv-x="1005" d="M-14 1024h309l190 -608l37 -191h8l29 195l174 604h287l-371 -1026v-408h-266v408z" />
<glyph unicode="&#x4b0;" horiz-adv-x="1212" d="M-4 1434h334l262 -539l29 -152h10l31 156l253 535h302l-435 -832h283v-186h-317v-416h-281v416h-317v186h280z" />
<glyph unicode="&#x4b1;" horiz-adv-x="1005" d="M-14 1024h309l190 -608l37 -191h8l29 195l174 604h287l-371 -1024h246v-164h-246v-246h-266v246h-246v164h244z" />
<glyph unicode="&#x4b2;" horiz-adv-x="1366" d="M20 0l441 729l-400 705h338l222 -414l49 -146l47 146l231 414h305l-413 -691l286 -493h226v-506h-197l-31 256h-184l-252 442l-55 152l-53 -152l-254 -442h-306z" />
<glyph unicode="&#x4b3;" horiz-adv-x="1110" d="M16 0l332 524l-307 500h317l134 -219l57 -143l61 143l140 219h288l-309 -492l184 -296h183v-469h-195l-31 233h-120l-158 246l-62 151l-65 -151l-158 -246h-291z" />
<glyph unicode="&#x4b4;" horiz-adv-x="1716" d="M23 1184v250h989v-250h-291v-934h493v1184h281v-1184h184v-506h-198l-31 256h-1010v1184h-417z" />
<glyph unicode="&#x4b5;" horiz-adv-x="1325" d="M2 788v236h770v-236h-215v-552h320v788h266v-788h149v-469h-194l-31 233h-776v788h-289z" />
<glyph unicode="&#x4b6;" horiz-adv-x="1333" d="M94 891v543h281v-455q0 -123 48 -183.5t159 -60.5q78 0 146.5 17.5t109.5 52.5v629h280v-1184h178v-506h-196l-31 256h-231v578q-53 -31 -142.5 -56.5t-212.5 -25.5q-86 0 -156.5 21.5t-122.5 69.5t-81 122.5t-29 181.5z" />
<glyph unicode="&#x4b7;" horiz-adv-x="1118" d="M68 676v348h266v-233q0 -63 5 -109.5t20.5 -76.5t43 -44t72.5 -14q59 0 103.5 14t72.5 35v428h267v-788h172v-469h-195l-31 233h-213v401q-31 -23 -94 -50t-170 -27q-76 0 -135 16t-100 57t-62.5 108.5t-21.5 170.5z" />
<glyph unicode="&#x4b8;" horiz-adv-x="1320" d="M94 891v543h281v-455q0 -117 42 -176.5t140 -67.5v242h191v-229q51 10 95 23t72 34v629h281v-1434h-281v578q-55 -33 -167 -58v-270h-191v248q-16 -2 -30.5 -2h-30.5q-90 0 -164 21.5t-127 69.5t-82 122.5t-29 181.5z" />
<glyph unicode="&#x4b9;" horiz-adv-x="1097" d="M66 676v348h266v-233q0 -115 24.5 -173.5t100.5 -68.5v242h155v-232q70 12 105 37v428h266v-1024h-266v401q-31 -23 -105 -45v-235h-155v205q-18 -2 -36 -2h-36q-76 0 -135.5 16t-100 57t-62 108.5t-21.5 170.5z" />
<glyph unicode="&#x4ba;" horiz-adv-x="1241" d="M123 0v1434h280v-578q53 31 142.5 56.5t212.5 25.5q86 0 156.5 -21.5t123 -69.5t81 -123t28.5 -181v-543h-281v455q0 123 -48 183t-159 60q-78 0 -146.5 -17t-109.5 -52v-629h-280z" />
<glyph unicode="&#x4bb;" horiz-adv-x="1116" d="M117 0v1434h266v-525h8q49 66 121 105t182 39q78 0 137.5 -20.5t99.5 -67.5t59.5 -128t19.5 -200v-637h-267v582q0 125 -34.5 180t-126.5 55q-68 0 -124.5 -46t-74.5 -118v-653h-266z" />
<glyph unicode="&#x4bc;" horiz-adv-x="1626" d="M0 911q4 100 49 156h236q-25 -29 -34 -63.5t-7 -63.5q0 -16 6 -36.5t24.5 -37t53 -27t94.5 -3.5q8 141 50 256.5t113.5 197.5t176 127t239.5 45q274 0 410.5 -156.5t136.5 -455.5q0 -57 -5 -118.5t-15 -131.5h-826q6 -82 32 -151.5t73 -121t117.5 -79t167.5 -27.5 q92 0 168.5 27.5t144.5 73.5l72 -238q-92 -53 -201 -83t-236 -30q-281 0 -441.5 160t-176.5 469h-66q-102 2 -169.5 27.5t-109.5 68.5t-59.5 99.5t-17.5 115.5zM702 836h572q6 39 6 79q0 63 -15.5 120t-49 100t-85 68.5t-120.5 25.5q-150 0 -225.5 -101.5t-82.5 -291.5z" />
<glyph unicode="&#x4bd;" horiz-adv-x="1325" d="M12 705v14q2 55 16.5 88t43.5 67h223q-29 -25 -45.5 -58.5t-16.5 -82.5q0 -41 26 -69.5t101 -28.5q29 209 154 313.5t330 104.5q78 0 151.5 -20.5t131 -67.5t92 -127t34.5 -199q0 -43 -5 -92t-15 -103h-612q6 -129 65 -194.5t195 -65.5q84 0 150.5 26t101.5 52l88 -174 q-61 -49 -167 -83t-225 -34q-225 0 -340.5 121t-134.5 334h-14q-158 0 -243 71.5t-85 207.5zM629 610h377q0 8 1 16.5t1 16.5q0 94 -42 145.5t-126 51.5q-104 0 -152.5 -62.5t-58.5 -167.5z" />
<glyph unicode="&#x4be;" horiz-adv-x="1626" d="M0 911q4 100 49 156h236q-25 -29 -34 -63.5t-7 -63.5q0 -16 6 -36.5t24.5 -37t53 -27t94.5 -3.5q8 141 50 256.5t113.5 197.5t176 127t239.5 45q274 0 410.5 -156.5t136.5 -455.5q0 -57 -5 -118.5t-15 -131.5h-826q6 -82 32 -151.5t73 -121t117.5 -79t167.5 -27.5 q92 0 168.5 27.5t144.5 73.5l72 -238q-76 -43 -160 -69.5t-180 -37.5l-29 -335h-180l-39 344q-213 39 -334 193.5t-133 420.5h-66q-102 2 -169.5 27.5t-109.5 68.5t-59.5 99.5t-17.5 115.5zM702 836h572q6 39 6 79q0 63 -15.5 120t-49 100t-85 68.5t-120.5 25.5 q-150 0 -225.5 -101.5t-82.5 -291.5z" />
<glyph unicode="&#x4bf;" horiz-adv-x="1325" d="M12 705v14q2 55 16.5 88t43.5 67h223q-29 -25 -45.5 -58.5t-16.5 -82.5q0 -41 26 -69.5t101 -28.5q29 209 154 313.5t330 104.5q78 0 151.5 -20.5t131 -67.5t92 -127t34.5 -199q0 -43 -5 -92t-15 -103h-612q6 -129 65 -194.5t195 -65.5q84 0 150.5 26t101.5 52l88 -174 q-47 -37 -116 -64.5t-153 -41.5l-28 -340h-181l-38 342q-164 31 -249 145.5t-102 296.5h-14q-158 0 -243 71.5t-85 207.5zM629 610h377q0 8 1 16.5t1 16.5q0 94 -42 145.5t-126 51.5q-104 0 -152.5 -62.5t-58.5 -167.5z" />
<glyph unicode="&#x4c0;" horiz-adv-x="583" d="M152 0v1434h280v-1434h-280z" />
<glyph unicode="&#x4c3;" horiz-adv-x="1251" d="M123 0v1434h280v-635l66 28l395 607h320l-404 -574l-125 -82h107q98 -25 168.5 -69.5t116 -114.5t67 -169t21.5 -232v-56q0 -287 -116 -424t-312 -137q-59 0 -123 12v228h30q129 0 191.5 80t62.5 260q0 100 -20.5 185t-67.5 144.5t-121.5 93t-181.5 33.5h-74v-612h-280z " />
<glyph unicode="&#x4c4;" horiz-adv-x="1026" d="M117 0v1024h266v-444l63 28l240 416h285l-250 -403l-94 -66l84 -4q80 -23 128 -70t74.5 -109.5t35.5 -135t9 -144.5v-35q0 -252 -95 -368.5t-269 -116.5q-31 0 -64.5 3t-68.5 11v226q12 -2 24.5 -3.5t22.5 -1.5q184 0 184 248q0 178 -57 263t-180 96h-72v-414h-266z" />
<glyph unicode="&#x4c5;" horiz-adv-x="1333" d="M-27 14l31 242q12 -4 24.5 -6t24.5 -2q33 0 65 16.5t54 54.5q31 45 53.5 132.5t40 222.5t27.5 322.5t14 437.5h846v-1198h201v-64l-197 -438h-192l92 266h-185v1184h-305q-8 -195 -18 -354.5t-27.5 -287.5t-46.5 -226.5t-74 -170.5q-29 -47 -64.5 -77.5t-74.5 -49 t-77 -25.5t-70 -7q-47 0 -79 7t-63 21z" />
<glyph unicode="&#x4c6;" horiz-adv-x="1126" d="M-35 18l33 222q33 -12 61 -13q41 0 72 35t52.5 125t34.5 244.5t20 392.5h702v-788h195v-64l-197 -405h-193l93 233h-164v788h-203q-12 -145 -28.5 -288.5t-52.5 -257t-97.5 -184t-159.5 -70.5q-119 0 -168 30z" />
<glyph unicode="&#x4c7;" horiz-adv-x="1333" d="M123 0v1434h280v-584h525v584h280v-1477q0 -186 -73.5 -284.5t-233.5 -98.5q-29 0 -62.5 3t-68.5 11v224q8 0 15.5 -1t15.5 -1q43 0 68.5 12t39 36.5t16.5 60.5t3 81v600h-525v-600h-280z" />
<glyph unicode="&#x4c8;" horiz-adv-x="1099" d="M117 0v1024h266v-385h334v385h266v-1067q0 -186 -73.5 -284.5t-235.5 -98.5q-61 0 -131 14v224q8 0 15 -1t15 -1q88 0 116 50t28 140v403h-334v-403h-266z" />
<glyph unicode="&#x4c9;" horiz-adv-x="1398" d="M123 0v1434h280v-584h525v584h280v-1198h211v-64l-196 -438h-193l92 266h-194v600h-525v-600h-280z" />
<glyph unicode="&#x4ca;" horiz-adv-x="1179" d="M117 0v1024h266v-385h334v385h266v-788h207v-64l-197 -405h-192l92 233h-176v403h-334v-403h-266z" />
<glyph unicode="&#x4cb;" horiz-adv-x="1241" d="M94 891v543h281v-455q0 -123 48 -183.5t159 -60.5q78 0 146.5 17.5t109.5 52.5v629h280v-1434h-229l-31 -256h-196v506h176v328q-53 -31 -142.5 -56.5t-212.5 -25.5q-86 0 -156.5 21.5t-122.5 69.5t-81 122.5t-29 181.5z" />
<glyph unicode="&#x4cc;" horiz-adv-x="1034" d="M68 698v326h266v-211q0 -57 5 -100t20.5 -73t43 -44t72.5 -14q59 0 103.5 14t72.5 35v393h267v-1024h-246l-31 -233h-195v434h205v223q-31 -23 -94 -45.5t-170 -22.5q-152 0 -235.5 79t-83.5 263z" />
<glyph unicode="&#x4cd;" horiz-adv-x="1732" d="M123 0v1434h256l383 -656l67 -164h9l61 168l363 652h254v-1198h237v-64l-197 -438h-192l92 266h-221v743l31 285h-13l-88 -229l-305 -535h-90l-321 537l-91 227h-10l41 -283v-745h-266z" />
<glyph unicode="&#x4ce;" horiz-adv-x="1454" d="M117 0v1024h276l236 -385l57 -129h8l60 133l217 381h278v-788h215v-64l-196 -405h-193l92 233h-174v469l17 213h-11l-81 -176l-193 -318h-96l-211 318l-78 176h-12l26 -211v-471h-237z" />
<glyph unicode="&#x4cf;" horiz-adv-x="536" d="M135 0v1434h266v-1434h-266z" />
<glyph unicode="&#x4d0;" horiz-adv-x="1239" d="M0 0l516 1444h207l516 -1444h-295l-115 317h-440l-108 -317h-281zM215 1749l254 41q8 -66 48 -94.5t103 -28.5q137 0 152 121l227 -35q-23 -129 -118 -188.5t-263 -59.5q-84 0 -153.5 12.5t-121.5 40t-86 74.5t-42 117zM461 543h307l-106 319l-44 225h-10l-43 -227z" />
<glyph unicode="&#x4d1;" horiz-adv-x="1015" d="M47 283q0 94 42 158.5t121 104.5t188.5 55t244.5 9q14 115 -16.5 165t-137.5 50q-80 0 -169 -16t-146 -43l-63 199q82 37 194.5 58t235.5 21q106 0 178 -25.5t113.5 -72.5t59 -112.5t17.5 -147.5q0 -90 -6 -181t-7 -179t5 -171t31 -157h-217l-43 141h-10 q-41 -63 -114 -109t-188 -46q-72 0 -129 21.5t-98 61t-63.5 94t-22.5 122.5zM158 1389l225 53q14 -80 48 -113t87 -33q57 0 91 33t47 111l202 -51q-25 -133 -121 -198t-225 -65q-63 0 -122.5 14.5t-106.5 46.5t-80 81t-45 121zM322 324q0 -57 34 -89t93 -32q80 0 127 35.5 t69 76.5v134q-63 6 -121.5 1.5t-103.5 -18.5t-71.5 -40.5t-26.5 -67.5z" />
<glyph unicode="&#x4d2;" horiz-adv-x="1239" d="M0 0l516 1444h207l516 -1444h-295l-115 317h-440l-108 -317h-281zM244 1634q0 53 37 86t119 33q80 0 116.5 -32.5t36.5 -86.5q0 -53 -37 -84.5t-116 -31.5q-82 0 -119 31.5t-37 84.5zM461 543h307l-106 319l-44 225h-10l-43 -227zM682 1634q0 53 37 86t117 33 q82 0 118.5 -32.5t36.5 -86.5q0 -53 -36.5 -84.5t-118.5 -31.5q-80 0 -117 31.5t-37 84.5z" />
<glyph unicode="&#x4d3;" horiz-adv-x="1015" d="M47 283q0 94 42 158.5t121 104.5t188.5 55t244.5 9q14 115 -16.5 165t-137.5 50q-80 0 -169 -16t-146 -43l-63 199q82 37 194.5 58t235.5 21q106 0 178 -25.5t113.5 -72.5t59 -112.5t17.5 -147.5q0 -90 -6 -181t-7 -179t5 -171t31 -157h-217l-43 141h-10 q-41 -63 -114 -109t-188 -46q-72 0 -129 21.5t-98 61t-63.5 94t-22.5 122.5zM137 1294q0 66 40 105t105 39q66 0 104 -39t38 -105q0 -61 -38 -100t-104 -39t-105.5 39t-39.5 100zM322 324q0 -57 34 -89t93 -32q80 0 127 35.5t69 76.5v134q-63 6 -121.5 1.5t-103.5 -18.5 t-71.5 -40.5t-26.5 -67.5zM585 1294q0 66 38 105t104 39t105.5 -39t39.5 -105q0 -61 -40 -100t-105 -39q-66 0 -104 39t-38 100z" />
<glyph unicode="&#x4d4;" horiz-adv-x="1765" d="M-59 0l868 1434h858v-250h-567v-334h516v-250h-516v-350h577v-250h-858v348h-381l-202 -348h-295zM561 575h258v515h-12l-74 -211z" />
<glyph unicode="&#x4d5;" horiz-adv-x="1607" d="M47 283q0 94 42 158.5t120 104.5t187.5 55t244.5 9q14 115 -15.5 165t-136.5 50q-80 0 -162.5 -21.5t-146.5 -51.5l-69 192q78 41 192.5 70.5t237.5 29.5q106 0 169.5 -27.5t104.5 -82.5q51 57 133 88t178 31q78 0 152 -20.5t131 -67.5t92 -127t35 -199q0 -43 -5 -91 t-15 -104h-617q8 -129 68.5 -194.5t195.5 -65.5q84 0 150.5 26t101.5 52l88 -174q-61 -49 -166.5 -83t-224.5 -34q-131 0 -230.5 48.5t-154.5 136.5h-10q-55 -70 -136 -121t-221 -51q-72 0 -129 21.5t-98 61t-63.5 94t-22.5 122.5zM322 324q0 -57 34 -89t93 -32 q80 0 127 35.5t69 76.5v134q-63 6 -121.5 1.5t-103.5 -18.5t-71.5 -40.5t-26.5 -67.5zM907 610h383q6 111 -35 170.5t-133 59.5q-104 0 -154 -62.5t-61 -167.5z" />
<glyph unicode="&#x4d6;" horiz-adv-x="1069" d="M123 0v1434h850v-250h-570v-334h519v-250h-519v-350h580v-250h-860zM152 1749l254 41q8 -66 48 -94.5t103 -28.5q137 0 152 121l227 -35q-23 -129 -118 -188.5t-263 -59.5q-84 0 -153.5 12.5t-121.5 40t-86 74.5t-42 117z" />
<glyph unicode="&#x4d7;" horiz-adv-x="1040" d="M68 512q0 270 129 405.5t362 135.5q78 0 151.5 -20.5t131 -67.5t92.5 -127t35 -199q0 -43 -5.5 -92t-15.5 -103h-614q6 -129 66.5 -194.5t195.5 -65.5q84 0 150.5 26t101.5 52l88 -174q-61 -49 -166.5 -83t-224.5 -34q-248 0 -362.5 144.5t-114.5 396.5zM182 1389l225 53 q14 -80 48 -113t87 -33q57 0 91 33t47 111l202 -51q-25 -133 -121 -198t-225 -65q-63 0 -122.5 14.5t-106.5 46.5t-80 81t-45 121zM340 610h381q8 111 -34 170.5t-132 59.5q-104 0 -154.5 -62.5t-60.5 -167.5z" />
<glyph unicode="&#x4d8;" horiz-adv-x="1290" d="M76 594q0 57 5 117.5t15 126.5h836q-12 178 -100.5 276t-272.5 98q-106 0 -188 -31.5t-129 -60.5l-60 240q31 18 77 36.5t102.5 33t119 23.5t125.5 9q141 0 254 -42t191.5 -133t119.5 -232.5t41 -337.5q0 -174 -33.5 -312.5t-106.5 -234.5t-184.5 -147.5t-266.5 -51.5 q-139 0 -242 45t-170.5 127t-100 197t-32.5 254zM371 528q0 -63 15 -121.5t47 -103.5t81 -72.5t119 -27.5q143 0 220 102.5t77 300.5h-553q-6 -41 -6 -78z" />
<glyph unicode="&#x4d9;" horiz-adv-x="1040" d="M70 412q0 86 20 186h621q-10 127 -70.5 184.5t-196.5 57.5q-84 0 -148.5 -30t-98.5 -54l-95 180q61 49 167 83t225 34q123 0 213 -39t148 -109.5t87 -171t29 -221.5q0 -260 -127 -400.5t-346 -140.5q-80 0 -157 22.5t-137.5 74t-97 136.5t-36.5 208zM317 432 q-10 -111 38.5 -179.5t140.5 -68.5q102 0 154 71t55 177h-388z" />
<glyph unicode="&#x4da;" horiz-adv-x="1290" d="M76 594q0 57 5 117.5t15 126.5h836q-12 178 -100.5 276t-272.5 98q-106 0 -188 -31.5t-129 -60.5l-60 240q31 18 77 36.5t102.5 33t119 23.5t125.5 9q141 0 254 -42t191.5 -133t119.5 -232.5t41 -337.5q0 -174 -33.5 -312.5t-106.5 -234.5t-184.5 -147.5t-266.5 -51.5 q-139 0 -242 45t-170.5 127t-100 197t-32.5 254zM260 1634q0 53 37 86t119 33q80 0 116.5 -32.5t36.5 -86.5q0 -53 -37 -84.5t-116 -31.5q-82 0 -119 31.5t-37 84.5zM371 528q0 -63 15 -121.5t47 -103.5t81 -72.5t119 -27.5q143 0 220 102.5t77 300.5h-553q-6 -41 -6 -78z M698 1634q0 53 37 86t117 33q82 0 118.5 -32.5t36.5 -86.5q0 -53 -36.5 -84.5t-118.5 -31.5q-80 0 -117 31.5t-37 84.5z" />
<glyph unicode="&#x4db;" horiz-adv-x="1040" d="M68 412q0 86 20 186h621q-10 127 -70.5 184.5t-196.5 57.5q-84 0 -148.5 -30t-98.5 -54l-95 180q61 49 167 83t225 34q123 0 213 -39t148 -109.5t87 -171t29 -221.5q0 -260 -127 -400.5t-346 -140.5q-80 0 -157 22.5t-137.5 74t-97 136.5t-36.5 208zM131 1294 q0 66 40 105t105 39q66 0 104 -39t38 -105q0 -61 -38 -100t-104 -39t-105.5 39t-39.5 100zM315 432q-10 -111 38.5 -179.5t140.5 -68.5q102 0 154 71t55 177h-388zM579 1294q0 66 38 105t104 39t105.5 -39t39.5 -105q0 -61 -40 -100t-105 -39q-66 0 -104 39t-38 100z" />
<glyph unicode="&#x4dc;" horiz-adv-x="1718" d="M-14 0l374 629l111 80l-106 75l-351 650h326l297 -613h80v613h266v-637l72 28l297 609h315l-334 -629l-96 -70l117 -86l377 -649h-338l-330 623h-80v-623h-266v647l-74 -29l-330 -618h-327zM481 1634q0 53 37 86t119 33q80 0 116.5 -32.5t36.5 -86.5q0 -53 -37 -84.5 t-116 -31.5q-82 0 -119 31.5t-37 84.5zM919 1634q0 53 37 86t117 33q82 0 118.5 -32.5t36.5 -86.5q0 -53 -36.5 -84.5t-118.5 -31.5q-80 0 -117 31.5t-37 84.5z" />
<glyph unicode="&#x4dd;" horiz-adv-x="1419" d="M-12 0l268 469l70 61l-105 78l-211 416h285l190 -416h88v416h254v-436l78 28l193 408h282l-223 -416l-80 -65l105 -82l248 -461h-306l-209 424h-88v-424h-254v444l-77 -28l-209 -416h-299zM338 1294q0 66 40 105t105 39q66 0 104 -39t38 -105q0 -61 -38 -100t-104 -39 t-105.5 39t-39.5 100zM786 1294q0 66 38 105t104 39t105.5 -39t39.5 -105q0 -61 -40 -100t-105 -39q-66 0 -104 39t-38 100z" />
<glyph unicode="&#x4de;" horiz-adv-x="1077" d="M37 47l72 244q47 -23 135 -46.5t209 -23.5q45 0 91 11.5t83 37t59.5 66.5t22.5 98q0 96 -72 145.5t-256 53.5q-25 2 -37 2h-43h-55v219h49h45t54.5 1t54 4t43.5 7q72 16 123 58.5t51 113.5q0 98 -62.5 134t-165.5 36q-92 0 -172 -24.5t-121 -46.5l-71 237 q23 12 64.5 26.5t96 28t118 21.5t128.5 8q90 0 176 -16.5t154 -57.5t109 -109.5t41 -174.5t-56.5 -196.5t-181.5 -131.5v-10q133 -27 208 -115t75 -235q0 -117 -47.5 -200t-124 -136t-177 -79t-204.5 -26q-135 0 -246 22.5t-170 53.5zM119 1634q0 53 37 86t119 33 q80 0 116.5 -32.5t36.5 -86.5q0 -53 -37 -84.5t-116 -31.5q-82 0 -119 31.5t-37 84.5zM557 1634q0 53 37 86t117 33q82 0 118.5 -32.5t36.5 -86.5q0 -53 -36.5 -84.5t-118.5 -31.5q-80 0 -117 31.5t-37 84.5z" />
<glyph unicode="&#x4df;" horiz-adv-x="884" d="M39 1294q0 66 40 105t105 39q66 0 104 -39t38 -105q0 -61 -38 -100t-104 -39t-105.5 39t-39.5 100zM45 55l57 207q47 -27 114 -43t149 -16q186 0 186 119q0 53 -48 77.5t-179 24.5h-101v186h125q72 0 118 29t46 76q0 55 -41 78.5t-125 23.5q-80 0 -141.5 -20.5 t-98.5 -42.5l-57 202q61 35 162.5 60.5t216.5 25.5q176 0 263 -65.5t87 -190.5q0 -35 -9 -70.5t-29.5 -68.5t-50.5 -58.5t-71 -39.5v-8q109 -25 154 -87.5t45 -166.5q0 -66 -26.5 -122t-81 -97t-136 -66t-194.5 -25t-196 24t-138 54zM487 1294q0 66 38 105t104 39t105.5 -39 t39.5 -105q0 -61 -40 -100t-105 -39q-66 0 -104 39t-38 100z" />
<glyph unicode="&#x4e0;" horiz-adv-x="1122" d="M70 51l65 246q29 -16 67 -29.5t81 -24t87 -16.5t85 -6q61 0 114.5 14.5t93 43t62.5 69.5t23 96q0 117 -90.5 164t-264.5 47h-166v119l320 356l92 89l-121 -25h-424v240h883v-154l-348 -385l-92 -66v-8l94 21q90 0 164.5 -25.5t128 -75t83 -124t29.5 -173.5 q0 -111 -40 -197.5t-113.5 -148t-177 -94.5t-232.5 -33q-45 0 -100.5 5.5t-110.5 14.5t-106.5 24.5t-85.5 35.5z" />
<glyph unicode="&#x4e1;" horiz-adv-x="991" d="M20 -348l95 211q55 -29 121.5 -50.5t154.5 -21.5q121 0 197 58.5t76 164.5q0 227 -328 228h-131v108l239 363l111 100l-149 -14h-351v225h811v-143l-284 -379l-82 -60v-4l63 6q70 0 136.5 -27.5t117.5 -78.5t82 -125t31 -166q0 -113 -40 -202t-112.5 -151.5t-175 -95 t-227.5 -32.5q-92 0 -184.5 20.5t-170.5 65.5z" />
<glyph unicode="&#x4e2;" horiz-adv-x="1363" d="M123 0v1434h280v-781l-20 -192h12l101 198l534 775h209v-1434h-281v795l17 186h-10l-97 -193l-534 -788h-211zM340 1571v182h702v-182h-702z" />
<glyph unicode="&#x4e3;" horiz-adv-x="1116" d="M117 0v1024h266v-487l-12 -140h8l84 146l368 481h168v-1024h-266v467l10 145h-6l-88 -149l-364 -463h-168zM234 1159v189h661v-189h-661z" />
<glyph unicode="&#x4e4;" horiz-adv-x="1363" d="M123 0v1434h280v-781l-20 -192h12l101 198l534 775h209v-1434h-281v795l17 186h-10l-97 -193l-534 -788h-211zM307 1634q0 53 37 86t119 33q80 0 116.5 -32.5t36.5 -86.5q0 -53 -37 -84.5t-116 -31.5q-82 0 -119 31.5t-37 84.5zM745 1634q0 53 37 86t117 33 q82 0 118.5 -32.5t36.5 -86.5q0 -53 -36.5 -84.5t-118.5 -31.5q-80 0 -117 31.5t-37 84.5z" />
<glyph unicode="&#x4e5;" horiz-adv-x="1116" d="M117 0v1024h266v-487l-12 -140h8l84 146l368 481h168v-1024h-266v467l10 145h-6l-88 -149l-364 -463h-168zM211 1294q0 66 40 105t105 39q66 0 104 -39t38 -105q0 -61 -38 -100t-104 -39t-105.5 39t-39.5 100zM659 1294q0 66 38 105t104 39t105.5 -39t39.5 -105 q0 -61 -40 -100t-105 -39q-66 0 -104 39t-38 100z" />
<glyph unicode="&#x4e6;" horiz-adv-x="1372" d="M78 717q0 358 157.5 551.5t450.5 193.5q154 0 268.5 -53t190.5 -151.5t112.5 -235.5t36.5 -305q0 -358 -158.5 -552t-449.5 -194q-156 0 -270.5 53.5t-189 151.5t-111.5 235.5t-37 305.5zM311 1634q0 53 37 86t119 33q80 0 116.5 -32.5t36.5 -86.5q0 -53 -37 -84.5 t-116 -31.5q-82 0 -119 31.5t-37 84.5zM373 717q0 -109 18.5 -200t56 -156.5t97 -102.5t141.5 -37q150 0 231.5 117t81.5 379q0 104 -17 194t-54 158t-96.5 105.5t-145.5 37.5q-150 0 -231.5 -119.5t-81.5 -375.5zM749 1634q0 53 37 86t117 33q82 0 118.5 -32.5t36.5 -86.5 q0 -53 -36.5 -84.5t-118.5 -31.5q-80 0 -117 31.5t-37 84.5z" />
<glyph unicode="&#x4e7;" horiz-adv-x="1099" d="M68 512q0 260 127 400.5t356 140.5q123 0 213 -39t149.5 -109.5t89 -171t29.5 -221.5q0 -260 -126 -400.5t-355 -140.5q-123 0 -213 39t-150.5 109.5t-90 171t-29.5 221.5zM180 1294q0 66 40 105t105 39q66 0 104 -39t38 -105q0 -61 -38 -100t-104 -39t-105.5 39 t-39.5 100zM342 512q0 -68 12.5 -125t37 -100t64.5 -66.5t95 -23.5q104 0 155.5 75.5t51.5 239.5q0 141 -47 228t-160 87q-98 0 -153.5 -73.5t-55.5 -241.5zM628 1294q0 66 38 105t104 39t105.5 -39t39.5 -105q0 -61 -40 -100t-105 -39q-66 0 -104 39t-38 100z" />
<glyph unicode="&#x4e8;" horiz-adv-x="1372" d="M78 717q0 358 157.5 551.5t450.5 193.5q154 0 268.5 -53t190.5 -151.5t112.5 -235.5t36.5 -305q0 -358 -158.5 -552t-449.5 -194q-156 0 -270.5 53.5t-189 151.5t-111.5 235.5t-37 305.5zM373 608q16 -195 100 -291t213 -96q59 0 113.5 19.5t96.5 63.5t69.5 118t33.5 186 h-626zM373 834h626q-16 182 -98 280t-215 98q-59 0 -112.5 -20.5t-95.5 -65.5t-69.5 -117.5t-35.5 -174.5z" />
<glyph unicode="&#x4e9;" horiz-adv-x="1099" d="M68 512q0 260 127 400.5t356 140.5q123 0 213 -39t149.5 -109.5t89 -171t29.5 -221.5q0 -260 -126 -400.5t-355 -140.5q-123 0 -213 39t-150.5 109.5t-90 171t-29.5 221.5zM342 424q12 -111 69.5 -169t139.5 -58q78 0 136 50t71 177h-416zM342 592h416q-16 123 -68.5 179 t-138.5 56q-39 0 -74 -12t-62.5 -39.5t-47 -73t-25.5 -110.5z" />
<glyph unicode="&#x4ea;" horiz-adv-x="1372" d="M78 717q0 358 157.5 551.5t450.5 193.5q154 0 268.5 -53t190.5 -151.5t112.5 -235.5t36.5 -305q0 -358 -158.5 -552t-449.5 -194q-156 0 -270.5 53.5t-189 151.5t-111.5 235.5t-37 305.5zM313 1634q0 53 37 86t119 33q80 0 116.5 -32.5t36.5 -86.5q0 -53 -37 -84.5 t-116 -31.5q-82 0 -119 31.5t-37 84.5zM373 608q16 -195 100 -291t213 -96q59 0 113.5 19.5t96.5 63.5t69.5 118t33.5 186h-626zM373 834h626q-16 182 -98 280t-215 98q-59 0 -112.5 -20.5t-95.5 -65.5t-69.5 -117.5t-35.5 -174.5zM751 1634q0 53 37 86t117 33 q82 0 118.5 -32.5t36.5 -86.5q0 -53 -36.5 -84.5t-118.5 -31.5q-80 0 -117 31.5t-37 84.5z" />
<glyph unicode="&#x4eb;" horiz-adv-x="1099" d="M68 512q0 260 127 400.5t356 140.5q123 0 213 -39t149.5 -109.5t89 -171t29.5 -221.5q0 -260 -126 -400.5t-355 -140.5q-123 0 -213 39t-150.5 109.5t-90 171t-29.5 221.5zM180 1294q0 66 40 105t105 39q66 0 104 -39t38 -105q0 -61 -38 -100t-104 -39t-105.5 39 t-39.5 100zM342 424q12 -111 69.5 -169t139.5 -58q78 0 136 50t71 177h-416zM342 592h416q-16 123 -68.5 179t-138.5 56q-39 0 -74 -12t-62.5 -39.5t-47 -73t-25.5 -110.5zM628 1294q0 66 38 105t104 39t105.5 -39t39.5 -105q0 -61 -40 -100t-105 -39q-66 0 -104 39t-38 100 z" />
<glyph unicode="&#x4ec;" horiz-adv-x="1175" d="M41 39l74 244q47 -23 127 -42.5t184 -19.5q80 0 147.5 22.5t119.5 70.5t85 122t41 178h-553v226h551q-6 82 -33.5 150.5t-74.5 117.5t-117 76.5t-158 27.5q-111 0 -192.5 -23.5t-132.5 -51.5l-60 237q72 37 180.5 62.5t214.5 25.5q141 0 261 -39t207 -128t136.5 -231 t49.5 -347q0 -213 -57.5 -356.5t-153.5 -229.5t-221 -123t-260 -37q-117 0 -212.5 20.5t-152.5 47.5zM98 1634q0 53 37 86t119 33q80 0 116.5 -32.5t36.5 -86.5q0 -53 -37 -84.5t-116 -31.5q-82 0 -119 31.5t-37 84.5zM536 1634q0 53 37 86t117 33q82 0 118.5 -32.5 t36.5 -86.5q0 -53 -36.5 -84.5t-118.5 -31.5q-80 0 -117 31.5t-37 84.5z" />
<glyph unicode="&#x4ed;" horiz-adv-x="940" d="M47 45l66 209q47 -27 111.5 -42t129.5 -15q131 0 186.5 55t65.5 172h-383v190h381q-10 102 -67.5 157.5t-169.5 55.5q-78 0 -137.5 -18t-104.5 -43l-72 192q135 94 365 95q229 0 341.5 -136.5t112.5 -404.5q0 -270 -127 -405.5t-348 -135.5q-96 0 -194.5 19.5 t-155.5 54.5zM49 1294q0 66 40 105t105 39q66 0 104 -39t38 -105q0 -61 -38 -100t-104 -39t-105.5 39t-39.5 100zM497 1294q0 66 38 105t104 39t105.5 -39t39.5 -105q0 -61 -40 -100t-105 -39q-66 0 -104 39t-38 100z" />
<glyph unicode="&#x4ee;" horiz-adv-x="1163" d="M-18 1434h329l291 -633l41 -187h12l33 193l215 627h289l-381 -992q-45 -117 -87 -202.5t-90 -142t-107.5 -84t-139.5 -27.5q-68 0 -109.5 9t-91.5 40l72 227q35 -18 63.5 -22t61.5 -4q96 0 135 151zM258 1571v182h702v-182h-702z" />
<glyph unicode="&#x4ef;" horiz-adv-x="978" d="M-18 1024h319l188 -575l37 -160h13l26 162l156 573h274l-311 -924q-39 -115 -75 -210t-79 -164.5t-95 -107.5t-124 -38q-106 0 -170 35l49 213q31 -12 62 -12q47 0 91 40t67 144zM176 1159v189h661v-189h-661z" />
<glyph unicode="&#x4f0;" horiz-adv-x="1163" d="M-18 1434h329l291 -633l41 -187h12l33 193l215 627h289l-381 -992q-45 -117 -87 -202.5t-90 -142t-107.5 -84t-139.5 -27.5q-68 0 -109.5 9t-91.5 40l72 227q35 -18 63.5 -22t61.5 -4q96 0 135 151zM252 1634q0 53 37 86t119 33q80 0 116.5 -32.5t36.5 -86.5 q0 -53 -37 -84.5t-116 -31.5q-82 0 -119 31.5t-37 84.5zM690 1634q0 53 37 86t117 33q82 0 118.5 -32.5t36.5 -86.5q0 -53 -36.5 -84.5t-118.5 -31.5q-80 0 -117 31.5t-37 84.5z" />
<glyph unicode="&#x4f1;" horiz-adv-x="978" d="M-18 1024h319l188 -575l37 -160h13l26 162l156 573h274l-311 -924q-39 -115 -75 -210t-79 -164.5t-95 -107.5t-124 -38q-106 0 -170 35l49 213q31 -12 62 -12q47 0 91 40t67 144zM148 1294q0 66 40 105t105 39q66 0 104 -39t38 -105q0 -61 -38 -100t-104 -39t-105.5 39 t-39.5 100zM596 1294q0 66 38 105t104 39t105.5 -39t39.5 -105q0 -61 -40 -100t-105 -39q-66 0 -104 39t-38 100z" />
<glyph unicode="&#x4f2;" horiz-adv-x="1163" d="M-18 1434h329l291 -633l41 -187h12l33 193l215 627h289l-381 -992q-45 -117 -87 -202.5t-90 -142t-107.5 -84t-139.5 -27.5q-68 0 -109.5 9t-91.5 40l72 227q35 -18 63.5 -22t61.5 -4q96 0 135 151zM293 1518l121 223h274v-33l-205 -190h-190zM621 1518l198 223h287v-33 l-293 -190h-192z" />
<glyph unicode="&#x4f3;" horiz-adv-x="978" d="M-18 1024h319l188 -575l37 -160h13l26 162l156 573h274l-311 -924q-39 -115 -75 -210t-79 -164.5t-95 -107.5t-124 -38q-106 0 -170 35l49 213q31 -12 62 -12q47 0 91 40t67 144zM258 1169l72 265h243v-33l-155 -232h-160zM545 1169l149 265h258v-33l-242 -232h-165z" />
<glyph unicode="&#x4f4;" horiz-adv-x="1241" d="M94 891v543h281v-455q0 -123 48 -183.5t159 -60.5q78 0 146.5 17.5t109.5 52.5v629h280v-1434h-280v578q-53 -31 -142.5 -56.5t-212.5 -25.5q-86 0 -156.5 21.5t-122.5 69.5t-81 122.5t-29 181.5zM248 1634q0 53 37 86t119 33q80 0 116.5 -32.5t36.5 -86.5 q0 -53 -37 -84.5t-116 -31.5q-82 0 -119 31.5t-37 84.5zM686 1634q0 53 37 86t117 33q82 0 118.5 -32.5t36.5 -86.5q0 -53 -36.5 -84.5t-118.5 -31.5q-80 0 -117 31.5t-37 84.5z" />
<glyph unicode="&#x4f5;" horiz-adv-x="1034" d="M68 676v348h266v-233q0 -63 5 -109.5t20.5 -76.5t43 -44t72.5 -14q59 0 103.5 14t72.5 35v428h267v-1024h-267v401q-31 -23 -94 -50t-170 -27q-76 0 -135 16t-100 57t-62.5 108.5t-21.5 170.5zM123 1294q0 66 40 105t105 39q66 0 104 -39t38 -105q0 -61 -38 -100 t-104 -39t-105.5 39t-39.5 100zM571 1294q0 66 38 105t104 39t105.5 -39t39.5 -105q0 -61 -40 -100t-105 -39q-66 0 -104 39t-38 100z" />
<glyph unicode="&#x4f6;" horiz-adv-x="937" d="M123 0v1434h833v-250h-553v-934h181v-506h-197l-31 256h-233z" />
<glyph unicode="&#x4f7;" horiz-adv-x="770" d="M117 0v1024h661v-236h-387v-552h184v-469h-194l-31 233h-233z" />
<glyph unicode="&#x4f8;" horiz-adv-x="1634" d="M123 14v1420h280v-514q23 4 72 10t96 6q102 0 195.5 -20.5t163 -72.5t110.5 -141.5t41 -224.5q0 -250 -145 -373.5t-432 -123.5q-29 0 -74 1t-97 5t-107.5 10t-102.5 18zM403 242q23 -6 54.5 -9.5t66.5 -3.5q117 0 189.5 54.5t72.5 181.5q0 68 -20.5 110.5t-55 67.5 t-81.5 34t-103 9q-29 0 -67.5 -5t-55.5 -11v-428zM434 1634q0 53 37 86t119 33q80 0 116.5 -32.5t36.5 -86.5q0 -53 -37 -84.5t-116 -31.5q-82 0 -119 31.5t-37 84.5zM872 1634q0 53 37 86t117 33q82 0 118.5 -32.5t36.5 -86.5q0 -53 -36.5 -84.5t-118.5 -31.5 q-80 0 -117 31.5t-37 84.5zM1229 0v1434h280v-1434h-280z" />
<glyph unicode="&#x4f9;" horiz-adv-x="1439" d="M117 0v1024h266v-365q49 8 99 11.5t91 3.5q104 0 174 -23.5t113 -66.5t61.5 -101.5t18.5 -126.5q0 -92 -24.5 -161.5t-80 -115.5t-143.5 -69.5t-217 -23.5q-117 0 -202 4t-156 10zM336 1294q0 66 40 105t105 39q66 0 104 -39t38 -105q0 -61 -38 -100t-104 -39t-105.5 39 t-39.5 100zM383 223q61 -12 117 -12q92 0 129 34t37 105q0 66 -37 99.5t-123 33.5q-68 0 -123 -14v-246zM784 1294q0 66 38 105t104 39t105.5 -39t39.5 -105q0 -61 -40 -100t-105 -39q-66 0 -104 39t-38 100zM1057 0v1024h266v-1024h-266z" />
<glyph unicode="&#x4fc;" horiz-adv-x="1296" d="M20 0l441 729l-400 705h338l222 -414l49 -146l47 146l231 414h305l-413 -691l266 -436q51 -80 79.5 -170t28.5 -178q0 -186 -82.5 -284.5t-248.5 -98.5q-31 0 -65 3t-68 11v224q8 0 15 -1t15 -1q88 0 117 43t29 102q0 70 -31 135.5t-59 112.5l-146 237l-57 152l-53 -152 l-254 -442h-306z" />
<glyph unicode="&#x4fd;" horiz-adv-x="1075" d="M16 0l332 524l-307 500h317l134 -219l57 -143l61 143l140 219h288l-309 -492l178 -270q45 -66 76 -151.5t31 -161.5q0 -180 -78 -277.5t-242 -97.5q-63 0 -133 14v213q10 -2 19.5 -2h19.5q86 0 118 37t30 98q0 55 -26 109.5t-54 97.5l-70 105l-70 147l-63 -147l-158 -246 h-291z" />
<glyph unicode="&#x510;" horiz-adv-x="1077" d="M82 399q0 150 72.5 241t205.5 118v10q-119 45 -176 135t-57 197q0 98 40 166.5t108.5 111.5t157.5 61.5t188 18.5q59 0 119.5 -8t112.5 -21.5t94 -29t65 -29.5l-74 -223q-51 23 -129 42t-152 19q-113 0 -174 -36.5t-61 -122.5q0 -41 16.5 -72t42 -53.5t59 -37t70.5 -20.5 q35 -10 90.5 -11t92.5 -1h49v-219h-56h-43t-36 -2q-180 -4 -255 -57.5t-75 -147.5q0 -53 21.5 -92t57.5 -64.5t84 -38t103 -12.5q104 0 189.5 25.5t132.5 48.5l75 -221q-29 -18 -72.5 -36t-99 -33t-118 -24.5t-129.5 -9.5q-123 0 -222.5 26t-170 78t-108.5 133t-38 191z" />
<glyph unicode="&#x511;" horiz-adv-x="884" d="M68 287q0 104 48 164.5t150 89.5v8q-82 29 -121 93.5t-39 135.5q0 131 94.5 197.5t256.5 66.5q127 0 222 -25.5t157 -60.5l-58 -202q-37 23 -99.5 43t-141.5 20q-84 0 -124 -22.5t-40 -77.5q0 -47 46 -77t118 -30h125v-186h-101q-66 0 -109.5 -6t-70.5 -19.5t-37 -33 t-10 -46.5q0 -53 46 -84.5t138 -31.5q82 0 149.5 18.5t114.5 46.5l58 -207q-53 -31 -137.5 -57.5t-196.5 -26.5q-225 0 -331.5 87.5t-106.5 222.5z" />
<glyph unicode="&#x512;" horiz-adv-x="1298" d="M-27 16l45 240q27 -10 56 -10q31 0 62.5 16.5t58.5 56.5q31 45 53 132.5t39.5 222.5t28 322.5t14.5 437.5h846v-1477q0 -186 -74 -284.5t-234 -98.5q-29 0 -62.5 3t-68.5 11v224q10 0 17.5 -1t15.5 -1q43 0 67.5 12t37 35.5t16.5 59.5t4 83v1184h-305 q-8 -195 -19.5 -354.5t-31 -287.5t-49 -226.5t-72.5 -170.5q-31 -47 -66 -77.5t-71.5 -49t-73.5 -25.5t-70 -7q-47 0 -90 8t-74 22z" />
<glyph unicode="&#x513;" horiz-adv-x="1054" d="M-35 18l33 222q33 -12 61 -13q41 0 72 35t52.5 125t34.5 244.5t20 392.5h702v-1067q0 -186 -73.5 -284.5t-235.5 -98.5q-61 0 -131 14v224q8 0 15 -1t15 -1q88 0 116 50t28 140v788h-203q-12 -145 -28.5 -288.5t-52.5 -257t-97.5 -184t-159.5 -70.5q-119 0 -168 30z" />
<glyph unicode="&#x51c;" horiz-adv-x="1765" d="M0 1434h305l191 -801l26 -254h8l29 258l250 797h184l246 -801l29 -254h8l31 258l174 797h284l-395 -1444h-188l-256 796l-35 220h-10l-35 -222l-254 -794h-199z" />
<glyph unicode="&#x51d;" horiz-adv-x="1476" d="M-16 1024h288l150 -514l24 -182h11l35 184l170 512h196l186 -524l37 -170h9l28 172l131 522h244l-315 -1034h-197l-207 573l-26 129h-11l-24 -131l-197 -571h-203z" />
<glyph unicode="&#x524;" horiz-adv-x="1400" d="M123 0v1434h1063v-1184h178v-506h-197l-30 256h-232v1184h-502v-1184h-280z" />
<glyph unicode="&#x525;" horiz-adv-x="1175" d="M117 0v1024h856v-788h170v-469h-195l-30 233h-211v788h-324v-788h-266z" />
<glyph unicode="&#x526;" horiz-adv-x="1353" d="M123 0v1434h280v-578q53 31 142.5 56.5t212.5 25.5q86 0 156.5 -21.5t123 -69.5t81 -123t28.5 -181v-293h180v-506h-197l-30 256h-234v455q0 123 -48 183t-159 60q-78 0 -146.5 -17t-109.5 -52v-629h-280z" />
<glyph unicode="&#x527;" horiz-adv-x="1208" d="M117 0v1434h266v-525h8q49 66 121 105t182 39q78 0 137.5 -20.5t99.5 -67.5t59.5 -128t19.5 -200v-401h164v-469h-195l-31 233h-205v582q0 125 -34.5 180t-126.5 55q-68 0 -124.5 -46t-74.5 -118v-653h-266z" />
<glyph unicode="&#x1e30;" horiz-adv-x="1269" d="M123 0v1434h280v-635l66 28l395 607h320l-418 -603l-111 -77l115 -80l477 -674h-346l-424 612h-74v-612h-280zM422 1540l213 242h326v-62l-328 -180h-211z" />
<glyph unicode="&#x1e31;" horiz-adv-x="1005" d="M117 0v1434h266v-846l61 28l234 408h293l-246 -389l-104 -78l112 -80l277 -477h-305l-250 424h-72v-424h-266zM504 1159l108 316h271v-62l-228 -254h-151z" />
<glyph unicode="&#x1e3e;" horiz-adv-x="1638" d="M123 0v1434h256l383 -656l67 -164h9l61 168l363 652h254v-1434h-281v743l31 285h-13l-88 -229l-305 -535h-90l-321 537l-91 227h-10l41 -283v-745h-266zM651 1540l213 242h326v-62l-328 -180h-211z" />
<glyph unicode="&#x1e3f;" horiz-adv-x="1648" d="M117 0v1024h207l30 -135h8q47 66 120 115t188 49q98 0 160.5 -40t97.5 -134q47 80 120.5 127t178.5 47q86 0 146.5 -20.5t98 -71t56 -134.5t18.5 -213v-614h-266v575q0 121 -25.5 181.5t-113.5 60.5q-72 0 -114 -39t-62 -106v-672h-267v557q0 141 -26.5 200.5 t-110.5 59.5q-70 0 -112.5 -38t-65.5 -97v-682h-266zM709 1159l108 316h271v-62l-228 -254h-151z" />
<glyph unicode="&#x1e54;" horiz-adv-x="1171" d="M123 0v1419q86 16 189.5 25.5t205.5 9.5q106 0 214 -17.5t194 -69.5t140 -145.5t54 -242.5q0 -135 -47 -228.5t-125 -152.5t-177 -86t-206 -27h-32.5t-47 1t-48 3.5t-34.5 4.5v-494h-280zM385 1540l213 242h326v-62l-328 -180h-211zM403 737q8 -2 24.5 -4t35 -3t36 -1 h25.5q55 0 109.5 10.5t97.5 38t68.5 76.5t25.5 129q0 68 -24.5 112t-64.5 70.5t-91 36.5t-104 10q-41 0 -78 -3t-60 -7v-465z" />
<glyph unicode="&#x1e55;" horiz-adv-x="1105" d="M117 -410v1434h194l31 -123h8q53 78 126 115t177 37q193 0 289 -122t96 -392q0 -131 -30.5 -236.5t-91 -179.5t-147.5 -113t-200 -39q-63 0 -104 9.5t-82 29.5v-420h-266zM383 246q29 -23 62.5 -36t89.5 -13q115 0 172 80.5t57 267.5q0 135 -45.5 208.5t-145.5 73.5 q-78 0 -121.5 -38.5t-68.5 -116.5v-426zM432 1159l108 316h271v-62l-228 -254h-151z" />
<glyph unicode="&#x1e9e;" horiz-adv-x="1376" d="M123 0v979q0 117 26.5 206t87 150.5t155.5 93t231 31.5q104 0 187 -15t151.5 -43t126 -63.5t112.5 -76.5l-276 -367l-72 -59v-11l72 17q166 -12 265 -112.5t99 -285.5q0 -221 -126 -347t-367 -126q-29 0 -70 4.5t-83 12.5t-79 18t-57 21l55 233q20 -10 49 -17t58.5 -11.5 t58.5 -7.5t51 -3q102 0 158.5 56.5t56.5 162.5q0 113 -75.5 164t-231.5 51h-102v170l274 342q-37 33 -99.5 51.5t-137.5 18.5q-72 0 -115 -25.5t-65.5 -71.5t-30 -110.5t-7.5 -142.5v-887h-280z" />
<glyph unicode="&#x2000;" horiz-adv-x="1034" />
<glyph unicode="&#x2001;" horiz-adv-x="2069" />
<glyph unicode="&#x2002;" horiz-adv-x="1034" />
<glyph unicode="&#x2003;" horiz-adv-x="2069" />
<glyph unicode="&#x2004;" horiz-adv-x="689" />
<glyph unicode="&#x2005;" horiz-adv-x="517" />
<glyph unicode="&#x2006;" horiz-adv-x="344" />
<glyph unicode="&#x2007;" horiz-adv-x="344" />
<glyph unicode="&#x2008;" horiz-adv-x="258" />
<glyph unicode="&#x2009;" horiz-adv-x="413" />
<glyph unicode="&#x200a;" horiz-adv-x="114" />
<glyph unicode="&#x2010;" horiz-adv-x="737" d="M111 471v236h514v-236h-514z" />
<glyph unicode="&#x2011;" horiz-adv-x="737" d="M111 471v236h514v-236h-514z" />
<glyph unicode="&#x2012;" horiz-adv-x="737" d="M111 471v236h514v-236h-514z" />
<glyph unicode="&#x2013;" horiz-adv-x="1351" d="M223 473v236h905v-236h-905z" />
<glyph unicode="&#x2014;" horiz-adv-x="1679" d="M223 473v236h1233v-236h-1233z" />
<glyph unicode="&#x2018;" horiz-adv-x="456" d="M78 1311q0 82 25.5 139t61.5 95t75 59.5t67 31.5l66 -110q-41 -16 -70 -52t-33 -77q41 0 75 -36t34 -95t-40 -95t-99 -36q-76 0 -119 48t-43 128z" />
<glyph unicode="&#x2019;" horiz-adv-x="456" d="M78 1319q0 59 40 96t101 37q74 0 117 -49t43 -129q0 -82 -25.5 -139.5t-61.5 -95.5t-76 -59.5t-66 -31.5l-68 113q41 18 72.5 49t35.5 78q-41 -2 -76.5 31.5t-35.5 99.5z" />
<glyph unicode="&#x201a;" horiz-adv-x="456" d="M78 127q0 59 40 96t101 37q74 0 117 -49t43 -129q0 -82 -25.5 -139.5t-61.5 -95.5t-76 -59.5t-66 -31.5l-68 113q41 18 72.5 49t35.5 78q-41 -2 -76.5 31.5t-35.5 99.5z" />
<glyph unicode="&#x201c;" horiz-adv-x="811" d="M78 1311q0 82 25.5 139t61.5 95t75 59.5t67 31.5l66 -110q-41 -16 -70 -52t-33 -77q41 0 75 -36t34 -95t-40 -95t-99 -36q-76 0 -119 48t-43 128zM432 1311q0 82 25.5 139t61.5 95t75 59.5t67 31.5l66 -110q-41 -16 -70 -52t-33 -77q41 0 75 -36t34 -95t-40 -95t-99 -36 q-76 0 -119 48t-43 128z" />
<glyph unicode="&#x201d;" horiz-adv-x="811" d="M78 1319q0 59 40 96t101 37q74 0 117 -49t43 -129q0 -82 -25.5 -139.5t-61.5 -95.5t-76 -59.5t-66 -31.5l-68 113q41 18 72.5 49t35.5 78q-41 -2 -76.5 31.5t-35.5 99.5zM432 1319q0 59 40 96t101 37q74 0 117 -49t43 -129q0 -82 -25.5 -139.5t-61.5 -95.5t-76 -59.5 t-66 -31.5l-68 113q41 18 72.5 49t35.5 78q-41 -2 -76.5 31.5t-35.5 99.5z" />
<glyph unicode="&#x201e;" horiz-adv-x="811" d="M78 127q0 59 40 96t101 37q74 0 117 -49t43 -129q0 -82 -25.5 -139.5t-61.5 -95.5t-76 -59.5t-66 -31.5l-68 113q41 18 72.5 49t35.5 78q-41 -2 -76.5 31.5t-35.5 99.5zM432 127q0 59 40 96t101 37q74 0 117 -49t43 -129q0 -82 -25.5 -139.5t-61.5 -95.5t-76 -59.5 t-66 -31.5l-68 113q41 18 72.5 49t35.5 78q-41 -2 -76.5 31.5t-35.5 99.5z" />
<glyph unicode="&#x2020;" horiz-adv-x="1042" d="M82 821v230h237l107 -33l-33 110v306h254v-306l-31 -110l105 33h240v-230h-244l-101 33l31 -102v-752l-33 -410h-188l-33 412v750l33 102l-107 -33h-237z" />
<glyph unicode="&#x2021;" horiz-adv-x="1042" d="M82 297v229h237l107 -30l-33 92v172l33 92l-107 -31h-237v230h237l107 -31l-33 102v312h254v-312l-31 -102l105 31h240v-230h-244l-101 31l31 -92v-172l-31 -92l101 30h244v-229h-240l-105 31l31 -103v-225l-35 -410h-184l-35 412v223l33 103l-107 -31h-237z" />
<glyph unicode="&#x2022;" horiz-adv-x="925" d="M150 637q0 70 24.5 127t67.5 98t99 64.5t120 23.5q66 0 123 -21.5t99 -61.5t66.5 -98t24.5 -132t-24.5 -131t-66.5 -97t-99.5 -61.5t-122.5 -21.5q-63 0 -119.5 21.5t-99.5 61.5t-67.5 97t-24.5 131z" />
<glyph unicode="&#x2026;" horiz-adv-x="1656" d="M109 135q0 72 45 114t119 42q78 0 123 -42t45 -114t-45 -115t-123 -43q-74 0 -119 43t-45 115zM666 135q0 72 45 114t119 42q78 0 123 -42t45 -114t-45 -115t-123 -43q-74 0 -119 43t-45 115zM1223 135q0 72 45 114t119 42q78 0 123 -42t45 -114t-45 -115t-123 -43 q-74 0 -119 43t-45 115z" />
<glyph unicode="&#x202f;" horiz-adv-x="413" />
<glyph unicode="&#x2030;" horiz-adv-x="2523" d="M105 1110q0 92 26.5 157.5t73.5 108.5t113.5 62.5t144.5 19.5t143.5 -18.5t113.5 -59.5t74.5 -107.5t28.5 -162.5q-2 -96 -28.5 -162.5t-74.5 -107.5t-113.5 -59.5t-143.5 -18.5t-144.5 18.5t-113.5 59.5t-73.5 107.5t-26.5 162.5zM207 113l1179 1349l150 -135 l-1180 -1356zM342 1110q0 -176 121 -176q63 0 91 38t30 138q-2 98 -29.5 137t-91.5 39q-63 0 -92 -39t-29 -137zM926 350q0 92 26.5 157.5t73.5 108.5t113.5 62.5t144.5 19.5t143.5 -18.5t113.5 -59.5t74.5 -107.5t28.5 -162.5q-2 -96 -28.5 -162.5t-74.5 -107.5 t-113.5 -59.5t-143.5 -18.5t-144.5 18.5t-113.5 59.5t-73.5 107.5t-26.5 162.5zM1163 350q0 -176 121 -176q63 0 91 38t30 138q-2 98 -29.5 137t-91.5 39q-63 0 -92 -39t-29 -137zM1721 350q0 92 26.5 157.5t73.5 108.5t113.5 62.5t144.5 19.5t143.5 -18.5t113.5 -59.5 t74.5 -107.5t28.5 -162.5q-2 -96 -28.5 -162.5t-74.5 -107.5t-113.5 -59.5t-143.5 -18.5t-144.5 18.5t-113.5 59.5t-73.5 107.5t-26.5 162.5zM1958 350q0 -176 121 -176q63 0 91 38t30 138q-2 98 -29.5 137t-91.5 39q-63 0 -92 -39t-29 -137z" />
<glyph unicode="&#x2039;" horiz-adv-x="628" d="M59 530l328 471l154 -127l-170 -258l-99 -84l99 -73l186 -250l-158 -131z" />
<glyph unicode="&#x203a;" horiz-adv-x="628" d="M70 872l159 129l340 -452l-327 -471l-156 125l172 260l98 84l-98 74z" />
<glyph unicode="&#x2044;" horiz-adv-x="376" d="M-338 80l883 1384l174 -102l-881 -1391z" />
<glyph unicode="&#x205f;" horiz-adv-x="517" />
<glyph unicode="&#x2081;" horiz-adv-x="843" d="M84 442l324 228h174v-670h180v-205h-615v205h199v336l21 94l-62 -65l-121 -80z" />
<glyph unicode="&#x2082;" horiz-adv-x="843" d="M102 588q72 43 153 62.5t155 19.5q145 0 224 -66.5t79 -193.5q0 -121 -61.5 -207t-147.5 -164l-96 -51v-8l120 22h217v-207h-641v146q53 37 119 86t122 105t94 115.5t38 112.5q0 100 -115 101q-55 0 -104 -17.5t-86 -40.5z" />
<glyph unicode="&#x2083;" horiz-adv-x="843" d="M115 -170l47 184q84 -39 184 -39q90 0 128 29t40 76q-2 47 -41 73.5t-143 26.5h-86v78l149 164l88 51l-119 -12h-235v194h580v-127l-179 -188l-69 -37v-10l61 6q106 -4 167 -64.5t63 -171.5q-2 -74 -32 -127t-80 -87.5t-117.5 -51t-139.5 -16.5q-80 0 -148.5 13 t-117.5 36z" />
<glyph unicode="&#x2084;" horiz-adv-x="843" d="M37 -45v137l446 580h185v-535h155v-182h-155v-160h-207v160h-424zM246 121l106 16h109v176l12 109h-10l-45 -100l-99 -136z" />
<glyph unicode="&#x20ac;" d="M4 473l66 191h100v53v32.5t2 32.5h-168l66 191h127q31 135 89 227t136 150.5t171 85t193 26.5q106 0 189.5 -16t138.5 -39l-72 -211q-45 18 -104 27.5t-139 9.5q-123 0 -211 -61.5t-133 -198.5h530l-53 -191h-510q-2 -16 -2 -31.5v-33.5v-53h471l-53 -191h-385 q41 -135 130 -203.5t236 -68.5q86 0 148.5 18.5t111.5 46.5l56 -207q-31 -23 -74 -40t-90 -27t-96.5 -15.5t-94.5 -5.5q-225 0 -379.5 120t-207.5 382h-189z" />
<glyph unicode="&#x20b4;" d="M92 467v190h922v-190h-510q-29 -29 -50.5 -76t-21.5 -88q0 -53 45 -85t156 -32q109 0 173 19.5t109 44.5l60 -201q-51 -29 -143.5 -53.5t-260.5 -24.5q-193 0 -295 74t-102 221q0 33 7 64.5t18.5 59.5t22.5 46.5t20 30.5h-150zM92 774v191h512q31 29 53.5 75.5t22.5 92.5 q0 115 -164 114q-82 0 -140.5 -17.5t-107.5 -41.5l-75 201q33 16 66.5 29.5t74.5 23.5t97 15t136 5q180 0 274.5 -67.5t94.5 -206.5q0 -66 -25.5 -128.5t-56.5 -94.5h160v-191h-922z" />
<glyph unicode="&#x20b6;" d="M47 254v186h162v119h-162v186h162v674q86 16 178 25.5t195 9.5q106 0 204.5 -18.5t172 -67.5t117.5 -135t44 -221q0 -125 -43 -211t-114.5 -140.5t-163.5 -78t-193 -23.5h-139v-119h328v-186h-328v-254h-258v254h-162zM467 752h106q55 0 105.5 13t87.5 42t58.5 77 t21.5 115q0 125 -67.5 177.5t-174.5 52.5q-41 0 -78 -3t-59 -7v-467z" />
<glyph unicode="&#x20b7;" d="M47 254v186h162v119h-162v186h162v674q86 16 178 25.5t195 9.5q106 0 204.5 -18.5t172 -67.5t117.5 -135t44 -221q0 -125 -43 -211t-114.5 -140.5t-163.5 -78t-193 -23.5h-139v-119h328v-186h-328v-254h-258v254h-162zM467 752h106q55 0 105.5 13t87.5 42t58.5 77 t21.5 115q0 125 -67.5 177.5t-174.5 52.5q-41 0 -78 -3t-59 -7v-467z" />
<glyph unicode="&#x20b9;" d="M47 254v186h162v119h-162v186h162v674q86 16 178 25.5t195 9.5q106 0 204.5 -18.5t172 -67.5t117.5 -135t44 -221q0 -125 -43 -211t-114.5 -140.5t-163.5 -78t-193 -23.5h-139v-119h328v-186h-328v-254h-258v254h-162zM467 752h106q55 0 105.5 13t87.5 42t58.5 77 t21.5 115q0 125 -67.5 177.5t-174.5 52.5q-41 0 -78 -3t-59 -7v-467z" />
<glyph unicode="&#x20ba;" d="M47 254v186h162v119h-162v186h162v674q86 16 178 25.5t195 9.5q106 0 204.5 -18.5t172 -67.5t117.5 -135t44 -221q0 -125 -43 -211t-114.5 -140.5t-163.5 -78t-193 -23.5h-139v-119h328v-186h-328v-254h-258v254h-162zM467 752h106q55 0 105.5 13t87.5 42t58.5 77 t21.5 115q0 125 -67.5 177.5t-174.5 52.5q-41 0 -78 -3t-59 -7v-467z" />
<glyph unicode="&#x20bb;" d="M47 254v186h162v119h-162v186h162v674q86 16 178 25.5t195 9.5q106 0 204.5 -18.5t172 -67.5t117.5 -135t44 -221q0 -125 -43 -211t-114.5 -140.5t-163.5 -78t-193 -23.5h-139v-119h328v-186h-328v-254h-258v254h-162zM467 752h106q55 0 105.5 13t87.5 42t58.5 77 t21.5 115q0 125 -67.5 177.5t-174.5 52.5q-41 0 -78 -3t-59 -7v-467z" />
<glyph unicode="&#x20bc;" d="M47 254v186h162v119h-162v186h162v674q86 16 178 25.5t195 9.5q106 0 204.5 -18.5t172 -67.5t117.5 -135t44 -221q0 -125 -43 -211t-114.5 -140.5t-163.5 -78t-193 -23.5h-139v-119h328v-186h-328v-254h-258v254h-162zM467 752h106q55 0 105.5 13t87.5 42t58.5 77 t21.5 115q0 125 -67.5 177.5t-174.5 52.5q-41 0 -78 -3t-59 -7v-467z" />
<glyph unicode="&#x20bd;" d="M47 254v186h162v119h-162v186h162v674q86 16 178 25.5t195 9.5q106 0 204.5 -18.5t172 -67.5t117.5 -135t44 -221q0 -125 -43 -211t-114.5 -140.5t-163.5 -78t-193 -23.5h-139v-119h328v-186h-328v-254h-258v254h-162zM467 752h106q55 0 105.5 13t87.5 42t58.5 77 t21.5 115q0 125 -67.5 177.5t-174.5 52.5q-41 0 -78 -3t-59 -7v-467z" />
<glyph unicode="&#x20be;" d="M47 254v186h162v119h-162v186h162v674q86 16 178 25.5t195 9.5q106 0 204.5 -18.5t172 -67.5t117.5 -135t44 -221q0 -125 -43 -211t-114.5 -140.5t-163.5 -78t-193 -23.5h-139v-119h328v-186h-328v-254h-258v254h-162zM467 752h106q55 0 105.5 13t87.5 42t58.5 77 t21.5 115q0 125 -67.5 177.5t-174.5 52.5q-41 0 -78 -3t-59 -7v-467z" />
<glyph unicode="&#x20bf;" d="M47 254v186h162v119h-162v186h162v674q86 16 178 25.5t195 9.5q106 0 204.5 -18.5t172 -67.5t117.5 -135t44 -221q0 -125 -43 -211t-114.5 -140.5t-163.5 -78t-193 -23.5h-139v-119h328v-186h-328v-254h-258v254h-162zM467 752h106q55 0 105.5 13t87.5 42t58.5 77 t21.5 115q0 125 -67.5 177.5t-174.5 52.5q-41 0 -78 -3t-59 -7v-467z" />
<glyph unicode="&#x20c0;" d="M47 254v186h162v119h-162v186h162v674q86 16 178 25.5t195 9.5q106 0 204.5 -18.5t172 -67.5t117.5 -135t44 -221q0 -125 -43 -211t-114.5 -140.5t-163.5 -78t-193 -23.5h-139v-119h328v-186h-328v-254h-258v254h-162zM467 752h106q55 0 105.5 13t87.5 42t58.5 77 t21.5 115q0 125 -67.5 177.5t-174.5 52.5q-41 0 -78 -3t-59 -7v-467z" />
<glyph unicode="&#x20c1;" d="M47 254v186h162v119h-162v186h162v674q86 16 178 25.5t195 9.5q106 0 204.5 -18.5t172 -67.5t117.5 -135t44 -221q0 -125 -43 -211t-114.5 -140.5t-163.5 -78t-193 -23.5h-139v-119h328v-186h-328v-254h-258v254h-162zM467 752h106q55 0 105.5 13t87.5 42t58.5 77 t21.5 115q0 125 -67.5 177.5t-174.5 52.5q-41 0 -78 -3t-59 -7v-467z" />
<glyph unicode="&#x20c2;" d="M47 254v186h162v119h-162v186h162v674q86 16 178 25.5t195 9.5q106 0 204.5 -18.5t172 -67.5t117.5 -135t44 -221q0 -125 -43 -211t-114.5 -140.5t-163.5 -78t-193 -23.5h-139v-119h328v-186h-328v-254h-258v254h-162zM467 752h106q55 0 105.5 13t87.5 42t58.5 77 t21.5 115q0 125 -67.5 177.5t-174.5 52.5q-41 0 -78 -3t-59 -7v-467z" />
<glyph unicode="&#x20c3;" d="M47 254v186h162v119h-162v186h162v674q86 16 178 25.5t195 9.5q106 0 204.5 -18.5t172 -67.5t117.5 -135t44 -221q0 -125 -43 -211t-114.5 -140.5t-163.5 -78t-193 -23.5h-139v-119h328v-186h-328v-254h-258v254h-162zM467 752h106q55 0 105.5 13t87.5 42t58.5 77 t21.5 115q0 125 -67.5 177.5t-174.5 52.5q-41 0 -78 -3t-59 -7v-467z" />
<glyph unicode="&#x20c4;" d="M47 254v186h162v119h-162v186h162v674q86 16 178 25.5t195 9.5q106 0 204.5 -18.5t172 -67.5t117.5 -135t44 -221q0 -125 -43 -211t-114.5 -140.5t-163.5 -78t-193 -23.5h-139v-119h328v-186h-328v-254h-258v254h-162zM467 752h106q55 0 105.5 13t87.5 42t58.5 77 t21.5 115q0 125 -67.5 177.5t-174.5 52.5q-41 0 -78 -3t-59 -7v-467z" />
<glyph unicode="&#x20c5;" d="M47 254v186h162v119h-162v186h162v674q86 16 178 25.5t195 9.5q106 0 204.5 -18.5t172 -67.5t117.5 -135t44 -221q0 -125 -43 -211t-114.5 -140.5t-163.5 -78t-193 -23.5h-139v-119h328v-186h-328v-254h-258v254h-162zM467 752h106q55 0 105.5 13t87.5 42t58.5 77 t21.5 115q0 125 -67.5 177.5t-174.5 52.5q-41 0 -78 -3t-59 -7v-467z" />
<glyph unicode="&#x20c6;" d="M47 254v186h162v119h-162v186h162v674q86 16 178 25.5t195 9.5q106 0 204.5 -18.5t172 -67.5t117.5 -135t44 -221q0 -125 -43 -211t-114.5 -140.5t-163.5 -78t-193 -23.5h-139v-119h328v-186h-328v-254h-258v254h-162zM467 752h106q55 0 105.5 13t87.5 42t58.5 77 t21.5 115q0 125 -67.5 177.5t-174.5 52.5q-41 0 -78 -3t-59 -7v-467z" />
<glyph unicode="&#x20c7;" d="M47 254v186h162v119h-162v186h162v674q86 16 178 25.5t195 9.5q106 0 204.5 -18.5t172 -67.5t117.5 -135t44 -221q0 -125 -43 -211t-114.5 -140.5t-163.5 -78t-193 -23.5h-139v-119h328v-186h-328v-254h-258v254h-162zM467 752h106q55 0 105.5 13t87.5 42t58.5 77 t21.5 115q0 125 -67.5 177.5t-174.5 52.5q-41 0 -78 -3t-59 -7v-467z" />
<glyph unicode="&#x20c8;" d="M47 254v186h162v119h-162v186h162v674q86 16 178 25.5t195 9.5q106 0 204.5 -18.5t172 -67.5t117.5 -135t44 -221q0 -125 -43 -211t-114.5 -140.5t-163.5 -78t-193 -23.5h-139v-119h328v-186h-328v-254h-258v254h-162zM467 752h106q55 0 105.5 13t87.5 42t58.5 77 t21.5 115q0 125 -67.5 177.5t-174.5 52.5q-41 0 -78 -3t-59 -7v-467z" />
<glyph unicode="&#x20c9;" d="M47 254v186h162v119h-162v186h162v674q86 16 178 25.5t195 9.5q106 0 204.5 -18.5t172 -67.5t117.5 -135t44 -221q0 -125 -43 -211t-114.5 -140.5t-163.5 -78t-193 -23.5h-139v-119h328v-186h-328v-254h-258v254h-162zM467 752h106q55 0 105.5 13t87.5 42t58.5 77 t21.5 115q0 125 -67.5 177.5t-174.5 52.5q-41 0 -78 -3t-59 -7v-467z" />
<glyph unicode="&#x20ca;" d="M47 254v186h162v119h-162v186h162v674q86 16 178 25.5t195 9.5q106 0 204.5 -18.5t172 -67.5t117.5 -135t44 -221q0 -125 -43 -211t-114.5 -140.5t-163.5 -78t-193 -23.5h-139v-119h328v-186h-328v-254h-258v254h-162zM467 752h106q55 0 105.5 13t87.5 42t58.5 77 t21.5 115q0 125 -67.5 177.5t-174.5 52.5q-41 0 -78 -3t-59 -7v-467z" />
<glyph unicode="&#x20cb;" d="M47 254v186h162v119h-162v186h162v674q86 16 178 25.5t195 9.5q106 0 204.5 -18.5t172 -67.5t117.5 -135t44 -221q0 -125 -43 -211t-114.5 -140.5t-163.5 -78t-193 -23.5h-139v-119h328v-186h-328v-254h-258v254h-162zM467 752h106q55 0 105.5 13t87.5 42t58.5 77 t21.5 115q0 125 -67.5 177.5t-174.5 52.5q-41 0 -78 -3t-59 -7v-467z" />
<glyph unicode="&#x20cc;" d="M47 254v186h162v119h-162v186h162v674q86 16 178 25.5t195 9.5q106 0 204.5 -18.5t172 -67.5t117.5 -135t44 -221q0 -125 -43 -211t-114.5 -140.5t-163.5 -78t-193 -23.5h-139v-119h328v-186h-328v-254h-258v254h-162zM467 752h106q55 0 105.5 13t87.5 42t58.5 77 t21.5 115q0 125 -67.5 177.5t-174.5 52.5q-41 0 -78 -3t-59 -7v-467z" />
<glyph unicode="&#x20cd;" d="M47 254v186h162v119h-162v186h162v674q86 16 178 25.5t195 9.5q106 0 204.5 -18.5t172 -67.5t117.5 -135t44 -221q0 -125 -43 -211t-114.5 -140.5t-163.5 -78t-193 -23.5h-139v-119h328v-186h-328v-254h-258v254h-162zM467 752h106q55 0 105.5 13t87.5 42t58.5 77 t21.5 115q0 125 -67.5 177.5t-174.5 52.5q-41 0 -78 -3t-59 -7v-467z" />
<glyph unicode="&#x20ce;" d="M47 254v186h162v119h-162v186h162v674q86 16 178 25.5t195 9.5q106 0 204.5 -18.5t172 -67.5t117.5 -135t44 -221q0 -125 -43 -211t-114.5 -140.5t-163.5 -78t-193 -23.5h-139v-119h328v-186h-328v-254h-258v254h-162zM467 752h106q55 0 105.5 13t87.5 42t58.5 77 t21.5 115q0 125 -67.5 177.5t-174.5 52.5q-41 0 -78 -3t-59 -7v-467z" />
<glyph unicode="&#x20cf;" d="M47 254v186h162v119h-162v186h162v674q86 16 178 25.5t195 9.5q106 0 204.5 -18.5t172 -67.5t117.5 -135t44 -221q0 -125 -43 -211t-114.5 -140.5t-163.5 -78t-193 -23.5h-139v-119h328v-186h-328v-254h-258v254h-162zM467 752h106q55 0 105.5 13t87.5 42t58.5 77 t21.5 115q0 125 -67.5 177.5t-174.5 52.5q-41 0 -78 -3t-59 -7v-467z" />
<glyph unicode="&#x2113;" horiz-adv-x="1024" d="M150 446l174 152v520q0 90 20.5 154.5t56 105.5t83.5 60.5t104 19.5q98 0 161.5 -60.5t63.5 -183.5q0 -152 -82 -321.5t-268 -349.5v-287q0 -90 34.5 -124t84.5 -34q51 0 112.5 21.5t102.5 44.5l34 -103q-45 -29 -117.5 -57.5t-144.5 -28.5q-129 0 -187 62.5t-58 195.5 v213l-103 -90zM463 707q115 133 167 256.5t52 240.5q0 70 -28.5 100.5t-65.5 30.5q-25 0 -47.5 -7t-40 -28.5t-27.5 -59.5t-10 -99v-434z" />
<glyph unicode="&#x2116;" horiz-adv-x="2103" d="M123 0v1444h205l512 -758l106 -225h12l-32 219v754h266v-1444h-203l-510 751l-112 232h-11l33 -225v-748h-266zM1298 1110q0 92 27 157.5t74 108.5t113.5 62.5t144.5 19.5t143.5 -18.5t113.5 -59.5t74.5 -107.5t26.5 -162.5t-26.5 -162.5t-74.5 -107.5t-113.5 -59.5 t-143.5 -18.5t-144.5 18.5t-113.5 59.5t-74 107.5t-27 162.5zM1341 430v227h644v-227h-644zM1536 1110q0 -176 121 -176q63 0 91 38t28 138q0 98 -28 137t-91 39t-92 -39t-29 -137z" />
<glyph unicode="&#x2122;" horiz-adv-x="1941" d="M59 1208v226h750v-226h-242v-512h-266v512h-242zM879 696v738h266l186 -308l49 -129h2l52 133l172 304h264v-738h-232v295l35 211h-12l-74 -174l-139 -240h-160l-139 234l-80 180h-10l47 -209v-297h-227z" />
<glyph unicode="&#x212e;" horiz-adv-x="1228" d="M90 530q0 121 38 224.5t107.5 179.5t167 119t215.5 43q127 0 224.5 -45t165 -122t102.5 -179.5t39 -219.5h-827v-370q127 -121 296 -121q254 0 396 246l71 -43q-88 -135 -202.5 -206t-264.5 -71q-121 0 -219 44t-166.5 120t-105.5 179.5t-37 221.5zM322 604h596v297 q-129 123 -302 123q-176 0 -294 -123v-297z" />
<glyph unicode="&#x2202;" horiz-adv-x="1101" d="M37 387q0 117 31.5 231.5t96 207t165 148.5t235.5 56q43 0 74 -4t53.5 -11t41 -16.5t34.5 -19.5h10q-10 80 -51 133t-99.5 86t-128 46t-139.5 13h-29.5t-27.5 -2l45 207q16 2 33.5 2h34.5q135 0 251.5 -30.5t201.5 -102t134.5 -192.5t49.5 -299q0 -229 -44 -393 t-122 -269.5t-185.5 -156t-234.5 -50.5q-203 0 -316.5 112t-113.5 304zM311 397q0 -84 44 -142t134 -58q84 0 139.5 47t89.5 122.5t47 172t13 192.5q-37 35 -81.5 54.5t-114.5 19.5q-117 0 -194 -108.5t-77 -299.5z" />
<glyph unicode="&#x220f;" horiz-adv-x="1339" d="M123 -410v1844h1091v-1844h-266v1594h-545v-1594h-280z" />
<glyph unicode="&#x2211;" horiz-adv-x="1079" d="M41 -160l381 598l86 70l-94 76l-373 600v250h985v-250h-713l95 -84l352 -576l-385 -602l-86 -82h737v-250h-985v250z" />
<glyph unicode="&#x2212;" horiz-adv-x="1079" d="M88 578v229h905v-229h-905z" />
<glyph unicode="&#x2215;" horiz-adv-x="1079" d="M10 80l883 1384l174 -102l-881 -1391z" />
<glyph unicode="&#x221a;" horiz-adv-x="1079" d="M-10 745v228h393l162 -381l45 -236h8l37 240l246 838h256l-471 -1444h-138l-309 755h-229z" />
<glyph unicode="&#x221e;" horiz-adv-x="1755" d="M72 713q0 98 30.5 176t83 132t124 81.5t155.5 27.5q152 0 254 -60t178 -152q92 115 196.5 163.5t229.5 48.5q76 0 141.5 -27.5t114.5 -78.5t76.5 -126t27.5 -169q0 -100 -30.5 -178t-86 -132t-131 -82t-163.5 -28q-74 0 -135.5 18.5t-111.5 50.5t-92 74t-79 91 q-74 -119 -178.5 -176.5t-231.5 -57.5q-74 0 -141 28t-118.5 80t-82 126.5t-30.5 169.5zM319 715q0 -78 51.5 -128t127.5 -50q66 0 133 46t117 113q-47 92 -112 149.5t-151 57.5q-70 0 -118 -54t-48 -134zM1008 750q23 -43 51 -81t62 -68t72 -47t77 -17q72 0 118 52t46 134 q0 33 -10.5 65.5t-31 58t-52 41t-74.5 15.5q-63 0 -131 -38t-127 -115z" />
<glyph unicode="&#x222b;" horiz-adv-x="753" d="M-127 -377l59 209q90 -35 172 -35q78 0 107 48.5t29 160.5v1096q0 197 74.5 278.5t240.5 81.5q37 0 79 -4t83 -11t77.5 -16.5t63.5 -19.5l-45 -209q-47 16 -87 25.5t-95 9.5q-72 0 -98.5 -42t-26.5 -153v-1112q0 -197 -80 -276.5t-240 -79.5q-94 0 -179 14.5t-134 34.5z " />
<glyph unicode="&#x2248;" horiz-adv-x="1079" d="M61 573q96 78 173 107.5t143 29.5q59 0 110.5 -17t98.5 -36.5t93 -37t93 -17.5q37 0 76 12t82 47l96 -211q-74 -55 -135.5 -77.5t-114.5 -22.5q-57 0 -106.5 18.5t-95.5 41t-93 41t-100 18.5q-49 0 -105.5 -21.5t-124.5 -79.5zM61 969q96 78 173 107.5t143 29.5 q59 0 110.5 -17t98.5 -36.5t93 -37t93 -17.5q37 0 76 12t82 47l96 -211q-74 -55 -135.5 -77.5t-114.5 -22.5q-57 0 -106.5 18.5t-95.5 41t-93 41t-100 18.5q-49 0 -105.5 -21.5t-124.5 -79.5z" />
<glyph unicode="&#x2260;" horiz-adv-x="1079" d="M88 381v229h301l74 164h-375v230h475l103 231h231l-102 -231h198v-230h-301l-74 -164h375v-229h-475l-117 -264h-229l117 264h-201z" />
<glyph unicode="&#x2264;" horiz-adv-x="1079" d="M70 846v143l790 473l117 -184l-459 -285l-186 -71l184 -64l471 -280l-117 -185zM92 408l115 196l782 -440l-115 -197z" />
<glyph unicode="&#x2265;" horiz-adv-x="1079" d="M82 1278l117 184l800 -452v-144l-790 -473l-117 185l459 284l186 72l-184 63zM104 162l779 454l116 -196l-780 -453z" />
<glyph unicode="&#x25ca;" horiz-adv-x="1079" d="M55 700l404 744h153l412 -733l-412 -721h-153zM305 727l184 -319l58 -172h8l55 176l164 272l-186 322l-56 172h-10l-57 -177z" />
<glyph unicode="&#x25fc;" horiz-adv-x="1024" d="M0 0v1024h1024v-1024h-1024z" />
<glyph unicode="&#x2c67;" horiz-adv-x="1425" d="M123 0v1434h280v-584h525v584h280v-1184h181v-506h-197l-31 256h-233v600h-525v-600h-280z" />
<glyph unicode="&#x2c68;" horiz-adv-x="1208" d="M117 0v1434h266v-525h8q49 66 121 105t182 39q78 0 137.5 -20.5t99.5 -67.5t59.5 -128t19.5 -200v-401h164v-469h-195l-31 233h-205v582q0 125 -34.5 180t-126.5 55q-68 0 -124.5 -46t-74.5 -118v-653h-266z" />
<glyph unicode="&#xf401;" horiz-adv-x="4" d="M-792 1540l213 242h326v-62l-328 -180h-211z" />
<glyph unicode="&#xf406;" horiz-adv-x="1026" d="M123 1716l106 76q41 -53 119 -82t174 -29q98 0 169 31t112 80l100 -66q-25 -59 -65.5 -102t-92 -71.5t-109.5 -43t-116 -14.5q-55 0 -113.5 12.5t-111.5 38t-98 67.5t-74 103z" />
<glyph unicode="&#xf407;" horiz-adv-x="679" d="M123 -418l18 99q14 -2 26.5 -2.5t22.5 -0.5q78 0 100.5 18.5t22.5 43.5q0 57 -176 65l117 195h172l-49 -88q84 -8 132 -44t48 -110q0 -47 -23.5 -81.5t-64.5 -58.5t-96.5 -36t-118.5 -12t-131 12z" />
<glyph unicode="&#xf408;" horiz-adv-x="974" d="M123 1511v82l272 189h197l260 -191v-80h-203l-117 84l-40 70l-43 -68l-127 -86h-199z" />
<glyph unicode="&#xf409;" horiz-adv-x="546" d="M123 -215q0 59 40 94t99 35q72 0 117 -47t45 -133q0 -68 -22.5 -119t-55.5 -87t-69.5 -57.5t-63.5 -29.5l-70 110q29 14 57.5 40t32.5 69q-41 -2 -75.5 30t-34.5 95z" />
<glyph unicode="&#xf40a;" horiz-adv-x="456" d="M78 1319q0 59 40 96t101 37q74 0 117 -49t43 -129q0 -82 -25.5 -139.5t-61.5 -95.5t-76 -59.5t-66 -31.5l-68 113q41 18 72.5 49t35.5 78q-41 -2 -76.5 31.5t-35.5 99.5z" />
<glyph unicode="&#xf40b;" horiz-adv-x="604" d="M123 1636q0 51 44 88t132 37t135 -36.5t47 -88.5q0 -53 -47 -90t-135 -37t-132 37t-44 90z" />
<glyph unicode="&#xf40c;" horiz-adv-x="770" d="M123 1581q0 37 12 71t42 59.5t80 39.5t128 14q143 0 202.5 -49t59.5 -135q0 -37 -13 -69.5t-44 -56t-81 -38t-124 -14.5q-145 0 -203.5 50t-58.5 128zM295 1581q0 -63 90 -63q51 0 71.5 16t20.5 47q0 35 -21.5 51.5t-70.5 16.5q-90 0 -90 -68z" />
<glyph unicode="&#xf40d;" horiz-adv-x="1003" d="M123 1638q66 72 126 98.5t120 26.5q45 0 90 -11t87 -24.5t83 -24.5t78 -11q33 0 63.5 10t58.5 39l52 -137q-57 -53 -111.5 -75t-105.5 -22q-47 0 -90.5 11.5t-85.5 26t-82.5 25.5t-79.5 11t-77 -15.5t-77 -56.5z" />
<glyph unicode="&#xf40e;" horiz-adv-x="716" d="M123 -217q0 84 56.5 143.5t154.5 93.5h205q-156 -45 -156 -161q0 -37 22.5 -62.5t63.5 -25.5q37 0 86 24l39 -127q-31 -25 -97.5 -48t-138.5 -23q-115 0 -175 51t-60 135z" />
<glyph unicode="&#xf486;" horiz-adv-x="1210" d="M123 10v1413q39 6 89 12.5t107.5 10.5t118 6t119.5 2q100 0 195.5 -15.5t170 -54t119.5 -108.5t45 -176q0 -53 -13 -106.5t-44 -97.5t-80 -78t-119 -50v-12q61 -10 117 -35t96.5 -68t64.5 -104.5t24 -145.5q0 -111 -47.5 -191.5t-126 -131.5t-179 -75.5t-207.5 -24.5h-89 t-116.5 3t-127 9t-117.5 18zM377 1540l213 242h326v-62l-328 -180h-211zM393 223q10 -4 33 -6t48.5 -3t53 -2t47.5 -1q51 0 99.5 12.5t85.5 38t59.5 64.5t22.5 92q0 68 -27 106.5t-70 60t-96 27.5t-106 6h-150v-395zM393 831h90q29 0 67 2.5t62 6.5q78 25 134.5 74t56.5 128 q0 53 -20.5 88t-54.5 55.5t-77 29t-90 8.5q-53 0 -98 -2t-70 -7v-383z" />
<glyph unicode="&#xf487;" horiz-adv-x="1097" d="M117 45v1389h266v-492h8q43 49 110.5 78t149.5 29q184 0 281.5 -126t97.5 -384q0 -276 -136 -420t-374 -144q-131 0 -239.5 21.5t-163.5 48.5zM383 229q33 -16 71 -22t81 -6q109 0 165 78.5t56 250.5q-1 293 -183 293q-74 0 -119.5 -37.5t-70.5 -109.5v-447zM533 1159 l108 316h271v-62l-228 -254h-151z" />
<glyph unicode="&#xf488;" horiz-adv-x="1040" d="M123 0v1434h850v-250h-570v-355h525v-249h-525v-580h-280zM377 1540l213 242h326v-62l-328 -180h-211z" />
<glyph unicode="&#xf489;" horiz-adv-x="657" d="M23 799v225h141v57q0 195 82 282t237 87q164 0 273 -39l-51 -213q-47 16 -83 21.5t-75 5.5q-41 0 -64.5 -12.5t-35 -38t-14.5 -63.5t-3 -87h225v-225h-225v-799h-266v799h-141zM301 1540l213 242h326v-62l-328 -180h-211z" />
<glyph unicode="&#xf49e;" horiz-adv-x="1241" d="M-35 1053v190h158v191h280v-191h453v-190h-453v-197q53 31 142.5 56.5t212.5 25.5q86 0 156.5 -21.5t123 -69.5t81 -123t28.5 -181v-543h-281v455q0 123 -48 183t-159 60q-78 0 -146.5 -17t-109.5 -52v-629h-280v1053h-158z" />
<glyph unicode="&#xf49f;" horiz-adv-x="1138" d="M-12 1149v164h151v121h267v-121h329v-164h-329v-240h8q49 66 120.5 105t182.5 39q78 0 137 -20.5t99 -67.5t59.5 -128t19.5 -200v-637h-266v582q0 125 -35 180t-127 55q-68 0 -124 -46t-74 -118v-653h-267v1149h-151z" />
<glyph unicode="&#xf4c6;" horiz-adv-x="1241" d="M94 891v543h281v-455q0 -123 48 -183.5t159 -60.5q78 0 146.5 17.5t109.5 52.5v629h280v-1477q0 -186 -78.5 -284.5t-242.5 -98.5q-31 0 -65 3t-68 11v224q8 0 15 -1t15 -1q88 0 116 50t28 140v578q-53 -31 -142.5 -56.5t-212.5 -25.5q-86 0 -156.5 21.5t-122.5 69.5 t-81 122.5t-29 181.5z" />
<glyph unicode="&#xf4c7;" horiz-adv-x="1034" d="M68 676v348h266v-233q0 -63 5 -109.5t20.5 -75t43 -43t72.5 -14.5q59 0 103.5 13t72.5 34v428h267v-1067q0 -186 -74 -284.5t-236 -98.5q-61 0 -131 14v224q8 0 15.5 -1t15.5 -1q88 0 115.5 50t27.5 140v401q-31 -23 -94 -50t-170 -27q-76 0 -135 16t-100 57t-62.5 108.5 t-21.5 170.5z" />
<glyph unicode="&#xf4cc;" horiz-adv-x="1163" d="M-18 1434h329l291 -633l41 -187h12l33 193l215 627h289l-381 -992q-45 -117 -87 -202.5t-90 -142t-107.5 -84t-139.5 -27.5q-68 0 -109.5 9t-91.5 40l72 227q35 -18 63.5 -22t61.5 -4q96 0 135 151zM404 1540l213 242h326v-62l-328 -180h-211z" />
<glyph unicode="&#xf4cd;" horiz-adv-x="978" d="M-18 1024h319l188 -575l37 -160h13l26 162l156 573h274l-311 -924q-39 -115 -75 -210t-79 -164.5t-95 -107.5t-124 -38q-106 0 -170 35l49 213q31 -12 62 -12q47 0 91 40t67 144zM410 1159l108 316h271v-62l-228 -254h-151z" />
<glyph unicode="&#xf4d6;" horiz-adv-x="1175" d="M41 39l74 244q47 -23 127 -42.5t184 -19.5q80 0 147.5 22.5t119.5 70.5t85 122t41 178h-553v226h551q-6 82 -33.5 150.5t-74.5 117.5t-117 76.5t-158 27.5q-111 0 -192.5 -23.5t-132.5 -51.5l-60 237q72 37 180.5 62.5t214.5 25.5q141 0 261 -39t207 -128t136.5 -231 t49.5 -347q0 -213 -57.5 -356.5t-153.5 -229.5t-221 -123t-260 -37q-117 0 -212.5 20.5t-152.5 47.5zM299 1636q0 51 44 88t132 37t135 -36.5t47 -88.5q0 -53 -47 -90t-135 -37t-132 37t-44 90z" />
<glyph unicode="&#xf4d7;" horiz-adv-x="940" d="M47 45l66 209q47 -27 111.5 -42t129.5 -15q131 0 186.5 55t65.5 172h-383v190h381q-10 102 -67.5 157.5t-169.5 55.5q-78 0 -137.5 -18t-104.5 -43l-72 192q135 94 365 95q229 0 341.5 -136.5t112.5 -404.5q0 -270 -127 -405.5t-348 -135.5q-96 0 -194.5 19.5 t-155.5 54.5zM225 1313q0 59 44 101t122 42t126 -42t48 -101t-48 -99t-126 -40t-122 40t-44 99z" />
<glyph unicode="&#xf50a;" horiz-adv-x="1077" d="M37 47l72 244q47 -23 135 -46.5t209 -23.5q45 0 91 11.5t83 37t59.5 66.5t22.5 98q0 96 -72 145.5t-256 53.5q-25 2 -37 2h-43h-55v219h49h45t54.5 1t54 4t43.5 7q72 16 123 58.5t51 113.5q0 98 -62.5 134t-165.5 36q-92 0 -172 -24.5t-121 -46.5l-71 237 q23 12 64.5 26.5t96 28t118 21.5t128.5 8q90 0 176 -16.5t154 -57.5t109 -109.5t41 -174.5t-56.5 -196.5t-181.5 -131.5v-10q133 -27 208 -115t75 -235q0 -100 -36 -175t-95.5 -128.5t-138.5 -85t-167 -43.5l-28 -338h-181l-38 335q-92 10 -166 29t-119 41z" />
<glyph unicode="&#xf50b;" horiz-adv-x="884" d="M45 55l57 207q47 -27 115 -44t150 -17q184 0 184 118q0 53 -48 79t-179 26h-101v186h125q72 0 118 30t46 77q0 55 -40 77.5t-124 22.5q-80 0 -142.5 -21.5t-99.5 -43.5l-57 204q61 35 162.5 60.5t216.5 25.5q176 0 263 -65.5t87 -190.5q0 -35 -9 -70.5t-29.5 -68.5 t-50.5 -58.5t-71 -39.5v-8q109 -25 154 -87.5t45 -166.5t-69.5 -185.5t-217.5 -109.5l-28 -350h-180l-39 342q-78 8 -136.5 27.5t-101.5 43.5z" />
<glyph unicode="&#xf50c;" horiz-adv-x="1144" d="M78 717q0 211 58.5 353t151.5 229t207.5 125t229.5 38q123 0 208 -16t140 -39l-55 -238q-47 23 -111.5 33t-156.5 10q-170 0 -273.5 -120.5t-103.5 -374.5q0 -111 24.5 -202t74.5 -155.5t125 -100.5t173 -36q92 0 155.5 18.5t110.5 47.5l58 -230q-53 -39 -134 -59 t-172 -27l-32 -61q84 -8 132 -44t48 -110q0 -47 -23.5 -81.5t-64.5 -58.5t-96.5 -36t-118.5 -12t-131 12l18 99q14 -2 26.5 -2.5t22.5 -0.5q78 0 100.5 18.5t22.5 43.5q0 57 -176 65l102 172q-113 14 -211 62.5t-171.5 138.5t-115.5 223.5t-42 315.5z" />
<glyph unicode="&#xf50d;" horiz-adv-x="886" d="M68 512q0 260 116.5 400.5t339.5 140.5q113 0 181.5 -18.5t123.5 -47.5l-63 -217q-47 23 -93 35t-106 12q-111 0 -168 -72.5t-57 -232.5q0 -66 14.5 -121t43 -96t74.5 -64.5t108 -23.5q68 0 114.5 17.5t83.5 41.5l62 -203q-47 -35 -107.5 -55t-128.5 -31l-37 -65 q84 -8 132.5 -44t48.5 -110q0 -47 -24 -81.5t-64.5 -58.5t-96 -36t-119.5 -12q-63 0 -131 12l19 99q14 -2 26.5 -2.5t22.5 -0.5q78 0 100.5 18.5t22.5 43.5q0 57 -176 65l102 172q-100 12 -169.5 56.5t-113 113t-62.5 161.5t-19 204z" />
<glyph unicode="&#xf50e;" horiz-adv-x="1239" d="M0 0l516 1444h207l516 -1444h-295l-115 317h-440l-108 -317h-281zM275 1571v182h702v-182h-702zM461 543h307l-106 319l-44 225h-10l-43 -227z" />
<glyph unicode="&#xf50f;" horiz-adv-x="1015" d="M47 283q0 94 42 158.5t121 104.5t188.5 55t244.5 9q14 115 -16.5 165t-137.5 50q-80 0 -169 -16t-146 -43l-63 199q82 37 194.5 58t235.5 21q106 0 178 -25.5t113.5 -72.5t59 -112.5t17.5 -147.5q0 -90 -6 -181t-7 -179t5 -171t31 -157h-217l-43 141h-10 q-41 -63 -114 -109t-188 -46q-72 0 -129 21.5t-98 61t-63.5 94t-22.5 122.5zM186 1159v189h661v-189h-661zM322 324q0 -57 34 -89t93 -32q80 0 127 35.5t69 76.5v134q-63 6 -121.5 1.5t-103.5 -18.5t-71.5 -40.5t-26.5 -67.5z" />
<glyph unicode="&#xf510;" horiz-adv-x="1069" d="M123 0v1434h850v-250h-570v-334h519v-250h-519v-350h580v-250h-860zM199 1571v182h702v-182h-702z" />
<glyph unicode="&#xf511;" horiz-adv-x="1040" d="M68 512q0 270 129 405.5t362 135.5q78 0 151.5 -20.5t131 -67.5t92.5 -127t35 -199q0 -43 -5.5 -92t-15.5 -103h-614q6 -129 66.5 -194.5t195.5 -65.5q84 0 150.5 26t101.5 52l88 -174q-61 -49 -166.5 -83t-224.5 -34q-248 0 -362.5 144.5t-114.5 396.5zM199 1159v189 h661v-189h-661zM340 610h381q8 111 -34 170.5t-132 59.5q-104 0 -154.5 -62.5t-60.5 -167.5z" />
<glyph unicode="&#xf512;" horiz-adv-x="1069" d="M123 0v1434h850v-250h-570v-334h519v-250h-519v-350h580v-250h-860zM168 1634q0 53 37 86t119 33q80 0 116.5 -32.5t36.5 -86.5q0 -53 -37 -84.5t-116 -31.5q-82 0 -119 31.5t-37 84.5zM189 1831v182h702v-182h-702zM606 1634q0 53 37 86t117 33q82 0 118.5 -32.5 t36.5 -86.5q0 -53 -36.5 -84.5t-118.5 -31.5q-80 0 -117 31.5t-37 84.5z" />
<glyph unicode="&#xf513;" horiz-adv-x="1040" d="M68 512q0 270 129 405.5t362 135.5q78 0 151.5 -20.5t131 -67.5t92.5 -127t35 -199q0 -43 -5.5 -92t-15.5 -103h-614q6 -129 66.5 -194.5t195.5 -65.5q84 0 150.5 26t101.5 52l88 -174q-61 -49 -166.5 -83t-224.5 -34q-248 0 -362.5 144.5t-114.5 396.5zM168 1282 q0 66 40 105t105 39q66 0 104 -39t38 -105q0 -61 -38 -100t-104 -39t-105.5 39t-39.5 100zM184 1555v182h702v-182h-702zM340 610h381q8 111 -34 170.5t-132 59.5q-104 0 -154.5 -62.5t-60.5 -167.5zM616 1282q0 66 38 105t104 39t105.5 -39t39.5 -105q0 -61 -40 -100 t-105 -39q-66 0 -104 39t-38 100z" />
<glyph unicode="&#xf514;" horiz-adv-x="1069" d="M123 0v1434h850v-250h-570v-334h519v-250h-519v-350h580v-250h-860zM150 2028l254 41q8 -66 48 -94.5t103 -28.5q137 0 152 121l227 -35q-23 -129 -118 -188.5t-263 -59.5q-84 0 -153.5 12.5t-121.5 40t-86 74.5t-42 117zM168 1634q0 53 37 86t119 33q80 0 116.5 -32.5 t36.5 -86.5q0 -53 -37 -84.5t-116 -31.5q-82 0 -119 31.5t-37 84.5zM606 1634q0 53 37 86t117 33q82 0 118.5 -32.5t36.5 -86.5q0 -53 -36.5 -84.5t-118.5 -31.5q-80 0 -117 31.5t-37 84.5z" />
<glyph unicode="&#xf515;" horiz-adv-x="1040" d="M68 512q0 270 129 405.5t362 135.5q78 0 151.5 -20.5t131 -67.5t92.5 -127t35 -199q0 -43 -5.5 -92t-15.5 -103h-614q6 -129 66.5 -194.5t195.5 -65.5q84 0 150.5 26t101.5 52l88 -174q-61 -49 -166.5 -83t-224.5 -34q-248 0 -362.5 144.5t-114.5 396.5zM148 1733l254 41 q8 -66 48 -94.5t103 -28.5q137 0 152 121l227 -35q-23 -129 -118 -188.5t-263 -59.5q-84 0 -153.5 12.5t-121.5 40t-86 74.5t-42 117zM168 1294q0 66 40 105t105 39q66 0 104 -39t38 -105q0 -61 -38 -100t-104 -39t-105.5 39t-39.5 100zM340 610h381q8 111 -34 170.5 t-132 59.5q-104 0 -154.5 -62.5t-60.5 -167.5zM616 1294q0 66 38 105t104 39t105.5 -39t39.5 -105q0 -61 -40 -100t-105 -39q-66 0 -104 39t-38 100z" />
<glyph unicode="&#xf516;" horiz-adv-x="1077" d="M37 47l72 244q47 -23 135 -46.5t209 -23.5q45 0 91 11.5t83 37t59.5 66.5t22.5 98q0 96 -72 145.5t-256 53.5q-25 2 -37 2h-43h-55v219h49h45t54.5 1t54 4t43.5 7q72 16 123 58.5t51 113.5q0 98 -62.5 134t-165.5 36q-92 0 -172 -24.5t-121 -46.5l-71 237 q23 12 64.5 26.5t96 28t118 21.5t128.5 8q90 0 176 -16.5t154 -57.5t109 -109.5t41 -174.5t-56.5 -196.5t-181.5 -131.5v-10q133 -27 208 -115t75 -235q0 -117 -47.5 -200t-124 -136t-177 -79t-204.5 -26q-135 0 -246 22.5t-170 53.5zM127 1702v80h215l108 -92l39 -62l43 60 l115 94h205v-82l-273 -191h-192z" />
<glyph unicode="&#xf517;" horiz-adv-x="884" d="M45 55l57 207q47 -27 114 -43t149 -16q186 0 186 119q0 53 -48 77.5t-179 24.5h-101v186h125q72 0 118 29t46 76q0 55 -41 78.5t-125 23.5q-80 0 -141.5 -20.5t-98.5 -42.5l-57 202q61 35 162.5 60.5t216.5 25.5q176 0 263 -65.5t87 -190.5q0 -35 -9 -70.5t-29.5 -68.5 t-50.5 -58.5t-71 -39.5v-8q109 -25 154 -87.5t45 -166.5q0 -66 -26.5 -122t-81 -97t-136 -66t-194.5 -25t-196 24t-138 54zM72 1499h225l80 -135l33 -100l37 100l92 135h207l-252 -373h-187z" />
<glyph unicode="&#xf518;" horiz-adv-x="1372" d="M78 717q0 358 157.5 551.5t450.5 193.5q154 0 268.5 -53t190.5 -151.5t112.5 -235.5t36.5 -305q0 -358 -158.5 -552t-449.5 -194q-156 0 -270.5 53.5t-189 151.5t-111.5 235.5t-37 305.5zM342 1571v182h702v-182h-702zM373 717q0 -109 18.5 -200t56 -156.5t97 -102.5 t141.5 -37q150 0 231.5 117t81.5 379q0 104 -17 194t-54 158t-96.5 105.5t-145.5 37.5q-150 0 -231.5 -119.5t-81.5 -375.5z" />
<glyph unicode="&#xf519;" horiz-adv-x="1099" d="M68 512q0 260 127 400.5t356 140.5q123 0 213 -39t149.5 -109.5t89 -171t29.5 -221.5q0 -260 -126 -400.5t-355 -140.5q-123 0 -213 39t-150.5 109.5t-90 171t-29.5 221.5zM217 1159v189h661v-189h-661zM342 512q0 -68 12.5 -125t37 -100t64.5 -66.5t95 -23.5 q104 0 155.5 75.5t51.5 239.5q0 141 -47 228t-160 87q-98 0 -153.5 -73.5t-55.5 -241.5z" />
<glyph unicode="&#xf51a;" horiz-adv-x="1372" d="M78 717q0 358 157.5 551.5t450.5 193.5q154 0 268.5 -53t190.5 -151.5t112.5 -235.5t36.5 -305q0 -358 -158.5 -552t-449.5 -194q-156 0 -270.5 53.5t-189 151.5t-111.5 235.5t-37 305.5zM291 1749l254 41q8 -66 48 -94.5t103 -28.5q137 0 152 121l227 -35 q-23 -129 -118 -188.5t-263 -59.5q-84 0 -153.5 12.5t-121.5 40t-86 74.5t-42 117zM373 717q0 -109 18.5 -200t56 -156.5t97 -102.5t141.5 -37q150 0 231.5 117t81.5 379q0 104 -17 194t-54 158t-96.5 105.5t-145.5 37.5q-150 0 -231.5 -119.5t-81.5 -375.5z" />
</font>
</defs>
</svg>
