<svg xmlns="http://www.w3.org/2000/svg" width="68" height="68" viewBox="0 0 68 68">
	<path fill="#6F7A82" d="M11.1 58.5h45.1v9.2h-45.1z"/>
	<path fill="none" d="M18.8 7.9l8.2 8.5"/>
	<path fill="#6F7A82" d="M27 16.4c-1.5 2.1-2.2 4.7-2.2 7.6 0 3.7 1.1 6.7 3.3 9.1 2.2 2.4 5 3.5 8.4 3.5 5.1 0 7.8-1.9 11-6.2l7.1 7.8c-4.5 6-10.9 9-19 9-6.6 0-12.1-2.2-16.4-6.6-4.3-4.4-6.4-10-6.4-16.6 0-2.7.4-5.2 1.1-7.6 0 0 .8-3.7 5-8.5"/>
	<path opacity=".6" fill="#6F7A82" enable-background="new" d="M35.8.8c-6.6 0-12.1 2.2-16.5 6.7l-.5.5 8.2 8.5c.3-.5.7-1 1.2-1.4 2.2-2.4 4.9-3.6 8.2-3.6 4.6 0 6.8 1.6 9.8 5l7.4-7.6c-4.6-5.4-10.6-8.1-17.8-8.1zm10 10.6c-1.2 0-2.2-1-2.2-2.2 0-1.2 1-2.2 2.2-2.2s2.2 1 2.2 2.2c-.1 1.2-1 2.2-2.2 2.2z"/>
</svg>