<?xml version="1.0" encoding="UTF-8" standalone="no"?>
<!DOCTYPE svg PUBLIC "-//W3C//DTD SVG 1.1//EN" "http://www.w3.org/Graphics/SVG/1.1/DTD/svg11.dtd">
<svg xmlns="http://www.w3.org/2000/svg" version="1.1">
    <defs>
        <g id="logo-icon">
            <path d="M0.0836521739,33.2411912 L25.5642174,33.2411912 L25.5642174,38.4981618 L0.0836521739,38.4981618 L0.0836521739,33.2411912 Z" id="logo-icon-dash"></path>
            <path d="M14.3921304,20.7124412 C12.5037391,20.7124412 10.9426087,20.0488676 9.67143478,18.6855882 C8.40082609,17.3228824 7.7836087,15.5535441 7.7836087,13.4538529 C7.7836087,11.7820147 8.19,10.3275441 9.01917391,9.11108824 C9.2136087,8.82661765 9.43065217,8.55476471 9.67143478,8.29667647 C10.9426087,6.93339706 12.4681304,6.23311765 14.3192174,6.23311765 C16.933913,6.23311765 18.1683478,7.15420588 19.8741739,9.10707353 L24.05,4.75972059 C21.4720435,1.70166176 18.0954348,0.154852941 13.993087,0.154852941 C10.2536087,0.154852941 7.16695652,1.44357353 4.66134783,3.98602941 C4.5726087,4.07722059 4.40021739,4.26304412 4.40021739,4.26304412 C2.02686957,6.99648529 1.586,9.11108824 1.586,9.11108824 C1.17,10.4514265 0.958043478,11.8955735 0.958043478,13.4538529 C0.958043478,17.2483235 2.15630435,20.4537794 4.589,22.9962353 C7.02113043,25.5381176 10.1077826,26.7907059 13.8472609,26.7907059 C18.4583043,26.7907059 22.053087,25.0592206 24.5943043,21.6323824 L20.6004783,17.1382059 C18.8211739,19.6066765 17.2606087,20.7124412 14.3921304,20.7124412 Z" id="logo-icon-c"></path>
        </g>
        <g id="reports-icon" transform="translate(168)">
            <path d="M1.725,5.28630969 C1.725,5.21493767 1.78621491,5.15357143 1.85095978,5.15357143 L27.5776117,5.15357143 C27.6503712,5.15357143 27.7035714,5.2067892 27.7035714,5.28630969 L27.7035714,24.1422617 C27.7035714,24.2136338 27.6423565,24.275 27.5776117,24.275 L1.85095978,24.275 C1.77820019,24.275 1.725,24.2217822 1.725,24.1422617 L1.725,5.28630969 L1.725,5.28630969 Z M0.275,5.28630969 L0.275,24.1422617 C0.275,25.0224879 0.977280034,25.725 1.85095978,25.725 L27.5776117,25.725 C28.4439719,25.725 29.1535714,25.0136463 29.1535714,24.1422617 L29.1535714,5.28630969 C29.1535714,4.40608355 28.4512914,3.70357143 27.5776117,3.70357143 L1.85095978,3.70357143 C0.984599529,3.70357143 0.275,4.41492509 0.275,5.28630969 L0.275,5.28630969 Z" id="reports-icon-frame-1"></path>
            <path d="M5.67049944,3.73469785 C5.66917582,3.69686131 5.6671204,3.62578639 5.66504563,3.52917271 C5.66086494,3.33449401 5.65872386,3.12742842 5.65972048,2.92043368 C5.65642095,2.84801737 5.65441148,2.81906269 5.65248593,2.78054223 C5.64089863,2.54873913 5.64588545,2.28970084 5.67799075,2.05796441 C5.70338395,1.87467596 5.74351316,1.73549275 5.78381121,1.6669439 C5.77667995,1.67907451 5.70841007,1.725 5.63097767,1.725 L30.5046573,1.725 C30.5761232,1.725 30.6288859,1.77788776 30.6288859,1.85773826 L30.6288859,20.7136903 C30.6288859,20.7927329 30.5761957,20.8464286 30.506913,20.8464286 L28.4683109,20.8464286 C28.0679044,20.8464286 27.7433109,21.1710221 27.7433109,21.5714286 C27.7433109,21.971835 28.0679044,22.2964286 28.4683109,22.2964286 L30.506913,22.2964286 C31.3832073,22.2964286 32.0788859,21.5874753 32.0788859,20.7136903 L32.0788859,1.85773826 C32.0788859,0.977842137 31.3777054,0.275 30.5046573,0.275 L5.63097767,0.275 C4.75949044,0.275 4.36917217,0.938949513 4.24170921,1.85897864 C4.19517079,2.19489349 4.18856159,2.53820543 4.20429416,2.85293402 C4.20712273,2.90951949 4.2098674,2.94906776 4.21240276,2.97915211 C4.20867419,3.13425343 4.21094349,3.35371949 4.21537986,3.56030408 C4.21760253,3.6638047 4.21984453,3.74133125 4.22138586,3.78539144 C4.23538451,4.1855531 4.57112778,4.49860008 4.97128945,4.48460143 C5.37145111,4.47060278 5.68449809,4.13485951 5.67049944,3.73469785 L5.67049944,3.73469785 Z" id="reports-icon-frame-2"></path>
            <path d="M14.8750452,17.3035714 L24.4044415,17.3035714 C24.7772337,17.3035714 25.0794415,17.0013636 25.0794415,16.6285714 C25.0794415,16.2557792 24.7772337,15.9535714 24.4044415,15.9535714 L14.8750452,15.9535714 C14.502253,15.9535714 14.2000452,16.2557792 14.2000452,16.6285714 C14.2000452,17.0013636 14.502253,17.3035714 14.8750452,17.3035714 L14.8750452,17.3035714 Z" id="reports-icon-line-3"></path>
            <path d="M14.8750452,10.4464285 L24.4044415,10.4464286 C24.7772337,10.4464286 25.0794415,10.1442208 25.0794415,9.77142858 C25.0794415,9.39863637 24.7772337,9.09642857 24.4044415,9.09642857 L14.8750452,9.09642852 C14.502253,9.09642851 14.2000452,9.39863631 14.2000452,9.77142851 C14.2000452,10.1442207 14.502253,10.4464285 14.8750452,10.4464285 L14.8750452,10.4464285 Z" id="reports-icon-line-1"></path>
            <path d="M14.8750452,13.8749999 L24.4044415,13.875 C24.7772337,13.875 25.0794415,13.5727922 25.0794415,13.2 C25.0794415,12.8272078 24.7772337,12.525 24.4044415,12.525 L14.8750452,12.5249999 C14.502253,12.5249999 14.2000452,12.8272077 14.2000452,13.1999999 C14.2000452,13.5727921 14.502253,13.8749999 14.8750452,13.8749999 L14.8750452,13.8749999 Z" id="reports-icon-line-2"></path>
            <path d="M4.42857143,21.1035714 L24.4485971,21.1035715 C24.8213893,21.1035715 25.1235971,20.8013637 25.1235971,20.4285715 C25.1235971,20.0557793 24.8213893,19.7535715 24.4485971,19.7535715 L4.42857143,19.7535714 C4.05577922,19.7535714 3.75357143,20.0557792 3.75357143,20.4285714 C3.75357143,20.8013636 4.05577922,21.1035714 4.42857143,21.1035714 L4.42857143,21.1035714 Z" id="reports-icon-line-4"></path>
            <path d="M4.675,10.357091 C4.675,9.97771944 4.97675026,9.675 5.35709095,9.675 L10.642909,9.675 C11.0222806,9.675 11.325,9.97675026 11.325,10.357091 L11.325,15.642909 C11.325,16.0222806 11.0232497,16.325 10.642909,16.325 L5.35709095,16.325 C4.97771944,16.325 4.675,16.0232497 4.675,15.642909 L4.675,10.357091 L4.675,10.357091 Z M3.325,10.357091 L3.325,15.642909 C3.325,16.769805 4.2331024,17.675 5.35709095,17.675 L10.642909,17.675 C11.769805,17.675 12.675,16.7668976 12.675,15.642909 L12.675,10.357091 C12.675,9.23019504 11.7668976,8.325 10.642909,8.325 L5.35709095,8.325 C4.23019504,8.325 3.325,9.2331024 3.325,10.357091 L3.325,10.357091 Z" id="reports-icon-image"></path>
        </g>
        <g id="sources-icon" transform="translate(202)">
            <path d="M1.725,5.28630969 C1.725,5.21493767 1.78621491,5.15357143 1.85095978,5.15357143 L27.5776117,5.15357143 C27.6503712,5.15357143 27.7035714,5.2067892 27.7035714,5.28630969 L27.7035714,24.1422617 C27.7035714,24.2136338 27.6423565,24.275 27.5776117,24.275 L1.85095978,24.275 C1.77820019,24.275 1.725,24.2217822 1.725,24.1422617 L1.725,5.28630969 L1.725,5.28630969 Z M0.275,5.28630969 L0.275,24.1422617 C0.275,25.0224879 0.977280034,25.725 1.85095978,25.725 L27.5776117,25.725 C28.4439719,25.725 29.1535714,25.0136463 29.1535714,24.1422617 L29.1535714,5.28630969 C29.1535714,4.40608355 28.4512914,3.70357143 27.5776117,3.70357143 L1.85095978,3.70357143 C0.984599529,3.70357143 0.275,4.41492509 0.275,5.28630969 L0.275,5.28630969 Z" id="sources-icon-frame-1"></path>
            <path d="M5.67049944,3.73469785 C5.66917582,3.69686131 5.6671204,3.62578639 5.66504563,3.52917271 C5.66086494,3.33449401 5.65872386,3.12742842 5.65972048,2.92043368 C5.65642095,2.84801737 5.65441148,2.81906269 5.65248593,2.78054223 C5.64089863,2.54873913 5.64588545,2.28970084 5.67799075,2.05796441 C5.70338395,1.87467596 5.74351316,1.73549275 5.78381121,1.6669439 C5.77667995,1.67907451 5.70841007,1.725 5.63097767,1.725 L30.5046573,1.725 C30.5761232,1.725 30.6288859,1.77788776 30.6288859,1.85773826 L30.6288859,20.7136903 C30.6288859,20.7927329 30.5761957,20.8464286 30.506913,20.8464286 L28.4683109,20.8464286 C28.0679044,20.8464286 27.7433109,21.1710221 27.7433109,21.5714286 C27.7433109,21.971835 28.0679044,22.2964286 28.4683109,22.2964286 L30.506913,22.2964286 C31.3832073,22.2964286 32.0788859,21.5874753 32.0788859,20.7136903 L32.0788859,1.85773826 C32.0788859,0.977842137 31.3777054,0.275 30.5046573,0.275 L5.63097767,0.275 C4.75949044,0.275 4.36917217,0.938949513 4.24170921,1.85897864 C4.19517079,2.19489349 4.18856159,2.53820543 4.20429416,2.85293402 C4.20712273,2.90951949 4.2098674,2.94906776 4.21240276,2.97915211 C4.20867419,3.13425343 4.21094349,3.35371949 4.21537986,3.56030408 C4.21760253,3.6638047 4.21984453,3.74133125 4.22138586,3.78539144 C4.23538451,4.1855531 4.57112778,4.49860008 4.97128945,4.48460143 C5.37145111,4.47060278 5.68449809,4.13485951 5.67049944,3.73469785 L5.67049944,3.73469785 Z" id="sources-icon-frame-2"></path>
            <path d="M14.8750452,17.3035714 L24.4044415,17.3035714 C24.7772337,17.3035714 25.0794415,17.0013636 25.0794415,16.6285714 C25.0794415,16.2557792 24.7772337,15.9535714 24.4044415,15.9535714 L14.8750452,15.9535714 C14.502253,15.9535714 14.2000452,16.2557792 14.2000452,16.6285714 C14.2000452,17.0013636 14.502253,17.3035714 14.8750452,17.3035714 L14.8750452,17.3035714 Z" id="sources-icon-line-3"></path>
            <path d="M14.8750452,10.4464285 L24.4044415,10.4464286 C24.7772337,10.4464286 25.0794415,10.1442208 25.0794415,9.77142858 C25.0794415,9.39863637 24.7772337,9.09642857 24.4044415,9.09642857 L14.8750452,9.09642852 C14.502253,9.09642851 14.2000452,9.39863631 14.2000452,9.77142851 C14.2000452,10.1442207 14.502253,10.4464285 14.8750452,10.4464285 L14.8750452,10.4464285 Z" id="sources-icon-line-1"></path>
            <path d="M14.8750452,13.8749999 L24.4044415,13.875 C24.7772337,13.875 25.0794415,13.5727922 25.0794415,13.2 C25.0794415,12.8272078 24.7772337,12.525 24.4044415,12.525 L14.8750452,12.5249999 C14.502253,12.5249999 14.2000452,12.8272077 14.2000452,13.1999999 C14.2000452,13.5727921 14.502253,13.8749999 14.8750452,13.8749999 L14.8750452,13.8749999 Z" id="sources-icon-line-2"></path>
            <path d="M4.42857143,21.1035714 L24.4485971,21.1035715 C24.8213893,21.1035715 25.1235971,20.8013637 25.1235971,20.4285715 C25.1235971,20.0557793 24.8213893,19.7535715 24.4485971,19.7535715 L4.42857143,19.7535714 C4.05577922,19.7535714 3.75357143,20.0557792 3.75357143,20.4285714 C3.75357143,20.8013636 4.05577922,21.1035714 4.42857143,21.1035714 L4.42857143,21.1035714 Z" id="sources-icon-line-4"></path>
            <path d="M10.4345654,12.4245754 C11.00999,11.957043 11.3336663,11.2377622 11.3336663,10.4465534 C11.3336663,9.00799201 10.1828172,7.85714286 8.74425574,7.85714286 C7.30569431,7.85714286 6.15484515,9.00799201 6.15484515,10.4465534 C6.15484515,11.2377622 6.51448551,11.957043 7.05394605,12.4245754 C5.54345654,12.7842158 4.42857143,14.1508492 4.42857143,15.7332667 L4.42857143,16.3086913 C4.42857143,17.3156843 5.25574426,18.1428571 6.26273726,18.1428571 L11.1538462,18.1428571 C12.1608392,18.1428571 12.988012,17.3156843 12.988012,16.3086913 L12.988012,15.7332667 C13.023976,14.1148851 11.9090909,12.7842158 10.4345654,12.4245754 L10.4345654,12.4245754 Z M7.25848335,10.4465534 C7.25848335,9.61794961 7.91565191,8.96078105 8.74425574,8.96078105 C9.57285958,8.96078105 10.2300281,9.61794961 10.2300281,10.4465534 C10.2300281,11.2751573 9.57285958,11.9323258 8.74425574,11.9323258 C7.91565191,11.9323258 7.25848335,11.2751573 7.25848335,10.4465534 L7.25848335,10.4465534 Z M11.6341501,16.1044643 C11.6341501,16.6001243 11.2259595,17.0083149 10.7302995,17.0083149 L6.76501956,17.0083149 C6.26935957,17.0083149 5.86116899,16.6001243 5.86116899,16.1044643 L5.86116899,15.6379608 C5.86116899,14.4425455 6.85248897,13.4512256 8.04790425,13.4512256 L9.47657128,13.4512256 C10.6719866,13.4512256 11.6633065,14.4425455 11.6633065,15.6379608 L11.6633065,16.1044643 L11.6341501,16.1044643 Z" id="sources-icon-shape"></path>
        </g>
        <g id="stories-icon" transform="translate(145)">
            <path d="M1.725,5.28630969 C1.725,5.21116572 1.78198663,5.15357143 1.84893277,5.15357143 L16.1510672,5.15357143 C16.2223119,5.15357143 16.275,5.2064028 16.275,5.28630969 L16.275,24.1422617 C16.275,24.2174057 16.2180134,24.275 16.1510672,24.275 L1.84893277,24.275 C1.77768811,24.275 1.725,24.2221686 1.725,24.1422617 L1.725,5.28630969 L1.725,5.28630969 Z M0.275,5.28630969 L0.275,24.1422617 C0.275,25.0221015 0.975992542,25.725 1.84893277,25.725 L16.1510672,25.725 C17.0222892,25.725 17.725,25.0147961 17.725,24.1422617 L17.725,5.28630969 C17.725,4.40646995 17.0240075,3.70357143 16.1510672,3.70357143 L1.84893277,3.70357143 C0.977710841,3.70357143 0.275,4.41377535 0.275,5.28630969 L0.275,5.28630969 Z" id="stories-icon-frame-1"></path>
            <path d="M4.67049944,3.73469785 C4.66917582,3.69686131 4.6671204,3.62578639 4.66504563,3.52917271 C4.66086494,3.33449401 4.65872386,3.12742842 4.65972048,2.92043368 C4.65642095,2.84801737 4.65441148,2.81906269 4.65248593,2.78054223 C4.64089863,2.54873913 4.64588545,2.28970084 4.67799075,2.05796441 C4.70338395,1.87467596 4.74351316,1.73549275 4.78381121,1.6669439 C4.77667995,1.67907451 4.70841007,1.725 4.63097767,1.725 L19.5070939,1.725 C19.5767365,1.725 19.6288859,1.7774234 19.6288859,1.85773826 L19.6288859,20.7136903 C19.6288859,20.7892047 19.5725109,20.8464285 19.5092651,20.8464285 L17.7816324,20.8464284 C17.381226,20.8464283 17.0566324,21.1710219 17.0566324,21.5714283 C17.0566323,21.9718348 17.3812258,22.2964283 17.7816323,22.2964284 L19.509265,22.2964285 C20.3782143,22.2964286 21.0788859,21.5852072 21.0788859,20.7136903 L21.0788859,1.85773826 C21.0788859,0.978306489 20.3792552,0.275 19.5070939,0.275 L4.63097767,0.275 C3.75949044,0.275 3.36917217,0.938949513 3.24170921,1.85897864 C3.19517079,2.19489349 3.18856159,2.53820543 3.20429416,2.85293402 C3.20712273,2.90951949 3.2098674,2.94906776 3.21240276,2.97915211 C3.20867419,3.13425343 3.21094349,3.35371949 3.21537986,3.56030408 C3.21760253,3.6638047 3.21984453,3.74133125 3.22138586,3.78539144 C3.23538451,4.1855531 3.57112778,4.49860008 3.97128945,4.48460143 C4.37145111,4.47060278 4.68449809,4.13485951 4.67049944,3.73469785 L4.67049944,3.73469785 Z" id="stories-icon-frame-2"></path>
            <path d="M4.1607595,18.5892857 L14.1607595,18.5892857 C14.5335517,18.5892857 14.8357595,18.2870779 14.8357595,17.9142857 C14.8357595,17.5414935 14.5335517,17.2392857 14.1607595,17.2392857 L4.1607595,17.2392857 C3.7879673,17.2392857 3.4857595,17.5414934 3.4857595,17.9142857 C3.4857595,18.2870779 3.78796729,18.5892857 4.1607595,18.5892857 L4.1607595,18.5892857 Z" id="stories-icon-line-1"></path>
            <path d="M4.1607595,21.5892857 L14.1607595,21.5892857 C14.5335517,21.5892857 14.8357595,21.2870779 14.8357595,20.9142857 C14.8357595,20.5414935 14.5335517,20.2392857 14.1607595,20.2392857 L4.1607595,20.2392857 C3.7879673,20.2392857 3.4857595,20.5414934 3.4857595,20.9142857 C3.4857595,21.2870779 3.78796729,21.5892857 4.1607595,21.5892857 L4.1607595,21.5892857 Z" id="stories-icon-line-2"></path>
            <path d="M4.675,8.94488875 C4.675,8.79860369 4.82509264,8.675 4.99539757,8.675 L13.0046024,8.675 C13.1854284,8.675 13.325,8.7898494 13.325,8.94488875 L13.325,13.0551113 C13.325,13.2013964 13.1749074,13.3250001 13.0046024,13.3250001 L4.99539757,13.3250001 C4.81457159,13.3250001 4.675,13.2101507 4.675,13.0551113 L4.675,8.94488875 L4.675,8.94488875 Z M3.325,8.80197969 L3.325,13.1980202 C3.325,14.0201782 4.06903784,14.6749999 4.99539757,14.6749999 L13.0046024,14.6749999 C13.920678,14.6749999 14.675,14.0106067 14.675,13.1980202 L14.675,8.80197969 C14.675,7.97982172 13.9309622,7.325 13.0046024,7.325 L4.99539757,7.325 C4.079322,7.325 3.325,7.98939317 3.325,8.80197969 L3.325,8.80197969 Z" id="stories-icon-image"></path>
        </g>
        <g id="sections-icon" transform="translate(176)">
            <path d="M25.1873708,2.72596154 L11.0281208,2.72596154 C10.8246833,2.72596154 10.633,2.63025 10.5109375,2.46699519 L9.34878194,0.908653846 C8.98259444,0.418283654 8.40844861,0.1299375 7.79873889,0.1299375 L1.93762917,0.1299375 C0.867095833,0.1299375 0,1.00194231 0,2.07687981 L0,21.5478173 C0,22.6236635 0.867095833,23.4950625 1.93762917,23.4950625 L25.1876722,23.4950625 C26.2576028,23.4950625 27.1253014,22.6236635 27.1253014,21.5478173 L27.1253014,4.67320673 C27.125,3.59826923 26.2576028,2.72596154 25.1873708,2.72596154 M1.93762917,1.42779808 L7.58656111,1.42779808 C7.99313472,1.42779808 8.37589861,1.62073558 8.62002361,1.94785096 L9.78278194,3.50528365 C10.0269069,3.83149038 10.4096708,4.02442788 10.8159431,4.02442788 L25.1879736,4.02442788 C25.5445167,4.02442788 25.83385,4.31459135 25.83385,4.67350962 L25.83385,6.62075481 L1.29175278,6.62075481 L1.29175278,2.07748558 C1.29175278,1.71826442 1.58078472,1.42779808 1.93762917,1.42779808 M25.1873708,22.1972019 L1.93762917,22.1972019 C1.5813875,22.1972019 1.29175278,21.9067356 1.29175278,21.5478173 L1.29175278,7.91800962 L25.8335486,7.91800962 L25.8335486,21.5478173 C25.8332472,21.9067356 25.5439139,22.1972019 25.1873708,22.1972019"></path>
        </g>
        <g id="create-story-icon" transform="translate(57)">
            <path d="M24.7973633,4.44580076 L24.7973633,3.19722017 C24.7973633,1.53587565 23.4573801,0.192307692 21.7930641,0.192307692 C20.9264343,0.192307692 20.9264343,0.192307692 18.0278197,0.192307692 C17.3866369,0.192307692 17.3866369,0.192307692 16.7325005,0.192307692 C14.2453507,0.192307692 14.2453507,0.192307692 12.4702244,0.192307692 L3.14934226,0.192307692 C1.48844886,0.192307692 0.143084801,1.53233512 0.143084801,3.19353735 L0.143084801,5.03710937 L0.143084801,12.3452148 L0.143084801,29.0026475 C0.143084801,30.6580041 1.49042243,32 3.14652682,32 L11.1092433,32 C13.1104956,32 13.1104956,32 15.1223916,31.9999999 L21.7876571,31.9999994 C23.4479192,31.9999993 24.7973633,30.6525255 24.7973633,28.9964745 L24.7973633,11.7700198 C24.7973633,11.217735 24.349648,10.7700198 23.7973633,10.7700198 C23.2450785,10.7700198 22.7973633,11.217735 22.7973633,11.7700198 L22.7973633,28.9964745 C22.7973633,29.5473014 22.3440033,29.9999994 21.787657,29.9999994 L15.1223915,29.9999999 C13.1104956,30 13.1104956,30 11.1092433,30 L3.14652682,30 C2.59321729,30 2.1430848,29.5516521 2.1430848,29.0026475 L2.1430848,12.3452148 L2.1430848,5.03710937 L2.1430848,3.19353735 C2.1430848,2.638688 2.5912428,2.19230769 3.14934226,2.19230769 L12.4702244,2.19230769 C14.2453507,2.19230769 14.2453507,2.19230769 16.7325005,2.19230769 L18.0278197,2.19230769 C20.9264343,2.19230769 20.9264343,2.19230769 21.7930641,2.19230769 C22.3516127,2.19230769 22.7973633,2.63925076 22.7973633,3.19722017 L22.7973633,4.44580076 C22.7973633,4.99808551 23.2450785,5.44580076 23.7973633,5.44580076 C24.349648,5.44580076 24.7973633,4.99808551 24.7973633,4.44580076 L24.7973633,4.44580076 Z" id="create-story-icon-container"></path>
            <path d="M27.7690607,2.32238162 C27.7646224,2.32681985 27.76831,2.32684217 27.7702658,2.32879796 L29.7006407,4.25917288 C29.7069671,4.26549927 29.7069308,4.26050419 29.707057,4.26037799 L9.19574915,24.7716859 C8.94436457,25.0230705 8.36872131,25.3330444 8.01792565,25.4052209 L4.77622218,26.0722046 L5.9572341,27.2532165 L6.62421773,24.011513 C6.69668504,23.6593042 7.00362519,23.0878171 7.25775278,22.8336895 L27.7690607,2.32238162 L27.7690607,2.32238162 Z M26.3548471,0.908168063 L5.84353922,21.4194759 C5.31223842,21.9507767 4.81635707,22.8740505 4.66525283,23.6084541 L3.9982692,26.8501575 C3.85350605,27.5537418 4.47569683,28.1759326 5.17928111,28.0311695 L8.42098458,27.3641858 C9.15470693,27.2132217 10.0819386,26.7139236 10.6099627,26.1858994 L31.1212706,5.67459155 C31.9068252,4.88903696 31.8976708,3.62777586 31.1148543,2.84495931 L29.1844793,0.9145844 C28.4052823,0.1353874 27.1353162,0.127699008 26.3548471,0.908168063 L26.3548471,0.908168063 Z" id="create-story-icon-pencil"></path>
            <path d="M23.4721179,6.51328252 L24.7543382,7.79550279 L25.461445,8.50260957 L26.8756585,7.08839601 L26.1685518,6.38128923 L24.8863315,5.09906896 L24.1792247,4.39196217 L22.7650111,5.80617574 L23.4721179,6.51328252 L23.4721179,6.51328252 Z" id="create-story-icon-line"></path>
        </g>
        <g id="create-source-icon" transform="translate(56)">
            <path d="M15.5740741,29.9160342 L5.58518519,29.9160342 C3.75925926,29.9160342 2.25555556,28.3818786 2.25555556,26.5189753 L2.25555556,24.7656546 C2.25555556,20.2727704 5.90740741,16.5469639 10.3111111,16.5469639 L15.5740741,16.5469639 C18.5814815,16.5469639 21.2666667,18.1907021 22.662963,20.9302657 C22.9851852,21.4781784 23.6296296,21.6973435 24.1666667,21.3685958 C24.7037037,21.0398482 24.9185185,20.3823529 24.5962963,19.8344402 C23.2,17.0948767 20.7296296,15.2319734 17.937037,14.5744782 C19.6555556,13.1499051 20.6222222,10.9582543 20.6222222,8.54743833 C20.6222222,4.16413662 17.1851852,0.657495256 12.8888889,0.657495256 C8.59259259,0.657495256 5.15555556,4.16413662 5.15555556,8.54743833 C5.15555556,10.9582543 6.22962963,13.1499051 7.84074074,14.5744782 C3.32962963,15.6703036 -7.10542736e-15,19.8344402 -7.10542736e-15,24.6560721 L-7.10542736e-15,26.4093928 C-7.10542736e-15,29.477704 2.47037037,31.9981025 5.47777778,31.9981025 L15.4666667,31.9981025 C16.1111111,31.9981025 16.5407407,31.5597723 16.5407407,30.902277 C16.5407407,30.2447818 16.2185185,29.9160342 15.5740741,29.9160342 L15.5740741,29.9160342 Z M7.3037037,8.65702087 C7.3037037,5.47912713 9.77407407,2.95872865 12.8888889,2.95872865 C16.0037037,2.95872865 18.4740741,5.47912713 18.4740741,8.65702087 C18.4740741,11.8349146 16.0037037,14.3553131 12.8888889,14.3553131 C9.77407407,14.3553131 7.3037037,11.8349146 7.3037037,8.65702087 L7.3037037,8.65702087 Z" id="create-source-icon-shape"></path>
            <path d="M27.1740741,27.066888 L24.5962963,27.066888 L24.5962963,24.436907 C24.5962963,23.7794118 24.1666667,23.3410816 23.5222222,23.3410816 C22.8777778,23.3410816 22.4481481,23.7794118 22.4481481,24.436907 L22.4481481,27.066888 L19.8703704,27.066888 C19.2259259,27.066888 18.7962963,27.5052182 18.7962963,28.1627135 C18.7962963,28.8202087 19.2259259,29.2585389 19.8703704,29.2585389 L22.4481481,29.2585389 L22.4481481,31.7789374 C22.4481481,32.4364326 22.8777778,32.8747628 23.5222222,32.8747628 C24.1666667,32.8747628 24.5962963,32.4364326 24.5962963,31.7789374 L24.5962963,29.1489564 L27.1740741,29.1489564 C27.8185185,29.1489564 28.2481481,28.7106262 28.2481481,28.0531309 C28.2481481,27.3956357 27.8185185,27.066888 27.1740741,27.066888 L27.1740741,27.066888 Z" id="create-source-icon-plus"></path>
        </g>
        <g id="search-icon" transform="translate(91)">
            <path d="M18.341,15.512 C19.388,13.931 20,12.038 20,10 C20,4.476 15.524,0 10,0 C4.477,0 0,4.476 0,10 C0,15.523 4.477,20 10,20 C12.038,20 13.932,19.388 15.512,18.341 L20.586,23.414 C21.366,24.194 22.633,24.194 23.415,23.413 C24.195,22.632 24.195,21.365 23.415,20.585 L18.341,15.512 Z M2,10 C2,5.58857143 5.58857143,2 10,2 C14.4102857,2 18,5.58857143 18,10 C18,14.4102857 14.4102857,18 10,18 C5.58857143,18 2,14.4102857 2,10 Z"></path>
        </g>
        <g id="create-report-icon" transform="translate(29)">
            <path d="M10.4043186,18.37867 L10.4043186,23.9741933 L14.5077023,23.9741933 L14.5077023,18.37867 L20.1032256,18.37867 L20.1032256,14.2752863 L14.5077023,14.2752863 L14.5077023,8.74193548 L10.4043186,8.74193548 L10.4043186,14.2752863 L4.87096774,14.2752863 L4.87096774,18.37867 L10.4043186,18.37867 Z" id="create-report-icon-plus"></path>
            <path d="M2,2.99161703 C2,2.44623608 2.44755708,2 2.99428082,2 L18.1469742,2 C18.9258209,2 20.0237972,2.56977616 20.4757938,3.21147416 L22.6570782,6.30823628 C22.8578943,6.59333435 23.0516126,7.20444309 23.0516126,7.55551066 L23.0516126,28.9992784 C23.0516126,29.5556899 22.6071543,30 22.0426152,30 L12.8329464,30 L10.8270571,30 L8.82408512,30 L2.99986384,30 C2.44934056,30 2,29.5515559 2,29.008383 L2,2.99161703 L2,2.99161703 Z M0,2.99161703 L0,29.008383 C0,30.6570204 1.34566415,32 2.99986384,32 L8.82408512,32 L10.8270571,32 L12.8329464,32 L22.0426152,32 C23.7115746,32 25.0516126,30.6604088 25.0516126,28.9992784 L25.0516126,7.55551066 C25.0516126,6.79199644 24.7303841,5.77864058 24.2921736,5.15651457 L22.1108892,2.05975246 C21.2843092,0.8862596 19.5764595,0 18.1469742,0 L2.99428082,0 C1.34430883,0 0,1.34034101 0,2.99161703 L0,2.99161703 Z" id="create-report-icon-container"></path>
            <path d="M22.2851247,3.93535786 C21.2078311,2.65375865 18.4193548,1 18.4193548,1 L18.4193548,6.04735976 C18.4193548,7.15242265 19.319183,8.04825311 20.4251741,8.04825311 L24.3440138,8.04825311 C24.3440138,8.04825311 23.1827174,5.00317636 22.2851247,3.93535786 Z" id="create-report-icon-fold"></path>
        </g>
        <g id="updates-icon" transform="translate(176)">
            <path d="M26.5587692,4.6218368 L22.0246154,4.6218368 L22.0246154,1.320256 C22.0246154,0.4948608 21.5390769,0 20.7289231,0 L1.29538462,0 C0.485538462,0 0,0.4948608 0,1.320256 L0,25.748128 C0,26.5741504 0.485538462,27.0693248 1.29538462,27.0693248 L5.82984615,27.0693248 L5.82984615,30.0403712 C5.82984615,30.8657664 6.31569231,31.3606272 7.12553846,31.3606272 L26.5587692,31.3606272 C27.3689231,31.3606272 27.8544615,30.8657664 27.8544615,30.0403712 L27.8544615,5.9420928 C27.8544615,5.116384 27.3689231,4.6218368 26.5587692,4.6218368 L26.5587692,4.6218368 Z M1.94338462,24.4281856 L1.94338462,2.6408256 C1.94338462,2.228128 2.18615385,1.980384 2.59107692,1.980384 L19.4332308,1.980384 C19.8381538,1.980384 20.0809231,2.228128 20.0809231,2.6408256 L20.0809231,24.4281856 C20.0809231,24.8405696 19.8381538,25.088 19.4332308,25.088 L2.59107692,25.088 C2.18615385,25.088 1.94338462,24.8405696 1.94338462,24.4281856 L1.94338462,24.4281856 Z M25.9107692,28.7191744 C25.9107692,29.131872 25.668,29.3789888 25.2633846,29.3789888 L8.74492308,29.3789888 C8.34,29.3789888 8.09723077,29.1321856 8.09723077,28.7191744 L8.09723077,27.068384 L20.7289231,27.068384 C21.5390769,27.068384 22.0246154,26.5735232 22.0246154,25.7478144 L22.0246154,6.9324416 L25.2633846,6.9324416 C25.668,6.9324416 25.9107692,7.1795584 25.9107692,7.592256 L25.9107692,28.7191744 L25.9107692,28.7191744 Z" id="updates-icon-containers"></path>
            <path d="M11.9535224,7.91841062 C11.9535224,7.79559432 11.8579986,7.70007053 11.7351823,7.70007053 L11.2985021,7.70007053 C11.1756858,7.70007053 11.080162,7.79559432 11.080162,7.91841062 L11.080162,10.3201516 L9.55178145,10.3201516 C9.42896515,10.3201516 9.33344136,10.4156753 9.33344136,10.5384916 L9.33344136,10.9751718 C9.33344136,11.0979881 9.42896515,11.1935119 9.55178145,11.1935119 L11.7351823,11.1935119 C11.8579986,11.1935119 11.9535224,11.0979881 11.9535224,10.9751718 L11.9535224,7.91841062 Z M14.7919435,10.4401516 C14.7919435,12.4870899 13.1271003,14.151933 11.080162,14.151933 C9.03322375,14.151933 7.3683806,12.4870899 7.3683806,10.4401516 C7.3683806,8.39321326 9.03322375,6.72837011 11.080162,6.72837011 C13.1271003,6.72837011 14.7919435,8.39321326 14.7919435,10.4401516 L14.7919435,10.4401516 Z M16.3203241,10.4401516 C16.3203241,7.54714543 13.9731682,5.19998951 11.080162,5.19998951 C8.18715592,5.19998951 5.84,7.54714543 5.84,10.4401516 C5.84,13.3331577 8.18715592,15.6803136 11.080162,15.6803136 C13.9731682,15.6803136 16.3203241,13.3331577 16.3203241,10.4401516 L16.3203241,10.4401516 Z" id="updates-icon-clock"></path>
            <rect id="updates-icon-line" x="5.14" y="19.04" width="11.66" height="1.980384"></rect>
        </g>
        <g id="settings-icon" transform="translate(228)">
            <path d="M15.6225277,1.95078545 L16.6469389,4.83103385 C17.3341123,5.03019631 17.9944028,5.30474537 18.6079055,5.6451862 L21.3705554,4.33215533 L23.664756,6.62566952 L22.3510388,9.38671787 C22.6914796,10.0047964 22.966715,10.6605111 23.1643903,11.3507732 L26.0461259,12.3719813 L26.0461259,15.6178375 L23.1643903,16.6421343 C22.9666006,17.3309092 22.6913652,17.989827 22.3510388,18.6047025 L23.664756,21.3657508 L21.3705554,23.6607522 L18.6079055,22.3469205 C17.99303,22.6881621 17.3341123,22.9627112 16.6469389,23.161988 L15.6225277,26.0422364 L12.3783874,26.0422364 L11.3531755,23.161988 C10.6652013,22.9627112 10.006398,22.6881621 9.39140809,22.3469205 L6.62887259,23.6607522 L4.33535841,21.3657508 L5.64999081,18.6047025 C5.30954998,17.988111 5.03339938,17.3309092 4.83572406,16.6421343 L1.95547566,15.6178375 L1.95547566,12.3719813 L4.83572406,11.3507732 C5.03339938,10.6605111 5.30954998,10.0031949 5.64999081,9.38671787 L4.33524401,6.62566952 L6.6287582,4.33215533 L9.39129369,5.6451862 C10.0078851,5.30474537 10.6650869,5.03031071 11.3530611,4.83103385 L12.378273,1.95078545 L15.6225277,1.95078545 L15.6225277,1.95078545 Z M13.9995996,18.4164076 C16.438968,18.4164076 18.4172083,16.4381672 18.4172083,13.9987988 C18.4172083,11.5594305 16.438968,9.57970298 13.9995996,9.57970298 C11.5594305,9.57970298 9.58038935,11.5594305 9.58038935,13.9987988 C9.58038935,16.4381672 11.5594305,18.4164076 13.9995996,18.4164076 L13.9995996,18.4164076 Z M16.9974465,0 L15.621727,0 L12.3774723,0 L11.0009519,0 L10.538108,1.29587155 L9.83057218,3.28738177 C9.67773987,3.3469818 9.52467877,3.4096705 9.37401998,3.47716381 L7.46647601,2.56726248 L6.22242559,1.97743958 L5.24811962,2.95163116 L2.95403346,5.24354381 L1.97984189,6.21922252 L2.57035115,7.46338733 L3.47716381,9.37413437 C3.41115764,9.52467877 3.34846894,9.67533757 3.28966968,9.8274835 L1.29896023,10.5366208 L0,10.9962617 L0,12.3751844 L0,15.6202398 L0,17.0000776 L1.29896023,17.4604049 L3.28966968,18.1687414 C3.34846894,18.3191715 3.41115764,18.4730333 3.47716381,18.6220906 L2.57035115,20.5312361 L1.97972749,21.7759729 L2.95391907,22.7509652 L5.24823402,25.0444794 L6.22253999,26.0171838 L7.4665904,25.4272465 L9.37413437,24.5197475 C9.52547954,24.5847241 9.67773987,24.6475272 9.83068658,24.7072416 L10.5382224,26.6995526 L11.0010663,27.9953098 L12.3783874,27.9953098 L15.6225277,27.9953098 L16.9982473,27.9953098 L17.4610913,26.6995526 L18.1686271,24.7072416 C18.3223745,24.6476416 18.4746349,24.5848385 18.6250649,24.5197475 L20.5327232,25.4272465 L21.7767736,26.0171838 L22.7509652,25.0444794 L25.0460809,22.7509652 L26.0202725,21.7759729 L25.4288481,20.5312361 L24.5221498,18.6220906 C24.5880416,18.4715462 24.6507303,18.3192858 24.7104447,18.1687414 L26.7011542,17.4604049 L28,17.0000776 L28,15.6202398 L28,12.3751844 L28,10.9962617 L26.7011542,10.5366208 L24.7104447,9.8274835 C24.6508447,9.67533757 24.588156,9.52307724 24.5221498,9.37413437 L25.4288481,7.46338733 L26.0202725,6.21933692 L25.0460809,5.2436582 L22.7508508,2.95163116 L21.7766592,1.97743958 L20.5327232,2.56726248 L18.6250649,3.47716381 C18.4738341,3.4097849 18.3223745,3.3469818 18.1686271,3.28738177 L17.4610913,1.29587155 L16.9974465,0 L16.9974465,0 Z M13.9995996,16.4656221 C12.6387515,16.4656221 11.5327763,15.359647 11.5327763,13.9994852 C11.5327763,12.6393234 12.6387515,11.5318612 13.9995996,11.5318612 C15.3589606,11.5318612 16.4649358,12.6394378 16.4649358,13.9994852 C16.4649358,15.3595326 15.3597614,16.4656221 13.9995996,16.4656221 L13.9995996,16.4656221 L13.9995996,16.4656221 Z"></path>
        </g>
        <g id="support-icon" transform="translate(206)">
            <path d="M9.55882353,0 C4.28808824,0 0,4.28808824 0,9.55882353 C0,10.6145956 0.855992647,11.4705882 1.91176471,11.4705882 C2.96753676,11.4705882 3.82352941,10.6145956 3.82352941,9.55882353 C3.82352941,6.39628676 6.39628676,3.82352941 9.55882353,3.82352941 C12.7213603,3.82352941 15.2941176,6.39628676 15.2941176,9.55882353 C15.2941176,12.7213603 12.7213603,15.2941176 9.55882353,15.2941176 C8.50305147,15.2941176 7.64705882,16.1501103 7.64705882,17.2058824 L7.64705882,21.9852941 C7.64705882,23.0410662 8.50305147,23.8970588 9.55882353,23.8970588 C10.6145956,23.8970588 11.4705882,23.0410662 11.4705882,21.9852941 L11.4705882,18.9259926 C15.8279779,18.0375 19.1176471,14.1752574 19.1176471,9.55882353 C19.1176471,4.28808824 14.8290809,0 9.55882353,0 L9.55882353,0 Z" id="support-icon-head"></path>
            <circle id="support-icon-dot" cx="9.55882353" cy="28.6764706" r="1.91176471"></circle>
        </g>
        <g id="about-icon" transform="translate(258)">
            <path d="M14,0 C6.26808,0 0,6.26808 0,14 C0,21.73164 6.26808,27.99972 14,27.99972 C21.73192,27.99972 28,21.73164 28,14 C28,6.26808 21.73192,0 14,0 L14,0 Z M13.98236,6.32156 C14.29596,5.98108 14.67816,5.80804 15.11776,5.80804 C15.4742,5.80804 15.7878,5.93628 16.02328,6.17904 C16.26016,6.4204 16.38028,6.72924 16.38028,7.09604 C16.38028,7.5558 16.21956,7.9646 15.90288,8.31096 C15.57752,8.66824 15.197,8.84996 14.77308,8.84996 C14.42308,8.84996 14.11312,8.71864 13.8768,8.47028 C13.64272,8.22696 13.52316,7.90888 13.52316,7.5264 C13.52316,7.05796 13.67772,6.65252 13.98236,6.32156 L13.98236,6.32156 Z M16.31448,19.51152 C15.15388,20.60296 14.32536,21.28336 13.78272,21.59248 C13.20368,21.924 12.72656,22.08584 12.32476,22.08584 C11.92548,22.08584 11.59984,21.95284 11.35624,21.69104 C11.1202,21.43792 11.00064,21.09604 11.00064,20.67604 C11.00064,19.60252 11.6088,17.1094 12.86068,13.05416 C12.88196,12.98556 12.89848,12.92032 12.90968,12.85956 C12.86292,12.87972 12.80888,12.90828 12.74616,12.9472 C12.64368,13.01188 12.33148,13.25688 11.41784,14.14952 C11.2784,14.28588 11.06028,14.29848 10.906,14.17892 L10.3656,13.76088 C10.27936,13.69452 10.22504,13.59484 10.21552,13.4862 C10.206,13.37784 10.2424,13.27032 10.31548,13.18968 C11.15744,12.2626 11.9434,11.58948 12.6518,11.18908 C13.39324,10.77132 14.02016,10.56804 14.56756,10.56804 C14.92148,10.56804 15.20736,10.65596 15.41792,10.83012 C15.64696,11.02108 15.76792,11.28624 15.76792,11.59732 C15.76792,11.80144 15.67104,12.33316 14.95592,14.73136 C13.93448,18.158 13.69032,19.40176 13.6738,19.83212 C13.867,19.71788 14.32424,19.39308 15.30032,18.4758 C15.45236,18.33188 15.69092,18.33468 15.84016,18.48028 L16.31924,18.94732 C16.39568,19.0218 16.43852,19.124 16.4374,19.23068 C16.43628,19.33736 16.39204,19.43844 16.31448,19.51152 L16.31448,19.51152 Z"></path>
        </g>
    </defs>
</svg>