<svg width="212" height="40" viewBox="0 0 212 40" xmlns="http://www.w3.org/2000/svg" xmlns:sketch="http://www.bohemiancoding.com/sketch/ns"><title>icons</title><desc>Created with Sketch.</desc>
	<g sketch:type="MSArtboardGroup" fill="#000">
		<g id="logo-icon">
			<path d="M26.787 33.916h-25.816v4.917h12.06l13.756-.003v-4.914z" sketch:type="MSShapeGroup"/>
			<path d="M5.344 5.041l4.681 4.796" sketch:type="MSShapeGroup"/>
			<path d="M10.025 9.837c-.841 1.203-1.252 2.642-1.252 4.296 0 2.077.625 3.826 1.913 5.174 1.287 1.348 2.869 2.004 4.782 2.004 2.906 0 4.488-1.093 6.29-3.535l4.046 4.446c-2.575 3.389-6.217 5.101-10.888 5.101-3.789 0-6.916-1.239-9.38-3.753-2.465-2.515-3.679-5.685-3.679-9.438 0-1.542.215-2.97.637-4.296 0 0 .446-2.092 2.851-4.796l4.681 4.796zm5.369-2.847c2.649 0 3.899.911 5.628 2.842l4.23-4.3c-2.612-3.025-6.033-4.555-10.19-4.555-3.789 0-6.916 1.275-9.454 3.79l-.265.274 4.681 4.796c.197-.281.417-.55.661-.806 1.287-1.348 2.832-2.041 4.709-2.041zm5.406.003c-.686 0-1.241-.55-1.241-1.229 0-.678.556-1.23 1.241-1.23.686 0 1.241.551 1.241 1.23 0 .679-.555 1.229-1.241 1.229z" sketch:type="MSShapeGroup"/>
		</g>
		<g sketch:type="MSLayerGroup">
			<path id="Rectangle-path" sketch:type="MSShapeGroup" d="M121.67 15.96h10.411v1.768h-10.411zM121.67 10.64h10.411v1.768h-10.411zM121.67 5.32h10.411v1.768h-10.411z"/>
			<path d="M140.713 4.127h-4.048v-2.948c0-.737-.434-1.179-1.157-1.179h-17.351c-.723 0-1.157.442-1.157 1.179v21.811c0 .738.434 1.18 1.157 1.18h4.049v2.653c0 .737.434 1.179 1.157 1.179h17.351c.723 0 1.157-.442 1.157-1.179v-21.516c0-.737-.434-1.179-1.157-1.179zm-21.978 17.684v-19.453c0-.368.217-.59.578-.59h15.038c.362 0 .578.221.578.59v19.453c0 .368-.217.589-.578.589h-15.038c-.362 0-.578-.221-.578-.589zm21.399 3.831c0 .368-.217.589-.578.589h-14.749c-.362 0-.578-.22-.578-.589v-1.474h11.278c.723 0 1.157-.442 1.157-1.179v-16.799h2.892c.361 0 .578.221.578.589v18.863z" id="Shape" sketch:type="MSShapeGroup"/>
		</g>
		<g sketch:type="MSLayerGroup">
			<path d="M174 0h-26.737v4.43h-3.263v19.57h26.419v-2.416h3.581v-21.584zm-5.172 22.389h-23.236v-16.349h23.236v16.349zm3.581-2.416h-1.989v-15.544h-21.565v-2.819h23.554v18.362zM153.151 8.134h-5.252v8.456h5.252v-8.456zm-1.592 6.846h-2.069v-5.235h2.069v5.235z" id="Shape" sketch:type="MSShapeGroup"/>
			<path sketch:type="MSShapeGroup" d="M154.584 11.597h12.016v1.611h-12.016zM154.584 8.134h12.016v1.611h-12.016zM154.584 15.141h12.016v1.611h-12.016zM147.342 18.765h19.416v1.611h-19.416z"/>
		</g>
		<g>
			<path d="M87.587 3.754l-3.491-3.259c-.281-.262-.663-.41-1.061-.41-.398 0-.78.147-1.061.41l-.846.79c-.545-.693-1.423-1.143-2.415-1.143h-17.859c-1.657 0-3 1.254-3 2.8v22.225c0 1.546 1.343 2.8 3 2.8h17.859c1.657 0 3-1.254 3-2.8v-13.951l5.874-5.483c.587-.547.587-1.433 0-1.98zm-7.976 2.907l1.37 1.279-10.509 9.809-2.575 1.125 1.205-2.403 10.509-9.809zm-.898 18.506h-17.859v-22.225h17.859v.598l-11.919 11.124c-.123.115-.224.249-.298.397l-3.071 6.125c-.268.533-.149 1.167.298 1.583.288.269.671.41 1.061.41.215 0 .432-.043.635-.132l6.563-2.866c.158-.069.302-.163.425-.278l6.306-5.886v11.151zm4.389-19.208l-1.37-1.279 1.303-1.216 1.37 1.279-1.303 1.216zM114.415 20.585l-5.074-5.073c1.047-1.581 1.659-3.474 1.659-5.512 0-5.524-4.476-10-10-10-5.523 0-10 4.476-10 10 0 5.523 4.477 10 10 10 2.038 0 3.932-.612 5.512-1.659l5.074 5.073c.78.78 2.047.78 2.829-.001.78-.781.78-2.048 0-2.828zm-13.415-3.585c-3.86 0-7-3.141-7-7 0-3.86 3.14-7 7-7 3.859 0 7 3.14 7 7 0 3.859-3.141 7-7 7z" id="Shape" sketch:type="MSShapeGroup"/>
		</g>
		<g sketch:type="MSLayerGroup">
			<path d="M48.331.116h-18.124c-.607 0-1.099.492-1.099 1.101v30.799c0 .606.492 1.1 1.099 1.1h23.62c.605 0 1.096-.494 1.096-1.1v-25.299l-6.592-6.601zm4.442 29.333c0 .505-.41.916-.916.916h-19.682c-.505 0-.917-.41-.917-.916v-25.667c0-.505.412-.916.917-.916h15.103v3.4859999999999998c0 .507.364.917.869.917h4.627v22.182000000000002zM50.508 18.119l-1.477-2.15h-4.366v-4.374l-2.146-1.481-2.15 1.481v4.374h-4.366l-1.48 2.15 1.48 2.152h4.366v4.372l2.15 1.477 2.146-1.477v-4.372h4.366l1.477-2.152z" id="Shape" sketch:type="MSShapeGroup"/>
		</g>
		<g>
			<path d="M204.786 3.115h-16.182c-.232 0-.452-.109-.591-.296l-1.328-1.781c-.418-.56-1.075-.89-1.771-.89h-6.698c-1.223 0-2.214.997-2.214 2.225v22.252c0 1.23.991 2.225 2.214 2.225h26.571c1.223 0 2.214-.996 2.214-2.225v-19.285c0-1.228-.992-2.225-2.215-2.225m-26.571-1.484h6.456c.465 0 .902.221 1.181.594l1.329 1.78c.279.373.716.593 1.181.593h16.425c.407 0 .738.332.738.742v2.225h-28.048v-5.192c0-.411.33-.743.738-.743m26.571 23.736h-26.571c-.407 0-.738-.332-.738-.742v-15.577h28.048v15.577c0 .41-.331.742-.738.742" sketch:type="MSShapeGroup"/>
		</g>
	</g>
</svg>