<?xml version="1.0" encoding="UTF-8" standalone="no"?>
<!DOCTYPE svg PUBLIC "-//W3C//DTD SVG 1.1//EN" "http://www.w3.org/Graphics/SVG/1.1/DTD/svg11.dtd">
<svg xmlns="http://www.w3.org/2000/svg" version="1.1">
    <defs>
        <g id="logo-icon">
            <path d="M0.0836521739,33.2411912 L25.5642174,33.2411912 L25.5642174,38.4981618 L0.0836521739,38.4981618 L0.0836521739,33.2411912 Z" id="logo-icon-dash"></path>
            <path d="M14.3921304,20.7124412 C12.5037391,20.7124412 10.9426087,20.0488676 9.67143478,18.6855882 C8.40082609,17.3228824 7.7836087,15.5535441 7.7836087,13.4538529 C7.7836087,11.7820147 8.19,10.3275441 9.01917391,9.11108824 C9.2136087,8.82661765 9.43065217,8.55476471 9.67143478,8.29667647 C10.9426087,6.93339706 12.4681304,6.23311765 14.3192174,6.23311765 C16.933913,6.23311765 18.1683478,7.15420588 19.8741739,9.10707353 L24.05,4.75972059 C21.4720435,1.70166176 18.0954348,0.154852941 13.993087,0.154852941 C10.2536087,0.154852941 7.16695652,1.44357353 4.66134783,3.98602941 C4.5726087,4.07722059 4.40021739,4.26304412 4.40021739,4.26304412 C2.02686957,6.99648529 1.586,9.11108824 1.586,9.11108824 C1.17,10.4514265 0.958043478,11.8955735 0.958043478,13.4538529 C0.958043478,17.2483235 2.15630435,20.4537794 4.589,22.9962353 C7.02113043,25.5381176 10.1077826,26.7907059 13.8472609,26.7907059 C18.4583043,26.7907059 22.053087,25.0592206 24.5943043,21.6323824 L20.6004783,17.1382059 C18.8211739,19.6066765 17.2606087,20.7124412 14.3921304,20.7124412 Z" id="logo-icon-c"></path>
        </g>
        <g id="reports-icon" transform="translate(117)">
            <rect id="reports-icon-line-3" x="4.67032967" y="15.96" width="10.4107143" height="1.7682"></rect>
            <rect id="reports-icon-line-2" x="4.67032967" y="10.64" width="10.4107143" height="1.7682"></rect>
            <rect id="reports-icon-line-1" x="4.67032967" y="5.32" width="10.4107143" height="1.7682"></rect>
            <path d="M23.7131868,4.12664 L19.6648352,4.12664 L19.6648352,1.1788 C19.6648352,0.44184 19.2313187,0 18.507967,0 L1.15659341,0 C0.433516484,0 0,0.44184 0,1.1788 L0,22.9894 C0,23.72692 0.433516484,24.16904 1.15659341,24.16904 L5.20521978,24.16904 L5.20521978,26.82176 C5.20521978,27.55872 5.63901099,28.00056 6.36208791,28.00056 L23.7131868,28.00056 C24.4365385,28.00056 24.8700549,27.55872 24.8700549,26.82176 L24.8700549,5.30544 C24.8700549,4.5682 24.4365385,4.12664 23.7131868,4.12664 L23.7131868,4.12664 Z M1.73516484,21.81088 L1.73516484,2.35788 C1.73516484,1.9894 1.95192308,1.7682 2.31346154,1.7682 L17.3510989,1.7682 C17.7126374,1.7682 17.9293956,1.9894 17.9293956,2.35788 L17.9293956,21.81088 C17.9293956,22.17908 17.7126374,22.4 17.3510989,22.4 L2.31346154,22.4 C1.95192308,22.4 1.73516484,22.17908 1.73516484,21.81088 L1.73516484,21.81088 Z M23.1346154,25.64212 C23.1346154,26.0106 22.9178571,26.23124 22.5565934,26.23124 L7.80796703,26.23124 C7.44642857,26.23124 7.22967033,26.01088 7.22967033,25.64212 L7.22967033,24.1682 L18.507967,24.1682 C19.2313187,24.1682 19.6648352,23.72636 19.6648352,22.98912 L19.6648352,6.18968 L22.5565934,6.18968 C22.9178571,6.18968 23.1346154,6.41032 23.1346154,6.7788 L23.1346154,25.64212 L23.1346154,25.64212 Z" id="reports-icon-containers"></path>
        </g>
        <g id="stories-icon" transform="translate(144)">
            <path d="M30,0 L3.26259947,0 L3.26259947,4.4295302 L0,4.4295302 L0,24 L26.4190981,24 L26.4190981,21.5838926 L30,21.5838926 L30,0 L30,0 Z M24.8275862,22.3892617 L1.59151194,22.3892617 L1.59151194,6.04026846 L24.8275862,6.04026846 L24.8275862,22.3892617 L24.8275862,22.3892617 Z M28.4084881,19.9731544 L26.4190981,19.9731544 L26.4190981,4.4295302 L4.85411141,4.4295302 L4.85411141,1.61073826 L28.4084881,1.61073826 L28.4084881,19.9731544 L28.4084881,19.9731544 Z" id="stories-icon-containers"></path>
            <path d="M9.15119363,8.13422819 L3.89920424,8.13422819 L3.89920424,16.590604 L9.15119363,16.590604 L9.15119363,8.13422819 L9.15119363,8.13422819 Z M7.5596817,14.9798658 L5.49071618,14.9798658 L5.49071618,9.74496644 L7.5596817,9.74496644 L7.5596817,14.9798658 L7.5596817,14.9798658 Z" id="stories-icon-image"></path>
            <rect id="stories-icon-line-1" x="10.5835544" y="8.13422819" width="12.0159151" height="1.61073826"></rect>
            <rect id="stories-icon-line-2" x="10.5835544" y="11.5973154" width="12.0159151" height="1.61073826"></rect>
            <rect id="stories-icon-line-3" x="10.5835544" y="15.1409396" width="12.0159151" height="1.61073826"></rect>
            <rect id="stories-icon-line-4" x="3.34217507" y="18.7651007" width="19.4164456" height="1.61073826"></rect>
        </g>
        <g id="sections-icon" transform="translate(176)">
            <path d="M25.1873708,2.72596154 L11.0281208,2.72596154 C10.8246833,2.72596154 10.633,2.63025 10.5109375,2.46699519 L9.34878194,0.908653846 C8.98259444,0.418283654 8.40844861,0.1299375 7.79873889,0.1299375 L1.93762917,0.1299375 C0.867095833,0.1299375 0,1.00194231 0,2.07687981 L0,21.5478173 C0,22.6236635 0.867095833,23.4950625 1.93762917,23.4950625 L25.1876722,23.4950625 C26.2576028,23.4950625 27.1253014,22.6236635 27.1253014,21.5478173 L27.1253014,4.67320673 C27.125,3.59826923 26.2576028,2.72596154 25.1873708,2.72596154 M1.93762917,1.42779808 L7.58656111,1.42779808 C7.99313472,1.42779808 8.37589861,1.62073558 8.62002361,1.94785096 L9.78278194,3.50528365 C10.0269069,3.83149038 10.4096708,4.02442788 10.8159431,4.02442788 L25.1879736,4.02442788 C25.5445167,4.02442788 25.83385,4.31459135 25.83385,4.67350962 L25.83385,6.62075481 L1.29175278,6.62075481 L1.29175278,2.07748558 C1.29175278,1.71826442 1.58078472,1.42779808 1.93762917,1.42779808 M25.1873708,22.1972019 L1.93762917,22.1972019 C1.5813875,22.1972019 1.29175278,21.9067356 1.29175278,21.5478173 L1.29175278,7.91800962 L25.8335486,7.91800962 L25.8335486,21.5478173 C25.8332472,21.9067356 25.5439139,22.1972019 25.1873708,22.1972019"></path>
        </g>
        <g id="create-story-icon" transform="translate(57)">
            <path d="M30.58675,3.75375 L27.0955,0.4949 C26.81425,0.2324 26.4325,0.08505 26.035,0.08505 C25.63675,0.08505 25.255375,0.2324 24.9745,0.4949 L24.128125,1.28485 C23.582875,0.59185 22.705,0.14175 21.71275,0.14175 L3.853375,0.14175 C2.196625,0.14175 0.853375,1.39545 0.853375,2.94175 L0.853375,25.1671 C0.853375,26.7134 2.196625,27.9671 3.853375,27.9671 L21.71275,27.9671 C23.3695,27.9671 24.71275,26.7134 24.71275,25.1671 L24.71275,11.21645 L30.58675,5.7337 C31.17325,5.18665 31.17325,4.30045 30.58675,3.75375 L30.58675,3.75375 Z M22.610875,6.66085 L23.981125,7.93975 L13.47175,17.7485 L10.896625,18.8734 L12.101875,16.46995 L22.610875,6.66085 L22.610875,6.66085 Z M21.71275,25.1671 L3.853375,25.1671 L3.853375,2.94175 L21.71275,2.94175 L21.71275,3.53955 L9.794125,14.6636 C9.67075,14.7784 9.569875,14.9128 9.496,15.06015 L6.425125,21.18515 C6.157375,21.71855 6.276625,22.3517 6.72325,22.7682 C7.010875,23.037 7.3945,23.1784 7.784125,23.1784 C7.999,23.1784 8.216125,23.13535 8.419375,23.04645 L14.981875,20.1803 C15.13975,20.11135 15.28375,20.0172 15.40675,19.90205 L21.71275,14.01645 L21.71275,25.1671 L21.71275,25.1671 Z M26.102125,5.95945 L24.731875,4.6809 L26.035375,3.46465 L27.40525,4.74355 L26.102125,5.95945 L26.102125,5.95945 Z"></path>
        </g>
        <g id="search-icon" transform="translate(91)">
            <path d="M23.415,20.585 L18.341,15.512 C19.388,13.931 20,12.038 20,10 C20,4.476 15.524,0 10,0 C4.477,0 0,4.476 0,10 C0,15.523 4.477,20 10,20 C12.038,20 13.932,19.388 15.512,18.341 L20.586,23.414 C21.366,24.194 22.633,24.194 23.415,23.413 C24.195,22.632 24.195,21.365 23.415,20.585 L23.415,20.585 Z M10,17 C6.14,17 3,13.859 3,10 C3,6.14 6.14,3 10,3 C13.859,3 17,6.14 17,10 C17,13.859 13.859,17 10,17 L10,17 Z"></path>
        </g>
        <g id="create-report-icon" transform="translate(29)">
            <path d="M19.3308169,0.115866667 L1.20661972,0.115866667 C0.599830986,0.115866667 0.107661972,0.607933333 0.107661972,1.2166 L0.107661972,32.0158667 C0.107661972,32.6219667 0.599830986,33.1158667 1.20661972,33.1158667 L24.826338,33.1158667 C25.4312958,33.1158667 25.9227324,32.6219667 25.9227324,32.0158667 L25.9227324,6.71733333 L19.3308169,0.115866667 L19.3308169,0.115866667 Z M23.7731549,29.4492 C23.7731549,29.9544667 23.3630141,30.3647667 22.8569296,30.3647667 L3.17456338,30.3647667 C2.66957746,30.3647667 2.25797183,29.9544667 2.25797183,29.4492 L2.25797183,3.7818 C2.25797183,3.27653333 2.66957746,2.8655 3.17456338,2.8655 L18.2776338,2.8655 L18.2776338,3.92003333 L18.2776338,6.3514 C18.2776338,6.8585 18.6412676,7.26806667 19.1466197,7.26806667 L23.7731549,7.26806667 L23.7731549,8.3677 L23.7731549,29.4492 L23.7731549,29.4492 Z" id="create-report-icon-file"></path>
            <path d="M21.5083377,18.119322 L20.0317566,15.9696387 L15.6654248,15.9696387 L15.6654248,11.5961084 L13.5190269,10.1155 L11.3694317,11.5961084 L11.3694317,15.9696387 L7.00309991,15.9696387 L5.52278873,18.119322 L7.00309991,20.271673 L11.3694317,20.271673 L11.3694317,24.6441362 L13.5190269,26.1215433 L15.6654248,24.6441362 L15.6654248,20.271673 L20.0317566,20.271673 L21.5083377,18.119322 Z" id="create-report-icon-plus"></path>
        </g>
        <g id="updates-icon" transform="translate(176)">
            <path d="M26.5587692,4.6218368 L22.0246154,4.6218368 L22.0246154,1.320256 C22.0246154,0.4948608 21.5390769,0 20.7289231,0 L1.29538462,0 C0.485538462,0 0,0.4948608 0,1.320256 L0,25.748128 C0,26.5741504 0.485538462,27.0693248 1.29538462,27.0693248 L5.82984615,27.0693248 L5.82984615,30.0403712 C5.82984615,30.8657664 6.31569231,31.3606272 7.12553846,31.3606272 L26.5587692,31.3606272 C27.3689231,31.3606272 27.8544615,30.8657664 27.8544615,30.0403712 L27.8544615,5.9420928 C27.8544615,5.116384 27.3689231,4.6218368 26.5587692,4.6218368 L26.5587692,4.6218368 Z M1.94338462,24.4281856 L1.94338462,2.6408256 C1.94338462,2.228128 2.18615385,1.980384 2.59107692,1.980384 L19.4332308,1.980384 C19.8381538,1.980384 20.0809231,2.228128 20.0809231,2.6408256 L20.0809231,24.4281856 C20.0809231,24.8405696 19.8381538,25.088 19.4332308,25.088 L2.59107692,25.088 C2.18615385,25.088 1.94338462,24.8405696 1.94338462,24.4281856 L1.94338462,24.4281856 Z M25.9107692,28.7191744 C25.9107692,29.131872 25.668,29.3789888 25.2633846,29.3789888 L8.74492308,29.3789888 C8.34,29.3789888 8.09723077,29.1321856 8.09723077,28.7191744 L8.09723077,27.068384 L20.7289231,27.068384 C21.5390769,27.068384 22.0246154,26.5735232 22.0246154,25.7478144 L22.0246154,6.9324416 L25.2633846,6.9324416 C25.668,6.9324416 25.9107692,7.1795584 25.9107692,7.592256 L25.9107692,28.7191744 L25.9107692,28.7191744 Z" id="updates-icon-containers"></path>
            <path d="M11.9535224,7.91841062 C11.9535224,7.79559432 11.8579986,7.70007053 11.7351823,7.70007053 L11.2985021,7.70007053 C11.1756858,7.70007053 11.080162,7.79559432 11.080162,7.91841062 L11.080162,10.3201516 L9.55178145,10.3201516 C9.42896515,10.3201516 9.33344136,10.4156753 9.33344136,10.5384916 L9.33344136,10.9751718 C9.33344136,11.0979881 9.42896515,11.1935119 9.55178145,11.1935119 L11.7351823,11.1935119 C11.8579986,11.1935119 11.9535224,11.0979881 11.9535224,10.9751718 L11.9535224,7.91841062 Z M14.7919435,10.4401516 C14.7919435,12.4870899 13.1271003,14.151933 11.080162,14.151933 C9.03322375,14.151933 7.3683806,12.4870899 7.3683806,10.4401516 C7.3683806,8.39321326 9.03322375,6.72837011 11.080162,6.72837011 C13.1271003,6.72837011 14.7919435,8.39321326 14.7919435,10.4401516 L14.7919435,10.4401516 Z M16.3203241,10.4401516 C16.3203241,7.54714543 13.9731682,5.19998951 11.080162,5.19998951 C8.18715592,5.19998951 5.84,7.54714543 5.84,10.4401516 C5.84,13.3331577 8.18715592,15.6803136 11.080162,15.6803136 C13.9731682,15.6803136 16.3203241,13.3331577 16.3203241,10.4401516 L16.3203241,10.4401516 Z" id="updates-icon-clock"></path>
            <rect id="updates-icon-line" x="5.14" y="19.04" width="11.66" height="1.980384"></rect>
        </g>
        <g id="settings-icon" transform="translate(228)">
            <path d="M15.6225277,1.95078545 L16.6469389,4.83103385 C17.3341123,5.03019631 17.9944028,5.30474537 18.6079055,5.6451862 L21.3705554,4.33215533 L23.664756,6.62566952 L22.3510388,9.38671787 C22.6914796,10.0047964 22.966715,10.6605111 23.1643903,11.3507732 L26.0461259,12.3719813 L26.0461259,15.6178375 L23.1643903,16.6421343 C22.9666006,17.3309092 22.6913652,17.989827 22.3510388,18.6047025 L23.664756,21.3657508 L21.3705554,23.6607522 L18.6079055,22.3469205 C17.99303,22.6881621 17.3341123,22.9627112 16.6469389,23.161988 L15.6225277,26.0422364 L12.3783874,26.0422364 L11.3531755,23.161988 C10.6652013,22.9627112 10.006398,22.6881621 9.39140809,22.3469205 L6.62887259,23.6607522 L4.33535841,21.3657508 L5.64999081,18.6047025 C5.30954998,17.988111 5.03339938,17.3309092 4.83572406,16.6421343 L1.95547566,15.6178375 L1.95547566,12.3719813 L4.83572406,11.3507732 C5.03339938,10.6605111 5.30954998,10.0031949 5.64999081,9.38671787 L4.33524401,6.62566952 L6.6287582,4.33215533 L9.39129369,5.6451862 C10.0078851,5.30474537 10.6650869,5.03031071 11.3530611,4.83103385 L12.378273,1.95078545 L15.6225277,1.95078545 L15.6225277,1.95078545 Z M13.9995996,18.4164076 C16.438968,18.4164076 18.4172083,16.4381672 18.4172083,13.9987988 C18.4172083,11.5594305 16.438968,9.57970298 13.9995996,9.57970298 C11.5594305,9.57970298 9.58038935,11.5594305 9.58038935,13.9987988 C9.58038935,16.4381672 11.5594305,18.4164076 13.9995996,18.4164076 L13.9995996,18.4164076 Z M16.9974465,0 L15.621727,0 L12.3774723,0 L11.0009519,0 L10.538108,1.29587155 L9.83057218,3.28738177 C9.67773987,3.3469818 9.52467877,3.4096705 9.37401998,3.47716381 L7.46647601,2.56726248 L6.22242559,1.97743958 L5.24811962,2.95163116 L2.95403346,5.24354381 L1.97984189,6.21922252 L2.57035115,7.46338733 L3.47716381,9.37413437 C3.41115764,9.52467877 3.34846894,9.67533757 3.28966968,9.8274835 L1.29896023,10.5366208 L0,10.9962617 L0,12.3751844 L0,15.6202398 L0,17.0000776 L1.29896023,17.4604049 L3.28966968,18.1687414 C3.34846894,18.3191715 3.41115764,18.4730333 3.47716381,18.6220906 L2.57035115,20.5312361 L1.97972749,21.7759729 L2.95391907,22.7509652 L5.24823402,25.0444794 L6.22253999,26.0171838 L7.4665904,25.4272465 L9.37413437,24.5197475 C9.52547954,24.5847241 9.67773987,24.6475272 9.83068658,24.7072416 L10.5382224,26.6995526 L11.0010663,27.9953098 L12.3783874,27.9953098 L15.6225277,27.9953098 L16.9982473,27.9953098 L17.4610913,26.6995526 L18.1686271,24.7072416 C18.3223745,24.6476416 18.4746349,24.5848385 18.6250649,24.5197475 L20.5327232,25.4272465 L21.7767736,26.0171838 L22.7509652,25.0444794 L25.0460809,22.7509652 L26.0202725,21.7759729 L25.4288481,20.5312361 L24.5221498,18.6220906 C24.5880416,18.4715462 24.6507303,18.3192858 24.7104447,18.1687414 L26.7011542,17.4604049 L28,17.0000776 L28,15.6202398 L28,12.3751844 L28,10.9962617 L26.7011542,10.5366208 L24.7104447,9.8274835 C24.6508447,9.67533757 24.588156,9.52307724 24.5221498,9.37413437 L25.4288481,7.46338733 L26.0202725,6.21933692 L25.0460809,5.2436582 L22.7508508,2.95163116 L21.7766592,1.97743958 L20.5327232,2.56726248 L18.6250649,3.47716381 C18.4738341,3.4097849 18.3223745,3.3469818 18.1686271,3.28738177 L17.4610913,1.29587155 L16.9974465,0 L16.9974465,0 Z M13.9995996,16.4656221 C12.6387515,16.4656221 11.5327763,15.359647 11.5327763,13.9994852 C11.5327763,12.6393234 12.6387515,11.5318612 13.9995996,11.5318612 C15.3589606,11.5318612 16.4649358,12.6394378 16.4649358,13.9994852 C16.4649358,15.3595326 15.3597614,16.4656221 13.9995996,16.4656221 L13.9995996,16.4656221 L13.9995996,16.4656221 Z"></path>
        </g>
        <g id="support-icon" transform="translate(206)">
            <path d="M9.55882353,0 C4.28808824,0 0,4.28808824 0,9.55882353 C0,10.6145956 0.855992647,11.4705882 1.91176471,11.4705882 C2.96753676,11.4705882 3.82352941,10.6145956 3.82352941,9.55882353 C3.82352941,6.39628676 6.39628676,3.82352941 9.55882353,3.82352941 C12.7213603,3.82352941 15.2941176,6.39628676 15.2941176,9.55882353 C15.2941176,12.7213603 12.7213603,15.2941176 9.55882353,15.2941176 C8.50305147,15.2941176 7.64705882,16.1501103 7.64705882,17.2058824 L7.64705882,21.9852941 C7.64705882,23.0410662 8.50305147,23.8970588 9.55882353,23.8970588 C10.6145956,23.8970588 11.4705882,23.0410662 11.4705882,21.9852941 L11.4705882,18.9259926 C15.8279779,18.0375 19.1176471,14.1752574 19.1176471,9.55882353 C19.1176471,4.28808824 14.8290809,0 9.55882353,0 L9.55882353,0 Z" id="support-icon-head"></path>
            <circle id="support-icon-dot" cx="9.55882353" cy="28.6764706" r="1.91176471"></circle>
        </g>
        <g id="about-icon" transform="translate(258)">
            <path d="M14,0 C6.26808,0 0,6.26808 0,14 C0,21.73164 6.26808,27.99972 14,27.99972 C21.73192,27.99972 28,21.73164 28,14 C28,6.26808 21.73192,0 14,0 L14,0 Z M13.98236,6.32156 C14.29596,5.98108 14.67816,5.80804 15.11776,5.80804 C15.4742,5.80804 15.7878,5.93628 16.02328,6.17904 C16.26016,6.4204 16.38028,6.72924 16.38028,7.09604 C16.38028,7.5558 16.21956,7.9646 15.90288,8.31096 C15.57752,8.66824 15.197,8.84996 14.77308,8.84996 C14.42308,8.84996 14.11312,8.71864 13.8768,8.47028 C13.64272,8.22696 13.52316,7.90888 13.52316,7.5264 C13.52316,7.05796 13.67772,6.65252 13.98236,6.32156 L13.98236,6.32156 Z M16.31448,19.51152 C15.15388,20.60296 14.32536,21.28336 13.78272,21.59248 C13.20368,21.924 12.72656,22.08584 12.32476,22.08584 C11.92548,22.08584 11.59984,21.95284 11.35624,21.69104 C11.1202,21.43792 11.00064,21.09604 11.00064,20.67604 C11.00064,19.60252 11.6088,17.1094 12.86068,13.05416 C12.88196,12.98556 12.89848,12.92032 12.90968,12.85956 C12.86292,12.87972 12.80888,12.90828 12.74616,12.9472 C12.64368,13.01188 12.33148,13.25688 11.41784,14.14952 C11.2784,14.28588 11.06028,14.29848 10.906,14.17892 L10.3656,13.76088 C10.27936,13.69452 10.22504,13.59484 10.21552,13.4862 C10.206,13.37784 10.2424,13.27032 10.31548,13.18968 C11.15744,12.2626 11.9434,11.58948 12.6518,11.18908 C13.39324,10.77132 14.02016,10.56804 14.56756,10.56804 C14.92148,10.56804 15.20736,10.65596 15.41792,10.83012 C15.64696,11.02108 15.76792,11.28624 15.76792,11.59732 C15.76792,11.80144 15.67104,12.33316 14.95592,14.73136 C13.93448,18.158 13.69032,19.40176 13.6738,19.83212 C13.867,19.71788 14.32424,19.39308 15.30032,18.4758 C15.45236,18.33188 15.69092,18.33468 15.84016,18.48028 L16.31924,18.94732 C16.39568,19.0218 16.43852,19.124 16.4374,19.23068 C16.43628,19.33736 16.39204,19.43844 16.31448,19.51152 L16.31448,19.51152 Z"></path>
        </g>
    </defs>
</svg>